<svg width="445" height="358" viewBox="0 0 445 358" fill="none" xmlns="http://www.w3.org/2000/svg">
<path d="M164.984 228.373H151.872V251.421H120.11V228.373H72.6289V204.754L122.146 132.352H151.873V204.347H164.985V228.373H164.984ZM120.11 204.347V190.502C120.11 187.896 120.204 184.382 120.395 179.955C120.584 175.531 120.733 173.209 120.843 172.992H119.947C118.101 177.173 116.01 181.083 113.676 184.72L100.482 204.347H120.11Z" fill="#EB662B"/>
<path d="M259.373 192.049C259.373 213.116 255.843 228.549 248.786 238.35C241.728 248.15 230.922 253.049 216.373 253.049C202.147 253.049 191.424 247.933 184.203 237.697C176.981 227.464 173.371 212.246 173.371 192.048C173.371 170.873 176.9 155.346 183.959 145.463C191.016 135.582 201.822 130.641 216.373 130.641C230.544 130.641 241.253 135.786 248.501 146.074C255.749 156.365 259.373 171.688 259.373 192.049ZM205.377 192.049C205.377 205.515 206.218 214.772 207.902 219.821C209.584 224.87 212.408 227.395 216.372 227.395C220.389 227.395 223.225 224.789 224.882 219.576C226.538 214.364 227.366 205.189 227.366 192.049C227.366 178.856 226.524 169.611 224.842 164.318C223.158 159.024 220.334 156.378 216.372 156.378C212.408 156.378 209.584 158.931 207.902 164.033C206.218 169.137 205.377 178.475 205.377 192.049Z" fill="#EB662B"/>
<path d="M360.445 228.373H347.334V251.421H315.571V228.373H268.09V204.754L317.607 132.352H347.334V204.347H360.445V228.373ZM315.571 204.347V190.502C315.571 187.896 315.665 184.382 315.856 179.955C316.045 175.531 316.194 173.209 316.304 172.992H315.408C313.562 177.173 311.47 181.083 309.137 184.72L295.944 204.347H315.571Z" fill="#EB662B"/>
<path d="M24.9023 158.771H73.0393" stroke="black" stroke-width="2.1628" stroke-miterlimit="10" stroke-linecap="round" stroke-linejoin="round"/>
<path d="M84.5938 158.771H94.8698" stroke="black" stroke-width="2.1628" stroke-miterlimit="10" stroke-linecap="round" stroke-linejoin="round"/>
<path d="M16.1855 145.223H102.361" stroke="black" stroke-width="2.1628" stroke-miterlimit="10" stroke-linecap="round" stroke-linejoin="round"/>
<path d="M9.093 145.223H2" stroke="black" stroke-width="2.1628" stroke-miterlimit="10" stroke-linecap="round" stroke-linejoin="round"/>
<path d="M16.1855 132.352H44.7955" stroke="black" stroke-width="2.1628" stroke-miterlimit="10" stroke-linecap="round" stroke-linejoin="round"/>
<path d="M52.4531 132.352H112.538" stroke="black" stroke-width="2.1628" stroke-miterlimit="10" stroke-linecap="round" stroke-linejoin="round"/>
<path d="M365.16 266.259H416.672" stroke="black" stroke-width="2.1628" stroke-miterlimit="10" stroke-linecap="round" stroke-linejoin="round"/>
<path d="M425.051 266.259H432.502" stroke="black" stroke-width="2.1628" stroke-miterlimit="10" stroke-linecap="round" stroke-linejoin="round"/>
<path d="M375.445 252.71H442.952" stroke="black" stroke-width="2.1628" stroke-miterlimit="10" stroke-linecap="round" stroke-linejoin="round"/>
<path d="M370.303 252.71H365.16" stroke="black" stroke-width="2.1628" stroke-miterlimit="10" stroke-linecap="round" stroke-linejoin="round"/>
<path d="M365.16 239.839H396.192" stroke="black" stroke-width="2.1628" stroke-miterlimit="10" stroke-linecap="round" stroke-linejoin="round"/>
<path d="M401.746 239.839H425.05" stroke="black" stroke-width="2.1628" stroke-miterlimit="10" stroke-linecap="round" stroke-linejoin="round"/>
<path d="M171.148 227.917H158.036V250.965H126.274V227.917H78.793V204.298L128.31 131.896H158.037V203.891H171.149L171.148 227.917ZM126.273 203.891V190.046C126.273 187.44 126.367 183.926 126.558 179.499C126.747 175.075 126.896 172.753 127.006 172.536H126.11C124.264 176.717 122.173 180.627 119.839 184.264L106.645 203.891H126.273Z" stroke="black" stroke-width="3.2675" stroke-miterlimit="10"/>
<path d="M265.537 191.594C265.537 212.661 262.007 228.094 254.95 237.895C247.892 247.695 237.086 252.594 222.537 252.594C208.311 252.594 197.588 247.478 190.367 237.242C183.145 227.009 179.535 211.791 179.535 191.593C179.535 170.418 183.064 154.891 190.122 145.008C197.179 135.127 207.985 130.186 222.536 130.186C236.707 130.186 247.416 135.331 254.664 145.619C261.914 155.91 265.537 171.234 265.537 191.594ZM211.542 191.594C211.542 205.06 212.383 214.317 214.067 219.366C215.749 224.415 218.573 226.94 222.537 226.94C226.554 226.94 229.39 224.334 231.047 219.121C232.703 213.909 233.531 204.734 233.531 191.593C233.531 178.4 232.689 169.155 231.007 163.862C229.323 158.568 226.499 155.922 222.537 155.922C218.573 155.922 215.749 158.475 214.067 163.577C212.383 168.682 211.542 178.021 211.542 191.594Z" stroke="black" stroke-width="3.2675" stroke-miterlimit="10"/>
<path d="M366.609 227.917H353.497V250.965H321.735V227.917H274.254V204.298L323.771 131.896H353.498V203.891H366.61L366.609 227.917ZM321.735 203.891V190.046C321.735 187.44 321.829 183.926 322.02 179.499C322.209 175.075 322.358 172.753 322.468 172.536H321.572C319.726 176.717 317.634 180.627 315.301 184.264L302.108 203.891H321.735Z" stroke="black" stroke-width="3.2675" stroke-miterlimit="10"/>
<path d="M162.81 301.95V274.906H179.131V277.811H166.085V286.949H178.286V289.854H166.085V299.045H179.343V301.95H162.81ZM185.034 301.95V274.906H194.172C196.285 274.906 198.019 275.267 199.375 275.989C200.731 276.702 201.734 277.683 202.386 278.933C203.037 280.183 203.363 281.605 203.363 283.198C203.363 284.792 203.037 286.205 202.386 287.437C201.734 288.67 200.735 289.638 199.388 290.342C198.041 291.038 196.32 291.386 194.225 291.386H186.83V288.428H194.119C195.563 288.428 196.725 288.216 197.605 287.794C198.495 287.371 199.137 286.773 199.533 285.998C199.938 285.214 200.141 284.281 200.141 283.198C200.141 282.116 199.938 281.169 199.533 280.359C199.128 279.549 198.481 278.924 197.592 278.484C196.703 278.035 195.528 277.811 194.066 277.811H188.309V301.95H185.034ZM197.764 289.801L204.419 301.95H200.616L194.066 289.801H197.764ZM208.82 301.95V274.906H217.958C220.071 274.906 221.805 275.267 223.161 275.989C224.516 276.702 225.52 277.683 226.171 278.933C226.823 280.183 227.148 281.605 227.148 283.198C227.148 284.792 226.823 286.205 226.171 287.437C225.52 288.67 224.521 289.638 223.174 290.342C221.827 291.038 220.106 291.386 218.011 291.386H210.616V288.428H217.905C219.349 288.428 220.511 288.216 221.391 287.794C222.28 287.371 222.923 286.773 223.319 285.998C223.724 285.214 223.926 284.281 223.926 283.198C223.926 282.116 223.724 281.169 223.319 280.359C222.914 279.549 222.267 278.924 221.378 278.484C220.489 278.035 219.313 277.811 217.852 277.811H212.095V301.95H208.82ZM221.55 289.801L228.205 301.95H224.402L217.852 289.801H221.55ZM255.424 288.428C255.424 291.28 254.909 293.745 253.879 295.823C252.849 297.9 251.436 299.502 249.64 300.629C247.844 301.756 245.793 302.319 243.486 302.319C241.18 302.319 239.129 301.756 237.333 300.629C235.537 299.502 234.124 297.9 233.094 295.823C232.064 293.745 231.549 291.28 231.549 288.428C231.549 285.575 232.064 283.11 233.094 281.033C234.124 278.955 235.537 277.353 237.333 276.226C239.129 275.099 241.18 274.536 243.486 274.536C245.793 274.536 247.844 275.099 249.64 276.226C251.436 277.353 252.849 278.955 253.879 281.033C254.909 283.11 255.424 285.575 255.424 288.428ZM252.255 288.428C252.255 286.086 251.863 284.11 251.079 282.499C250.305 280.888 249.253 279.668 247.923 278.841C246.603 278.013 245.124 277.6 243.486 277.6C241.849 277.6 240.366 278.013 239.036 278.841C237.716 279.668 236.664 280.888 235.88 282.499C235.106 284.11 234.718 286.086 234.718 288.428C234.718 290.769 235.106 292.746 235.88 294.357C236.664 295.968 237.716 297.187 239.036 298.015C240.366 298.842 241.849 299.256 243.486 299.256C245.124 299.256 246.603 298.842 247.923 298.015C249.253 297.187 250.305 295.968 251.079 294.357C251.863 292.746 252.255 290.769 252.255 288.428ZM260.93 301.95V274.906H270.068C272.181 274.906 273.915 275.267 275.271 275.989C276.627 276.702 277.63 277.683 278.282 278.933C278.933 280.183 279.259 281.605 279.259 283.198C279.259 284.792 278.933 286.205 278.282 287.437C277.63 288.67 276.631 289.638 275.284 290.342C273.937 291.038 272.216 291.386 270.121 291.386H262.726V288.428H270.015C271.459 288.428 272.621 288.216 273.502 287.794C274.391 287.371 275.033 286.773 275.43 285.998C275.834 285.214 276.037 284.281 276.037 283.198C276.037 282.116 275.834 281.169 275.43 280.359C275.025 279.549 274.378 278.924 273.488 278.484C272.599 278.035 271.424 277.811 269.963 277.811H264.205V301.95H260.93ZM273.66 289.801L280.315 301.95H276.512L269.963 289.801H273.66Z" fill="black"/>
<path d="M387.645 155.835V144.796" stroke="black" stroke-width="2.1628" stroke-miterlimit="10" stroke-linecap="round" stroke-linejoin="round"/>
<path d="M379.938 159.027L372.133 151.221" stroke="black" stroke-width="2.1628" stroke-miterlimit="10" stroke-linecap="round" stroke-linejoin="round"/>
<path d="M376.746 166.733H365.707" stroke="black" stroke-width="2.1628" stroke-miterlimit="10" stroke-linecap="round" stroke-linejoin="round"/>
<path d="M379.938 174.438L372.133 182.244" stroke="black" stroke-width="2.1628" stroke-miterlimit="10" stroke-linecap="round" stroke-linejoin="round"/>
<path d="M387.645 177.63V188.669" stroke="black" stroke-width="2.1628" stroke-miterlimit="10" stroke-linecap="round" stroke-linejoin="round"/>
<path d="M395.348 174.438L403.154 182.244" stroke="black" stroke-width="2.1628" stroke-miterlimit="10" stroke-linecap="round" stroke-linejoin="round"/>
<path d="M398.539 166.733H409.578" stroke="black" stroke-width="2.1628" stroke-miterlimit="10" stroke-linecap="round" stroke-linejoin="round"/>
<path d="M395.348 159.027L403.154 151.221" stroke="black" stroke-width="2.1628" stroke-miterlimit="10" stroke-linecap="round" stroke-linejoin="round"/>
<path d="M41.4141 210.801V202.822" stroke="black" stroke-width="2.1628" stroke-miterlimit="10" stroke-linecap="round" stroke-linejoin="round"/>
<path d="M35.8451 213.109L30.2031 207.467" stroke="black" stroke-width="2.1628" stroke-miterlimit="10" stroke-linecap="round" stroke-linejoin="round"/>
<path d="M33.5376 218.679H25.5586" stroke="black" stroke-width="2.1628" stroke-miterlimit="10" stroke-linecap="round" stroke-linejoin="round"/>
<path d="M35.8451 224.249L30.2031 229.891" stroke="black" stroke-width="2.1628" stroke-miterlimit="10" stroke-linecap="round" stroke-linejoin="round"/>
<path d="M41.4141 226.556V234.535" stroke="black" stroke-width="2.1628" stroke-miterlimit="10" stroke-linecap="round" stroke-linejoin="round"/>
<path d="M46.9844 224.249L52.6264 229.891" stroke="black" stroke-width="2.1628" stroke-miterlimit="10" stroke-linecap="round" stroke-linejoin="round"/>
<path d="M49.2891 218.679H57.2691" stroke="black" stroke-width="2.1628" stroke-miterlimit="10" stroke-linecap="round" stroke-linejoin="round"/>
<path d="M46.9844 213.109L52.6264 207.467" stroke="black" stroke-width="2.1628" stroke-miterlimit="10" stroke-linecap="round" stroke-linejoin="round"/>
<path d="M257.336 45.9888V38.0088" stroke="black" stroke-width="2.1628" stroke-miterlimit="10" stroke-linecap="round" stroke-linejoin="round"/>
<path d="M251.767 48.2958L246.125 42.6538" stroke="black" stroke-width="2.1628" stroke-miterlimit="10" stroke-linecap="round" stroke-linejoin="round"/>
<path d="M249.459 53.8657H241.48" stroke="black" stroke-width="2.1628" stroke-miterlimit="10" stroke-linecap="round" stroke-linejoin="round"/>
<path d="M251.767 59.4355L246.125 65.0776" stroke="black" stroke-width="2.1628" stroke-miterlimit="10" stroke-linecap="round" stroke-linejoin="round"/>
<path d="M257.336 61.7427V69.7217" stroke="black" stroke-width="2.1628" stroke-miterlimit="10" stroke-linecap="round" stroke-linejoin="round"/>
<path d="M262.906 59.4355L268.548 65.0776" stroke="black" stroke-width="2.1628" stroke-miterlimit="10" stroke-linecap="round" stroke-linejoin="round"/>
<path d="M265.211 53.8657H273.19" stroke="black" stroke-width="2.1628" stroke-miterlimit="10" stroke-linecap="round" stroke-linejoin="round"/>
<path d="M262.906 48.2958L268.548 42.6538" stroke="black" stroke-width="2.1628" stroke-miterlimit="10" stroke-linecap="round" stroke-linejoin="round"/>
<path d="M354.788 267.629H81.0273V310.727H354.788V267.629Z" stroke="black" stroke-width="2.4187" stroke-miterlimit="10" stroke-linecap="round" stroke-linejoin="round"/>
<path d="M124.233 327.73V326.709H131.362V327.73H128.373V336.214H127.222V327.73H124.233ZM134.085 331.926V336.214H132.99V326.709H134.085V330.199H134.178C134.345 329.831 134.596 329.539 134.93 329.322C135.267 329.102 135.716 328.992 136.276 328.992C136.762 328.992 137.187 329.09 137.552 329.285C137.917 329.477 138.2 329.772 138.402 330.171C138.606 330.567 138.708 331.072 138.708 331.684V336.214H137.613V331.759C137.613 331.192 137.466 330.755 137.172 330.445C136.881 330.133 136.477 329.976 135.96 329.976C135.601 329.976 135.28 330.052 134.995 330.204C134.713 330.355 134.491 330.577 134.327 330.868C134.166 331.158 134.085 331.511 134.085 331.926ZM143.701 336.363C143.014 336.363 142.421 336.211 141.923 335.908C141.428 335.602 141.046 335.175 140.777 334.627C140.511 334.076 140.378 333.436 140.378 332.706C140.378 331.975 140.511 331.332 140.777 330.775C141.046 330.215 141.42 329.778 141.9 329.466C142.383 329.15 142.946 328.992 143.589 328.992C143.961 328.992 144.327 329.054 144.689 329.178C145.051 329.302 145.381 329.503 145.678 329.781C145.975 330.057 146.212 330.422 146.388 330.877C146.565 331.332 146.653 331.892 146.653 332.557V333.021H141.157V332.074H145.539C145.539 331.672 145.458 331.313 145.297 330.997C145.14 330.682 144.914 330.433 144.62 330.25C144.329 330.068 143.986 329.976 143.589 329.976C143.153 329.976 142.776 330.085 142.457 330.301C142.141 330.515 141.898 330.793 141.728 331.137C141.558 331.48 141.473 331.848 141.473 332.241V332.873C141.473 333.411 141.566 333.867 141.752 334.242C141.94 334.613 142.202 334.896 142.536 335.091C142.87 335.283 143.258 335.379 143.701 335.379C143.989 335.379 144.249 335.339 144.481 335.258C144.716 335.175 144.918 335.051 145.089 334.887C145.259 334.72 145.39 334.513 145.483 334.265L146.541 334.562C146.43 334.921 146.243 335.237 145.98 335.509C145.717 335.778 145.392 335.988 145.005 336.14C144.618 336.289 144.184 336.363 143.701 336.363ZM151.995 336.214V329.085H153.053V330.162H153.127C153.257 329.809 153.493 329.523 153.833 329.303C154.173 329.084 154.557 328.974 154.984 328.974C155.064 328.974 155.165 328.975 155.286 328.979C155.406 328.982 155.498 328.986 155.559 328.992V330.106C155.522 330.097 155.437 330.083 155.304 330.065C155.174 330.043 155.037 330.032 154.891 330.032C154.545 330.032 154.235 330.105 153.963 330.25C153.694 330.393 153.48 330.591 153.322 330.844C153.168 331.095 153.09 331.381 153.09 331.703V336.214H151.995ZM159.63 336.363C158.943 336.363 158.35 336.211 157.852 335.908C157.357 335.602 156.975 335.175 156.706 334.627C156.44 334.076 156.307 333.436 156.307 332.706C156.307 331.975 156.44 331.332 156.706 330.775C156.975 330.215 157.349 329.778 157.829 329.466C158.312 329.15 158.875 328.992 159.519 328.992C159.89 328.992 160.257 329.054 160.619 329.178C160.981 329.302 161.31 329.503 161.607 329.781C161.904 330.057 162.141 330.422 162.317 330.877C162.494 331.332 162.582 331.892 162.582 332.557V333.021H157.086V332.074H161.468C161.468 331.672 161.387 331.313 161.227 330.997C161.069 330.682 160.843 330.433 160.549 330.25C160.258 330.068 159.915 329.976 159.519 329.976C159.082 329.976 158.705 330.085 158.386 330.301C158.07 330.515 157.828 330.793 157.657 331.137C157.487 331.48 157.402 331.848 157.402 332.241V332.873C157.402 333.411 157.495 333.867 157.681 334.242C157.869 334.613 158.131 334.896 158.465 335.091C158.799 335.283 159.187 335.379 159.63 335.379C159.918 335.379 160.178 335.339 160.41 335.258C160.645 335.175 160.848 335.051 161.018 334.887C161.188 334.72 161.319 334.513 161.412 334.265L162.47 334.562C162.359 334.921 162.172 335.237 161.909 335.509C161.646 335.778 161.321 335.988 160.934 336.14C160.547 336.289 160.113 336.363 159.63 336.363ZM169.112 338.888V335.119H169.019C168.939 335.249 168.824 335.413 168.676 335.611C168.527 335.806 168.315 335.981 168.04 336.135C167.765 336.287 167.398 336.363 166.94 336.363C166.346 336.363 165.821 336.213 165.367 335.913C164.912 335.609 164.556 335.182 164.299 334.632C164.042 334.078 163.914 333.423 163.914 332.668C163.914 331.92 164.042 331.27 164.299 330.719C164.556 330.168 164.913 329.743 165.371 329.443C165.829 329.143 166.358 328.992 166.959 328.992C167.423 328.992 167.789 329.07 168.059 329.225C168.331 329.376 168.538 329.549 168.681 329.744C168.826 329.936 168.939 330.094 169.019 330.218H169.149V329.085H170.208V338.888H169.112ZM167.089 335.379C167.528 335.379 167.899 335.264 168.202 335.035C168.506 334.803 168.736 334.483 168.894 334.075C169.052 333.663 169.131 333.188 169.131 332.65C169.131 332.118 169.053 331.652 168.899 331.253C168.744 330.851 168.515 330.538 168.212 330.315C167.909 330.089 167.534 329.976 167.089 329.976C166.624 329.976 166.238 330.096 165.928 330.334C165.622 330.569 165.391 330.889 165.237 331.295C165.085 331.697 165.009 332.149 165.009 332.65C165.009 333.157 165.087 333.618 165.241 334.033C165.399 334.444 165.631 334.772 165.937 335.017C166.247 335.258 166.631 335.379 167.089 335.379ZM176.705 333.3V329.085H177.801V336.214H176.705V335.008H176.631C176.464 335.37 176.204 335.678 175.851 335.931C175.499 336.182 175.053 336.307 174.515 336.307C174.069 336.307 173.673 336.21 173.327 336.015C172.98 335.817 172.708 335.52 172.51 335.124C172.312 334.724 172.213 334.222 172.213 333.615V329.085H173.308V333.541C173.308 334.061 173.453 334.475 173.744 334.785C174.038 335.094 174.413 335.249 174.867 335.249C175.14 335.249 175.417 335.179 175.698 335.04C175.983 334.901 176.221 334.687 176.413 334.4C176.608 334.112 176.705 333.745 176.705 333.3ZM182.796 336.363C182.109 336.363 181.517 336.211 181.018 335.908C180.523 335.602 180.141 335.175 179.872 334.627C179.606 334.076 179.473 333.436 179.473 332.706C179.473 331.975 179.606 331.332 179.872 330.775C180.141 330.215 180.516 329.778 180.995 329.466C181.478 329.15 182.041 328.992 182.685 328.992C183.056 328.992 183.423 329.054 183.785 329.178C184.147 329.302 184.476 329.503 184.773 329.781C185.07 330.057 185.307 330.422 185.483 330.877C185.66 331.332 185.748 331.892 185.748 332.557V333.021H180.253V332.074H184.634C184.634 331.672 184.554 331.313 184.393 330.997C184.235 330.682 184.009 330.433 183.715 330.25C183.424 330.068 183.081 329.976 182.685 329.976C182.248 329.976 181.871 330.085 181.552 330.301C181.237 330.515 180.994 330.793 180.823 331.137C180.653 331.48 180.568 331.848 180.568 332.241V332.873C180.568 333.411 180.661 333.867 180.847 334.242C181.035 334.613 181.297 334.896 181.631 335.091C181.965 335.283 182.354 335.379 182.796 335.379C183.084 335.379 183.344 335.339 183.576 335.258C183.811 335.175 184.014 335.051 184.184 334.887C184.354 334.72 184.485 334.513 184.578 334.265L185.636 334.562C185.525 334.921 185.338 335.237 185.075 335.509C184.812 335.778 184.487 335.988 184.1 336.14C183.713 336.289 183.279 336.363 182.796 336.363ZM192.464 330.682L191.48 330.96C191.418 330.796 191.327 330.637 191.206 330.482C191.089 330.325 190.928 330.195 190.723 330.092C190.519 329.99 190.258 329.939 189.939 329.939C189.503 329.939 189.139 330.04 188.848 330.241C188.561 330.439 188.417 330.691 188.417 330.997C188.417 331.27 188.516 331.485 188.714 331.643C188.912 331.8 189.221 331.932 189.642 332.037L190.7 332.297C191.338 332.452 191.813 332.688 192.125 333.007C192.438 333.323 192.594 333.73 192.594 334.228C192.594 334.636 192.476 335.001 192.241 335.323C192.009 335.645 191.684 335.899 191.266 336.084C190.849 336.27 190.363 336.363 189.809 336.363C189.082 336.363 188.48 336.205 188.004 335.889C187.527 335.574 187.225 335.113 187.099 334.506L188.138 334.246C188.237 334.63 188.424 334.918 188.7 335.11C188.978 335.302 189.342 335.397 189.79 335.397C190.301 335.397 190.706 335.289 191.007 335.073C191.31 334.853 191.461 334.59 191.461 334.284C191.461 334.036 191.375 333.829 191.201 333.662C191.028 333.491 190.762 333.365 190.403 333.281L189.215 333.003C188.562 332.848 188.082 332.608 187.776 332.283C187.473 331.955 187.321 331.545 187.321 331.053C187.321 330.651 187.434 330.295 187.66 329.986C187.889 329.676 188.2 329.433 188.593 329.257C188.989 329.081 189.438 328.992 189.939 328.992C190.644 328.992 191.198 329.147 191.601 329.457C192.006 329.766 192.294 330.174 192.464 330.682ZM197.343 329.085V330.014H193.649V329.085H197.343ZM194.725 327.377H195.821V334.172C195.821 334.482 195.866 334.714 195.955 334.868C196.048 335.02 196.166 335.122 196.308 335.175C196.454 335.224 196.607 335.249 196.768 335.249C196.888 335.249 196.987 335.243 197.065 335.23C197.142 335.215 197.204 335.203 197.25 335.193L197.473 336.177C197.399 336.205 197.295 336.233 197.162 336.261C197.029 336.292 196.86 336.307 196.656 336.307C196.347 336.307 196.044 336.241 195.746 336.108C195.453 335.975 195.208 335.772 195.013 335.5C194.821 335.227 194.725 334.884 194.725 334.469V327.377ZM201.903 336.363C201.216 336.363 200.624 336.211 200.126 335.908C199.631 335.602 199.248 335.175 198.979 334.627C198.713 334.076 198.58 333.436 198.58 332.706C198.58 331.975 198.713 331.332 198.979 330.775C199.248 330.215 199.623 329.778 200.102 329.466C200.585 329.15 201.148 328.992 201.792 328.992C202.163 328.992 202.53 329.054 202.892 329.178C203.254 329.302 203.583 329.503 203.88 329.781C204.177 330.057 204.414 330.422 204.591 330.877C204.767 331.332 204.855 331.892 204.855 332.557V333.021H199.36V332.074H203.741C203.741 331.672 203.661 331.313 203.5 330.997C203.342 330.682 203.116 330.433 202.822 330.25C202.531 330.068 202.188 329.976 201.792 329.976C201.356 329.976 200.978 330.085 200.659 330.301C200.344 330.515 200.101 330.793 199.931 331.137C199.76 331.48 199.675 331.848 199.675 332.241V332.873C199.675 333.411 199.768 333.867 199.954 334.242C200.143 334.613 200.404 334.896 200.738 335.091C201.072 335.283 201.461 335.379 201.903 335.379C202.191 335.379 202.451 335.339 202.683 335.258C202.918 335.175 203.121 335.051 203.291 334.887C203.461 334.72 203.593 334.513 203.685 334.265L204.744 334.562C204.632 334.921 204.445 335.237 204.182 335.509C203.919 335.778 203.594 335.988 203.207 336.14C202.821 336.289 202.386 336.363 201.903 336.363ZM209.213 336.363C208.619 336.363 208.095 336.213 207.64 335.913C207.185 335.609 206.829 335.182 206.572 334.632C206.316 334.078 206.187 333.423 206.187 332.668C206.187 331.92 206.316 331.27 206.572 330.719C206.829 330.168 207.187 329.743 207.645 329.443C208.102 329.143 208.632 328.992 209.232 328.992C209.696 328.992 210.063 329.07 210.332 329.225C210.604 329.376 210.811 329.549 210.954 329.744C211.099 329.936 211.212 330.094 211.293 330.218H211.385V326.709H212.481V336.214H211.423V335.119H211.293C211.212 335.249 211.098 335.413 210.949 335.611C210.801 335.806 210.589 335.981 210.313 336.135C210.038 336.287 209.671 336.363 209.213 336.363ZM209.362 335.379C209.801 335.379 210.173 335.264 210.476 335.035C210.779 334.803 211.01 334.483 211.167 334.075C211.325 333.663 211.404 333.188 211.404 332.65C211.404 332.118 211.327 331.652 211.172 331.253C211.017 330.851 210.788 330.538 210.485 330.315C210.182 330.089 209.807 329.976 209.362 329.976C208.898 329.976 208.511 330.096 208.201 330.334C207.895 330.569 207.665 330.889 207.51 331.295C207.358 331.697 207.283 332.149 207.283 332.65C207.283 333.157 207.36 333.618 207.515 334.033C207.672 334.444 207.904 334.772 208.211 335.017C208.52 335.258 208.904 335.379 209.362 335.379ZM218.315 338.888V329.085H219.373V330.218H219.503C219.584 330.094 219.695 329.936 219.837 329.744C219.983 329.549 220.19 329.376 220.459 329.225C220.732 329.07 221.1 328.992 221.564 328.992C222.164 328.992 222.693 329.143 223.151 329.443C223.609 329.743 223.967 330.168 224.223 330.719C224.48 331.27 224.609 331.92 224.609 332.668C224.609 333.423 224.48 334.078 224.223 334.632C223.967 335.182 223.611 335.609 223.156 335.913C222.701 336.213 222.177 336.363 221.582 336.363C221.125 336.363 220.758 336.287 220.482 336.135C220.207 335.981 219.995 335.806 219.847 335.611C219.698 335.413 219.584 335.249 219.503 335.119H219.41V338.888H218.315ZM219.392 332.65C219.392 333.188 219.471 333.663 219.628 334.075C219.786 334.483 220.017 334.803 220.32 335.035C220.623 335.264 220.995 335.379 221.434 335.379C221.892 335.379 222.274 335.258 222.58 335.017C222.89 334.772 223.122 334.444 223.277 334.033C223.434 333.618 223.513 333.157 223.513 332.65C223.513 332.149 223.436 331.697 223.281 331.295C223.13 330.889 222.899 330.569 222.59 330.334C222.283 330.096 221.898 329.976 221.434 329.976C220.988 329.976 220.614 330.089 220.311 330.315C220.008 330.538 219.779 330.851 219.624 331.253C219.469 331.652 219.392 332.118 219.392 332.65ZM228.377 336.381C227.926 336.381 227.516 336.296 227.147 336.126C226.779 335.953 226.487 335.704 226.27 335.379C226.054 335.051 225.945 334.655 225.945 334.191C225.945 333.782 226.026 333.451 226.187 333.197C226.348 332.941 226.563 332.74 226.832 332.594C227.101 332.449 227.398 332.34 227.723 332.269C228.051 332.195 228.38 332.136 228.712 332.093C229.145 332.037 229.496 331.995 229.765 331.968C230.037 331.937 230.235 331.886 230.359 331.814C230.486 331.743 230.55 331.619 230.55 331.443V331.406C230.55 330.948 230.424 330.592 230.174 330.338C229.926 330.085 229.55 329.958 229.046 329.958C228.523 329.958 228.113 330.072 227.816 330.301C227.519 330.53 227.31 330.775 227.189 331.035L226.15 330.663C226.335 330.23 226.583 329.893 226.892 329.652C227.205 329.407 227.545 329.237 227.913 329.141C228.285 329.042 228.65 328.992 229.009 328.992C229.238 328.992 229.501 329.02 229.798 329.076C230.098 329.129 230.387 329.238 230.666 329.406C230.947 329.573 231.181 329.825 231.366 330.162C231.552 330.499 231.645 330.951 231.645 331.517V336.214H230.55V335.249H230.494C230.42 335.404 230.296 335.569 230.123 335.746C229.949 335.922 229.719 336.072 229.431 336.196C229.143 336.32 228.792 336.381 228.377 336.381ZM228.544 335.397C228.978 335.397 229.343 335.312 229.64 335.142C229.94 334.972 230.166 334.752 230.317 334.483C230.472 334.214 230.55 333.931 230.55 333.634V332.631C230.503 332.687 230.401 332.738 230.243 332.784C230.088 332.828 229.909 332.866 229.705 332.9C229.504 332.931 229.307 332.959 229.115 332.984C228.927 333.006 228.773 333.024 228.656 333.04C228.371 333.077 228.105 333.137 227.858 333.221C227.613 333.301 227.415 333.423 227.263 333.587C227.115 333.748 227.041 333.968 227.041 334.246C227.041 334.627 227.181 334.915 227.463 335.11C227.748 335.302 228.108 335.397 228.544 335.397ZM236.522 339.036C235.993 339.036 235.538 338.968 235.157 338.832C234.777 338.699 234.459 338.523 234.206 338.303C233.955 338.086 233.756 337.854 233.607 337.607L234.48 336.994C234.579 337.124 234.704 337.273 234.856 337.44C235.007 337.61 235.214 337.757 235.477 337.881C235.744 338.007 236.092 338.071 236.522 338.071C237.097 338.071 237.572 337.932 237.947 337.653C238.321 337.375 238.508 336.938 238.508 336.344V334.896H238.415C238.335 335.026 238.22 335.187 238.072 335.379C237.927 335.568 237.716 335.736 237.441 335.885C237.168 336.03 236.8 336.103 236.336 336.103C235.761 336.103 235.244 335.967 234.786 335.695C234.331 335.422 233.971 335.026 233.704 334.506C233.441 333.987 233.31 333.355 233.31 332.613C233.31 331.882 233.438 331.247 233.695 330.705C233.952 330.161 234.309 329.74 234.767 329.443C235.225 329.143 235.754 328.992 236.355 328.992C236.819 328.992 237.187 329.07 237.459 329.225C237.735 329.376 237.945 329.549 238.091 329.744C238.239 329.936 238.354 330.094 238.434 330.218H238.545V329.085H239.604V336.419C239.604 337.031 239.464 337.529 239.186 337.913C238.911 338.3 238.539 338.583 238.072 338.762C237.608 338.945 237.091 339.036 236.522 339.036ZM236.485 335.119C236.924 335.119 237.295 335.018 237.599 334.817C237.902 334.616 238.132 334.327 238.29 333.949C238.448 333.572 238.527 333.12 238.527 332.594C238.527 332.08 238.449 331.627 238.295 331.234C238.14 330.841 237.911 330.533 237.608 330.311C237.305 330.088 236.93 329.976 236.485 329.976C236.021 329.976 235.634 330.094 235.324 330.329C235.018 330.564 234.787 330.88 234.633 331.276C234.481 331.672 234.405 332.111 234.405 332.594C234.405 333.089 234.483 333.527 234.637 333.908C234.795 334.285 235.027 334.582 235.334 334.799C235.643 335.012 236.027 335.119 236.485 335.119ZM244.598 336.363C243.911 336.363 243.318 336.211 242.82 335.908C242.325 335.602 241.943 335.175 241.674 334.627C241.408 334.076 241.274 333.436 241.274 332.706C241.274 331.975 241.408 331.332 241.674 330.775C241.943 330.215 242.317 329.778 242.797 329.466C243.28 329.15 243.843 328.992 244.486 328.992C244.858 328.992 245.224 329.054 245.586 329.178C245.948 329.302 246.278 329.503 246.575 329.781C246.872 330.057 247.109 330.422 247.285 330.877C247.461 331.332 247.55 331.892 247.55 332.557V333.021H242.054V332.074H246.436C246.436 331.672 246.355 331.313 246.194 330.997C246.037 330.682 245.811 330.433 245.517 330.25C245.226 330.068 244.882 329.976 244.486 329.976C244.05 329.976 243.673 330.085 243.354 330.301C243.038 330.515 242.795 330.793 242.625 331.137C242.455 331.48 242.37 331.848 242.37 332.241V332.873C242.37 333.411 242.463 333.867 242.648 334.242C242.837 334.613 243.099 334.896 243.433 335.091C243.767 335.283 244.155 335.379 244.598 335.379C244.885 335.379 245.145 335.339 245.377 335.258C245.613 335.175 245.815 335.051 245.985 334.887C246.156 334.72 246.287 334.513 246.38 334.265L247.438 334.562C247.327 334.921 247.14 335.237 246.877 335.509C246.614 335.778 246.289 335.988 245.902 336.14C245.515 336.289 245.08 336.363 244.598 336.363ZM255.584 336.363C254.99 336.363 254.465 336.213 254.01 335.913C253.555 335.609 253.2 335.182 252.943 334.632C252.686 334.078 252.558 333.423 252.558 332.668C252.558 331.92 252.686 331.27 252.943 330.719C253.2 330.168 253.557 329.743 254.015 329.443C254.473 329.143 255.002 328.992 255.602 328.992C256.066 328.992 256.433 329.07 256.702 329.225C256.975 329.376 257.182 329.549 257.324 329.744C257.47 329.936 257.583 330.094 257.663 330.218H257.756V326.709H258.851V336.214H257.793V335.119H257.663C257.583 335.249 257.468 335.413 257.32 335.611C257.171 335.806 256.959 335.981 256.684 336.135C256.408 336.287 256.042 336.363 255.584 336.363ZM255.732 335.379C256.172 335.379 256.543 335.264 256.846 335.035C257.149 334.803 257.38 334.483 257.538 334.075C257.696 333.663 257.774 333.188 257.774 332.65C257.774 332.118 257.697 331.652 257.542 331.253C257.388 330.851 257.159 330.538 256.855 330.315C256.552 330.089 256.178 329.976 255.732 329.976C255.268 329.976 254.881 330.096 254.572 330.334C254.266 330.569 254.035 330.889 253.88 331.295C253.729 331.697 253.653 332.149 253.653 332.65C253.653 333.157 253.73 333.618 253.885 334.033C254.043 334.444 254.275 334.772 254.581 335.017C254.891 335.258 255.274 335.379 255.732 335.379ZM263.906 336.363C263.262 336.363 262.697 336.21 262.212 335.903C261.729 335.597 261.351 335.169 261.079 334.618C260.81 334.067 260.675 333.423 260.675 332.687C260.675 331.944 260.81 331.296 261.079 330.742C261.351 330.188 261.729 329.758 262.212 329.452C262.697 329.146 263.262 328.992 263.906 328.992C264.549 328.992 265.112 329.146 265.595 329.452C266.081 329.758 266.458 330.188 266.728 330.742C267 331.296 267.136 331.944 267.136 332.687C267.136 333.423 267 334.067 266.728 334.618C266.458 335.169 266.081 335.597 265.595 335.903C265.112 336.21 264.549 336.363 263.906 336.363ZM263.906 335.379C264.395 335.379 264.797 335.254 265.112 335.003C265.428 334.752 265.662 334.423 265.813 334.014C265.965 333.606 266.041 333.163 266.041 332.687C266.041 332.21 265.965 331.766 265.813 331.355C265.662 330.943 265.428 330.611 265.112 330.357C264.797 330.103 264.395 329.976 263.906 329.976C263.417 329.976 263.014 330.103 262.699 330.357C262.383 330.611 262.15 330.943 261.998 331.355C261.846 331.766 261.771 332.21 261.771 332.687C261.771 333.163 261.846 333.606 261.998 334.014C262.15 334.423 262.383 334.752 262.699 335.003C263.014 335.254 263.417 335.379 263.906 335.379ZM271.797 336.363C271.11 336.363 270.518 336.211 270.019 335.908C269.524 335.602 269.142 335.175 268.873 334.627C268.607 334.076 268.474 333.436 268.474 332.706C268.474 331.975 268.607 331.332 268.873 330.775C269.142 330.215 269.517 329.778 269.996 329.466C270.479 329.15 271.042 328.992 271.686 328.992C272.057 328.992 272.424 329.054 272.786 329.178C273.148 329.302 273.477 329.503 273.774 329.781C274.071 330.057 274.308 330.422 274.484 330.877C274.661 331.332 274.749 331.892 274.749 332.557V333.021H269.254V332.074H273.635C273.635 331.672 273.555 331.313 273.394 330.997C273.236 330.682 273.01 330.433 272.716 330.25C272.425 330.068 272.082 329.976 271.686 329.976C271.249 329.976 270.872 330.085 270.553 330.301C270.238 330.515 269.995 330.793 269.825 331.137C269.654 331.48 269.569 331.848 269.569 332.241V332.873C269.569 333.411 269.662 333.867 269.848 334.242C270.036 334.613 270.298 334.896 270.632 335.091C270.966 335.283 271.355 335.379 271.797 335.379C272.085 335.379 272.345 335.339 272.577 335.258C272.812 335.175 273.015 335.051 273.185 334.887C273.355 334.72 273.487 334.513 273.579 334.265L274.638 334.562C274.526 334.921 274.339 335.237 274.076 335.509C273.813 335.778 273.488 335.988 273.101 336.14C272.715 336.289 272.28 336.363 271.797 336.363ZM281.465 330.682L280.481 330.96C280.419 330.796 280.328 330.637 280.207 330.482C280.09 330.325 279.929 330.195 279.724 330.092C279.52 329.99 279.259 329.939 278.94 329.939C278.504 329.939 278.14 330.04 277.849 330.241C277.562 330.439 277.418 330.691 277.418 330.997C277.418 331.27 277.517 331.485 277.715 331.643C277.913 331.8 278.222 331.932 278.643 332.037L279.701 332.297C280.339 332.452 280.814 332.688 281.126 333.007C281.439 333.323 281.595 333.73 281.595 334.228C281.595 334.636 281.477 335.001 281.242 335.323C281.01 335.645 280.685 335.899 280.268 336.084C279.85 336.27 279.364 336.363 278.81 336.363C278.083 336.363 277.481 336.205 277.005 335.889C276.528 335.574 276.226 335.113 276.1 334.506L277.139 334.246C277.238 334.63 277.425 334.918 277.701 335.11C277.979 335.302 278.343 335.397 278.792 335.397C279.302 335.397 279.707 335.289 280.008 335.073C280.311 334.853 280.462 334.59 280.462 334.284C280.462 334.036 280.376 333.829 280.203 333.662C280.029 333.491 279.763 333.365 279.404 333.281L278.216 333.003C277.563 332.848 277.084 332.608 276.777 332.283C276.474 331.955 276.322 331.545 276.322 331.053C276.322 330.651 276.435 330.295 276.661 329.986C276.89 329.676 277.201 329.433 277.594 329.257C277.99 329.081 278.439 328.992 278.94 328.992C279.646 328.992 280.199 329.147 280.602 329.457C281.007 329.766 281.295 330.174 281.465 330.682ZM288.015 331.926V336.214H286.92V329.085H287.978V330.199H288.071C288.238 329.837 288.492 329.546 288.832 329.327C289.172 329.104 289.612 328.992 290.15 328.992C290.633 328.992 291.055 329.091 291.417 329.289C291.779 329.484 292.061 329.781 292.262 330.181C292.463 330.577 292.564 331.078 292.564 331.684V336.214H291.468V331.759C291.468 331.199 291.323 330.762 291.032 330.45C290.741 330.134 290.342 329.976 289.834 329.976C289.485 329.976 289.172 330.052 288.897 330.204C288.625 330.355 288.41 330.577 288.252 330.868C288.094 331.158 288.015 331.511 288.015 331.926ZM297.461 336.363C296.818 336.363 296.253 336.21 295.767 335.903C295.285 335.597 294.907 335.169 294.635 334.618C294.366 334.067 294.231 333.423 294.231 332.687C294.231 331.944 294.366 331.296 294.635 330.742C294.907 330.188 295.285 329.758 295.767 329.452C296.253 329.146 296.818 328.992 297.461 328.992C298.105 328.992 298.668 329.146 299.151 329.452C299.637 329.758 300.014 330.188 300.283 330.742C300.556 331.296 300.692 331.944 300.692 332.687C300.692 333.423 300.556 334.067 300.283 334.618C300.014 335.169 299.637 335.597 299.151 335.903C298.668 336.21 298.105 336.363 297.461 336.363ZM297.461 335.379C297.95 335.379 298.352 335.254 298.668 335.003C298.984 334.752 299.217 334.423 299.369 334.014C299.521 333.606 299.596 333.163 299.596 332.687C299.596 332.21 299.521 331.766 299.369 331.355C299.217 330.943 298.984 330.611 298.668 330.357C298.352 330.103 297.95 329.976 297.461 329.976C296.972 329.976 296.57 330.103 296.255 330.357C295.939 330.611 295.705 330.943 295.554 331.355C295.402 331.766 295.326 332.21 295.326 332.687C295.326 333.163 295.402 333.606 295.554 334.014C295.705 334.423 295.939 334.752 296.255 335.003C296.57 335.254 296.972 335.379 297.461 335.379ZM305.464 329.085V330.014H301.77V329.085H305.464ZM302.846 327.377H303.942V334.172C303.942 334.482 303.987 334.714 304.076 334.868C304.169 335.02 304.287 335.122 304.429 335.175C304.575 335.224 304.728 335.249 304.889 335.249C305.009 335.249 305.108 335.243 305.186 335.23C305.263 335.215 305.325 335.203 305.371 335.193L305.594 336.177C305.52 336.205 305.416 336.233 305.283 336.261C305.15 336.292 304.981 336.307 304.777 336.307C304.468 336.307 304.165 336.241 303.868 336.108C303.574 335.975 303.329 335.772 303.134 335.5C302.942 335.227 302.846 334.884 302.846 334.469V327.377ZM313.777 336.363C313.09 336.363 312.497 336.211 311.999 335.908C311.504 335.602 311.122 335.175 310.853 334.627C310.587 334.076 310.454 333.436 310.454 332.706C310.454 331.975 310.587 331.332 310.853 330.775C311.122 330.215 311.496 329.778 311.976 329.466C312.459 329.15 313.022 328.992 313.665 328.992C314.037 328.992 314.403 329.054 314.765 329.178C315.127 329.302 315.457 329.503 315.754 329.781C316.051 330.057 316.288 330.422 316.464 330.877C316.64 331.332 316.729 331.892 316.729 332.557V333.021H311.233V332.074H315.615C315.615 331.672 315.534 331.313 315.373 330.997C315.216 330.682 314.99 330.433 314.696 330.25C314.405 330.068 314.061 329.976 313.665 329.976C313.229 329.976 312.852 330.085 312.533 330.301C312.217 330.515 311.974 330.793 311.804 331.137C311.634 331.48 311.549 331.848 311.549 332.241V332.873C311.549 333.411 311.642 333.867 311.827 334.242C312.016 334.613 312.278 334.896 312.612 335.091C312.946 335.283 313.334 335.379 313.777 335.379C314.065 335.379 314.324 335.339 314.557 335.258C314.792 335.175 314.994 335.051 315.165 334.887C315.335 334.72 315.466 334.513 315.559 334.265L316.617 334.562C316.506 334.921 316.319 335.237 316.056 335.509C315.793 335.778 315.468 335.988 315.081 336.14C314.694 336.289 314.259 336.363 313.777 336.363ZM319.02 329.085L320.728 332L322.436 329.085H323.699L321.397 332.65L323.699 336.214H322.436L320.728 333.448L319.02 336.214H317.758L320.023 332.65L317.758 329.085H319.02ZM325.262 336.214V329.085H326.357V336.214H325.262ZM325.819 327.897C325.605 327.897 325.421 327.824 325.266 327.679C325.115 327.534 325.039 327.359 325.039 327.154C325.039 326.95 325.115 326.775 325.266 326.63C325.421 326.485 325.605 326.412 325.819 326.412C326.032 326.412 326.215 326.485 326.366 326.63C326.521 326.775 326.598 326.95 326.598 327.154C326.598 327.359 326.521 327.534 326.366 327.679C326.215 327.824 326.032 327.897 325.819 327.897ZM333.413 330.682L332.429 330.96C332.367 330.796 332.276 330.637 332.155 330.482C332.038 330.325 331.877 330.195 331.673 330.092C331.468 329.99 331.207 329.939 330.888 329.939C330.452 329.939 330.088 330.04 329.798 330.241C329.51 330.439 329.366 330.691 329.366 330.997C329.366 331.27 329.465 331.485 329.663 331.643C329.861 331.8 330.17 331.932 330.591 332.037L331.649 332.297C332.287 332.452 332.762 332.688 333.074 333.007C333.387 333.323 333.543 333.73 333.543 334.228C333.543 334.636 333.425 335.001 333.19 335.323C332.958 335.645 332.633 335.899 332.216 336.084C331.798 336.27 331.312 336.363 330.758 336.363C330.031 336.363 329.429 336.205 328.953 335.889C328.476 335.574 328.175 335.113 328.048 334.506L329.087 334.246C329.186 334.63 329.374 334.918 329.649 335.11C329.927 335.302 330.291 335.397 330.74 335.397C331.25 335.397 331.656 335.289 331.956 335.073C332.259 334.853 332.411 334.59 332.411 334.284C332.411 334.036 332.324 333.829 332.151 333.662C331.977 333.491 331.711 333.365 331.352 333.281L330.164 333.003C329.511 332.848 329.032 332.608 328.725 332.283C328.422 331.955 328.271 331.545 328.271 331.053C328.271 330.651 328.383 330.295 328.609 329.986C328.838 329.676 329.149 329.433 329.542 329.257C329.938 329.081 330.387 328.992 330.888 328.992C331.594 328.992 332.148 329.147 332.55 329.457C332.955 329.766 333.243 330.174 333.413 330.682ZM338.292 329.085V330.014H334.598V329.085H338.292ZM335.675 327.377H336.77V334.172C336.77 334.482 336.815 334.714 336.905 334.868C336.997 335.02 337.115 335.122 337.257 335.175C337.403 335.224 337.556 335.249 337.717 335.249C337.837 335.249 337.936 335.243 338.014 335.23C338.091 335.215 338.153 335.203 338.199 335.193L338.422 336.177C338.348 336.205 338.244 336.233 338.111 336.261C337.978 336.292 337.81 336.307 337.605 336.307C337.296 336.307 336.993 336.241 336.696 336.108C336.402 335.975 336.157 335.772 335.962 335.5C335.771 335.227 335.675 334.884 335.675 334.469V327.377ZM340.738 336.289C340.509 336.289 340.313 336.207 340.149 336.043C339.985 335.879 339.903 335.682 339.903 335.453C339.903 335.224 339.985 335.028 340.149 334.864C340.313 334.7 340.509 334.618 340.738 334.618C340.967 334.618 341.164 334.7 341.328 334.864C341.492 335.028 341.574 335.224 341.574 335.453C341.574 335.605 341.535 335.744 341.458 335.871C341.383 335.998 341.283 336.1 341.156 336.177C341.032 336.251 340.893 336.289 340.738 336.289Z" fill="black"/>
<path d="M102.359 112.933V78.4038H281.852V155.124" stroke="black" stroke-width="2.1628" stroke-miterlimit="10" stroke-linecap="round" stroke-linejoin="round"/>
<path d="M218.59 53.8657V97.0957H337.618V116.764" stroke="black" stroke-width="2.1628" stroke-miterlimit="10" stroke-linecap="round" stroke-linejoin="round"/>
<path d="M106.644 117.216C106.644 119.582 104.726 121.499 102.361 121.499C99.9951 121.499 98.0781 119.581 98.0781 117.216C98.0781 114.851 99.9961 112.933 102.361 112.933C104.727 112.933 106.644 114.85 106.644 117.216Z" stroke="black" stroke-width="2.1628" stroke-miterlimit="10" stroke-linecap="round" stroke-linejoin="round"/>
<path d="M218.588 53.8658C220.953 53.8658 222.871 51.9482 222.871 49.5828C222.871 47.2174 220.953 45.2998 218.588 45.2998C216.222 45.2998 214.305 47.2174 214.305 49.5828C214.305 51.9482 216.222 53.8658 218.588 53.8658Z" stroke="black" stroke-width="2.1628" stroke-miterlimit="10" stroke-linecap="round" stroke-linejoin="round"/>
<path d="M341.902 121.499C341.902 123.864 339.984 125.782 337.619 125.782C335.253 125.782 333.336 123.864 333.336 121.499C333.336 119.133 335.254 117.216 337.619 117.216C339.984 117.216 341.902 119.134 341.902 121.499Z" stroke="black" stroke-width="2.1628" stroke-miterlimit="10" stroke-linecap="round" stroke-linejoin="round"/>
<path d="M286.136 160.117C286.136 162.482 284.218 164.4 281.853 164.4C279.488 164.4 277.57 162.482 277.57 160.117C277.57 157.751 279.488 155.834 281.853 155.834C284.218 155.834 286.136 157.752 286.136 160.117Z" stroke="black" stroke-width="2.1628" stroke-miterlimit="10" stroke-linecap="round" stroke-linejoin="round"/>
<path d="M74.4465 245.898L64.3125 256.032" stroke="black" stroke-width="2.1628" stroke-miterlimit="10" stroke-linecap="round" stroke-linejoin="round"/>
<path d="M64.3125 245.898L74.4465 256.032" stroke="black" stroke-width="2.1628" stroke-miterlimit="10" stroke-linecap="round" stroke-linejoin="round"/>
<path d="M79.5168 98.7344L69.3828 108.869" stroke="black" stroke-width="2.1628" stroke-miterlimit="10" stroke-linecap="round" stroke-linejoin="round"/>
<path d="M69.3828 98.7344L79.5168 108.869" stroke="black" stroke-width="2.1628" stroke-miterlimit="10" stroke-linecap="round" stroke-linejoin="round"/>
<path d="M408.221 213.611L398.086 223.746" stroke="black" stroke-width="2.1628" stroke-miterlimit="10" stroke-linecap="round" stroke-linejoin="round"/>
<path d="M398.086 213.611L408.221 223.746" stroke="black" stroke-width="2.1628" stroke-miterlimit="10" stroke-linecap="round" stroke-linejoin="round"/>
<path d="M120.621 40.8957C117.389 40.8957 114.431 42.0587 112.134 43.9847C109.788 36.9227 103.14 31.8247 95.2915 31.8247C86.5045 31.8247 79.2265 38.2137 77.8045 46.5957C76.8785 46.3307 75.9035 46.1797 74.8915 46.1797C69.0485 46.1797 64.3125 50.9167 64.3125 56.7587C64.3125 62.1337 68.3245 66.5617 73.5145 67.2387V67.3387H120.621C127.923 67.3387 133.843 61.4197 133.843 54.1167C133.843 46.8157 127.923 40.8957 120.621 40.8957Z" stroke="black" stroke-width="2.2614" stroke-miterlimit="10" stroke-linecap="round" stroke-linejoin="round"/>
<path d="M365.756 108.152C368.104 108.152 370.253 108.997 371.922 110.396C373.626 105.266 378.456 101.562 384.158 101.562C390.542 101.562 395.829 106.204 396.862 112.293C397.535 112.1 398.243 111.991 398.978 111.991C403.223 111.991 406.664 115.432 406.664 119.677C406.664 123.582 403.75 126.799 399.979 127.29V127.362H365.757C360.452 127.362 356.152 123.061 356.152 117.757C356.152 112.453 360.451 108.152 365.756 108.152Z" stroke="black" stroke-width="2.1628" stroke-miterlimit="10" stroke-linecap="round" stroke-linejoin="round"/>
<path d="M412.941 289.848C410.972 289.848 409.17 290.557 407.77 291.73C406.341 287.428 402.29 284.321 397.508 284.321C392.154 284.321 387.72 288.214 386.854 293.321C386.29 293.16 385.696 293.068 385.079 293.068C381.519 293.068 378.633 295.954 378.633 299.514C378.633 302.789 381.077 305.487 384.24 305.899V305.96H412.94C417.389 305.96 420.996 302.354 420.996 297.905C420.996 293.455 417.39 289.848 412.941 289.848Z" stroke="black" stroke-width="2.1628" stroke-miterlimit="10" stroke-linecap="round" stroke-linejoin="round"/>
<path d="M23.4058 272.849C25.7538 272.849 27.9028 273.694 29.5718 275.093C31.2758 269.963 36.1058 266.259 41.8078 266.259C48.1918 266.259 53.4788 270.901 54.5118 276.99C55.1848 276.797 55.8928 276.688 56.6278 276.688C60.8728 276.688 64.3138 280.129 64.3138 284.374C64.3138 288.279 61.3998 291.496 57.6288 291.987V292.059H23.4058C18.1008 292.059 13.8008 287.759 13.8008 282.454C13.8008 277.149 18.1008 272.849 23.4058 272.849Z" stroke="black" stroke-width="2.1628" stroke-miterlimit="10" stroke-linecap="round" stroke-linejoin="round"/>
<path d="M133.844 34.5527C133.844 34.5527 194.284 -14.7244 276.404 7.97765C362.667 31.8246 379.935 93.3347 379.935 93.3347" stroke="black" stroke-width="2.1628" stroke-miterlimit="10" stroke-linecap="round" stroke-linejoin="round" stroke-dasharray="3.27 7.62"/>
<path d="M42.5864 177.774C19.1554 181.408 7.37635 231.137 33.7324 250.878" stroke="black" stroke-width="2.0166" stroke-miterlimit="10" stroke-linecap="round" stroke-linejoin="round" stroke-dasharray="3.05 7.11"/>
<path d="M337.617 321.261C337.617 321.261 377.755 338.807 395.349 314.328" stroke="black" stroke-width="2.1628" stroke-miterlimit="10" stroke-linecap="round" stroke-linejoin="round" stroke-dasharray="3.27 7.62"/>
<path d="M146.664 121.499V96.1528" stroke="black" stroke-width="2.1628" stroke-miterlimit="10" stroke-linecap="round" stroke-linejoin="round"/>
<path d="M140.547 121.499V108.87" stroke="black" stroke-width="2.1628" stroke-miterlimit="10" stroke-linecap="round" stroke-linejoin="round"/>
<path d="M239.82 127.363V108.826" stroke="black" stroke-width="2.1628" stroke-miterlimit="10" stroke-linecap="round" stroke-linejoin="round"/>
<path d="M232.871 125.782V118.094" stroke="black" stroke-width="2.1628" stroke-miterlimit="10" stroke-linecap="round" stroke-linejoin="round"/>
<path d="M226.707 125.782V112.933" stroke="black" stroke-width="2.1628" stroke-miterlimit="10" stroke-linecap="round" stroke-linejoin="round"/>
<path d="M152.547 121.499V108.826" stroke="black" stroke-width="2.1628" stroke-miterlimit="10" stroke-linecap="round" stroke-linejoin="round"/>
<path d="M320.547 125.026V119.356" stroke="black" stroke-width="2.1628" stroke-miterlimit="10" stroke-linecap="round" stroke-linejoin="round"/>
<path d="M314.43 125.027V111.217" stroke="black" stroke-width="2.1628" stroke-miterlimit="10" stroke-linecap="round" stroke-linejoin="round"/>
<path d="M326.43 125.027V115.163" stroke="black" stroke-width="2.1628" stroke-miterlimit="10" stroke-linecap="round" stroke-linejoin="round"/>
</svg>
