<svg width="33" height="32" viewBox="0 0 33 32" fill="none" xmlns="http://www.w3.org/2000/svg">
<g clip-path="url(#clip0_1_8353)">
<path d="M16.6875 30C24.4195 30 30.6875 23.732 30.6875 16C30.6875 8.268 24.4195 2 16.6875 2C8.9555 2 2.6875 8.268 2.6875 16C2.6875 23.732 8.9555 30 16.6875 30Z" fill="url(#paint0_linear_1_8353)"/>
<path d="M19.1345 8.65386C19.28 8.40028 19.3192 8.09939 19.2435 7.81699C19.1678 7.53459 18.9834 7.29365 18.7305 7.14686C18.6055 7.07465 18.4674 7.02787 18.3242 7.0092C18.181 6.99053 18.0355 7.00034 17.8961 7.03807C17.7567 7.0758 17.6262 7.1407 17.5119 7.22904C17.3977 7.31739 17.3021 7.42744 17.2305 7.55286L16.7025 8.47386L16.1755 7.55386C16.104 7.42835 16.0084 7.31821 15.8943 7.22976C15.7801 7.14132 15.6495 7.07632 15.5101 7.03849C15.3707 7.00067 15.2252 6.99077 15.082 7.00937C14.9388 7.02797 14.8006 7.07469 14.6755 7.14686C14.4227 7.29365 14.2382 7.53459 14.1625 7.81699C14.0868 8.09939 14.126 8.40028 14.2715 8.65386L15.4355 10.6859L11.7525 17.1149H8.78551C8.64097 17.1151 8.4979 17.1439 8.36448 17.1995C8.23105 17.255 8.10989 17.3364 8.00792 17.4388C7.90595 17.5412 7.82517 17.6628 7.77019 17.7965C7.71521 17.9301 7.68711 18.0733 7.68751 18.2179C7.68698 18.3625 7.71498 18.5058 7.7699 18.6396C7.82482 18.7734 7.90558 18.895 8.00757 18.9976C8.10955 19.1001 8.23076 19.1815 8.36424 19.2372C8.49773 19.2928 8.64088 19.3216 8.78551 19.3219H19.1195C19.2105 19.0819 19.3055 18.6719 19.2045 18.2949C19.0515 17.7279 18.4875 17.1149 17.5415 17.1149H14.2875L19.1345 8.65386ZM12.3235 20.5419C12.1365 20.3329 11.7165 19.9989 11.3485 19.8889C10.7875 19.7209 10.3615 19.8259 10.1465 19.9189L9.32851 21.3459C9.18298 21.5994 9.14379 21.9003 9.2195 22.1827C9.29521 22.4651 9.47965 22.7061 9.73251 22.8529C9.85753 22.9252 9.99563 22.9721 10.1388 22.9908C10.2821 23.0096 10.4276 22.9998 10.567 22.9621C10.7064 22.9243 10.837 22.8594 10.9512 22.771C11.0654 22.6825 11.161 22.5724 11.2325 22.4469L12.3235 20.5419Z" fill="white"/>
<path d="M22.9172 19.3218H24.5892C24.7338 19.3216 24.8769 19.2928 25.0104 19.2371C25.1439 19.1815 25.2651 19.1001 25.3671 18.9975C25.4691 18.895 25.5499 18.7733 25.6048 18.6395C25.6597 18.5058 25.6877 18.3624 25.6872 18.2178C25.6876 18.0733 25.6595 17.9301 25.6045 17.7964C25.5495 17.6627 25.4687 17.5412 25.3668 17.4388C25.2648 17.3363 25.1436 17.255 25.0102 17.1994C24.8768 17.1438 24.7337 17.1151 24.5892 17.1148H21.6522L18.3442 11.3408C18.0992 11.5758 17.6282 12.1748 17.5562 12.8548C17.4652 13.7278 17.6022 14.4638 18.0142 15.1848L22.1722 22.4468C22.4752 22.9748 23.1462 23.1568 23.6722 22.8528C24.1982 22.5488 24.3792 21.8738 24.0762 21.3458L22.9172 19.3218Z" fill="white"/>
</g>
<defs>
<linearGradient id="paint0_linear_1_8353" x1="16.6875" y1="2" x2="16.6875" y2="30" gradientUnits="userSpaceOnUse">
<stop stop-color="#2AC9FA"/>
<stop offset="1" stop-color="#1F65EB"/>
</linearGradient>
<clipPath id="clip0_1_8353">
<rect width="32" height="32" fill="white" transform="translate(0.6875)"/>
</clipPath>
</defs>
</svg>
