<svg width="39" height="38" viewBox="0 0 39 38" fill="none" xmlns="http://www.w3.org/2000/svg">
<g filter="url(#filter0_i_1_8305)">
<circle cx="19.0479" cy="19" r="19" fill="#EB662B"/>
</g>
<path fill-rule="evenodd" clip-rule="evenodd" d="M27.9634 16.3093L25.3567 14.3727V11.544C25.3306 11.2638 25.1254 11.0389 24.8602 11H13.4406C13.1755 11.0389 12.9703 11.2638 12.9441 11.544V14.3509L10.234 16.3092C10.1267 16.3912 10.0587 16.5183 10.0479 16.6574V26.9929C10.0831 27.2766 10.2953 27.4999 10.565 27.5369H27.7358C27.9634 27.5369 28.0462 27.254 28.0462 26.9929V16.6574C28.0462 16.5268 28.0668 16.3963 27.9634 16.3093H27.9634ZM25.3564 15.4172L27.1356 16.7009L25.3564 18.1153V15.4172ZM13.7725 11.8704H24.5301V18.7898L19.1513 23.0546L13.7725 18.7898V11.8704H13.7725ZM12.944 15.3951V18.1368L11.1649 16.7007L12.944 15.3951ZM10.876 17.5927L16.6685 22.2056L10.876 26.3181V17.5927ZM11.8683 26.6667L17.3712 22.7718L18.84 23.9468C18.9232 24.0144 19.0246 24.0525 19.1296 24.0556C19.2124 24.0556 19.2538 24.0121 19.3365 23.9468L20.8674 22.7065L26.4324 26.6667H11.8683ZM27.2184 26.1658L21.55 22.1621L27.2184 17.5927V26.1658Z" fill="white"/>
<path d="M15.8405 14.6995H17.7024C17.9309 14.6995 18.1161 14.5046 18.1161 14.2643C18.1161 14.0239 17.9309 13.8291 17.7024 13.8291H15.8405C15.612 13.8291 15.4268 14.0239 15.4268 14.2643C15.4268 14.5046 15.612 14.6995 15.8405 14.6995Z" fill="white"/>
<path d="M15.8405 16.658H22.4606C22.6891 16.658 22.8743 16.4631 22.8743 16.2228C22.8743 15.9825 22.6891 15.7876 22.4606 15.7876H15.8405C15.612 15.7876 15.4268 15.9825 15.4268 16.2228C15.4268 16.4631 15.612 16.658 15.8405 16.658Z" fill="white"/>
<path d="M22.8743 18.1803C22.8743 17.94 22.6891 17.7451 22.4606 17.7451H15.8405C15.612 17.7451 15.4268 17.94 15.4268 18.1803C15.4268 18.4207 15.612 18.6155 15.8405 18.6155H22.4606C22.6891 18.6155 22.8743 18.4207 22.8743 18.1803Z" fill="white"/>
<defs>
<filter id="filter0_i_1_8305" x="0.0478516" y="0" width="38" height="42" filterUnits="userSpaceOnUse" color-interpolation-filters="sRGB">
<feFlood flood-opacity="0" result="BackgroundImageFix"/>
<feBlend mode="normal" in="SourceGraphic" in2="BackgroundImageFix" result="shape"/>
<feColorMatrix in="SourceAlpha" type="matrix" values="0 0 0 0 0 0 0 0 0 0 0 0 0 0 0 0 0 0 127 0" result="hardAlpha"/>
<feOffset dy="4"/>
<feGaussianBlur stdDeviation="2"/>
<feComposite in2="hardAlpha" operator="arithmetic" k2="-1" k3="1"/>
<feColorMatrix type="matrix" values="0 0 0 0 1 0 0 0 0 1 0 0 0 0 1 0 0 0 0.25 0"/>
<feBlend mode="normal" in2="shape" result="effect1_innerShadow_1_8305"/>
</filter>
</defs>
</svg>
