<svg width="39" height="38" viewBox="0 0 39 38" fill="none" xmlns="http://www.w3.org/2000/svg">
<g filter="url(#filter0_i_1_8290)">
<circle cx="19.0479" cy="19" r="19" fill="#EB662B"/>
</g>
<path fill-rule="evenodd" clip-rule="evenodd" d="M24.2811 21.1669C23.9121 20.7826 23.4669 20.5772 22.9952 20.5772C22.5272 20.5772 22.0783 20.7788 21.694 21.1631L20.4918 22.3615C20.3929 22.3082 20.2939 22.2588 20.1988 22.2093C20.0619 22.1408 19.9325 22.0762 19.8222 22.0077C18.696 21.2924 17.6726 20.3603 16.691 19.1543C16.2155 18.5531 15.8959 18.0471 15.6638 17.5335C15.9758 17.2482 16.2649 16.9514 16.5465 16.6661C16.653 16.5596 16.7595 16.4492 16.866 16.3427C17.665 15.5438 17.665 14.5089 16.866 13.71L15.8274 12.6713C15.7095 12.5534 15.5877 12.4316 15.4736 12.3099C15.2453 12.074 15.0056 11.8305 14.7583 11.6022C14.3893 11.237 13.948 11.043 13.4838 11.043C13.0196 11.043 12.5707 11.237 12.1903 11.6022C12.1864 11.606 12.1864 11.606 12.1826 11.6099L10.8891 12.9148C10.4021 13.4018 10.1244 13.9953 10.0635 14.6839C9.9722 15.7949 10.2994 16.8297 10.5505 17.5069C11.1668 19.1695 12.0875 20.7103 13.461 22.3615C15.1274 24.3513 17.1324 25.9225 19.4227 27.0297C20.2977 27.4444 21.4657 27.9351 22.7707 28.0188C22.8506 28.0227 22.9343 28.0265 23.0104 28.0265C23.8892 28.0265 24.6273 27.7107 25.2056 27.0829C25.2094 27.0753 25.217 27.0715 25.2208 27.0639C25.4187 26.8242 25.6469 26.6074 25.8866 26.3753C26.0502 26.2193 26.2176 26.0557 26.3812 25.8845C26.7578 25.4926 26.9557 25.0361 26.9557 24.5681C26.9557 24.0964 26.754 23.6436 26.3698 23.2632L24.2811 21.1669ZM25.6425 25.1733C25.6387 25.1733 25.6387 25.1771 25.6425 25.1733C25.4941 25.333 25.342 25.4776 25.1784 25.6374C24.9311 25.8733 24.68 26.1206 24.4441 26.3983C24.0598 26.8092 23.6071 27.0032 23.0136 27.0032C22.9565 27.0032 22.8956 27.0032 22.8386 26.9994C21.7086 26.9272 20.6586 26.4858 19.871 26.1092C17.7176 25.0667 15.8268 23.5868 14.2555 21.7111C12.9581 20.1475 12.0907 18.7017 11.5162 17.1495C11.1624 16.2021 11.033 15.4641 11.0901 14.7678C11.1282 14.3227 11.2994 13.9537 11.6152 13.6379L12.9125 12.3405C13.0989 12.1655 13.2968 12.0704 13.4908 12.0704C13.7305 12.0704 13.9245 12.215 14.0463 12.3367C14.0501 12.3405 14.0539 12.3443 14.0577 12.3481C14.2898 12.565 14.5104 12.7895 14.7425 13.0292C14.8604 13.1509 14.9822 13.2727 15.1039 13.3982L16.1426 14.4368C16.5458 14.8401 16.5458 15.213 16.1426 15.6163C16.0322 15.7266 15.9257 15.8369 15.8154 15.9434C15.4958 16.2706 15.1914 16.575 14.8604 16.8717C14.8528 16.8794 14.8452 16.8832 14.8414 16.8908C14.5142 17.218 14.5751 17.5375 14.6436 17.7544C14.6474 17.7658 14.6512 17.7772 14.655 17.7886C14.9251 18.443 15.3055 19.0594 15.8838 19.7936L15.8876 19.7974C16.9377 21.091 18.0448 22.0992 19.2661 22.8715C19.4221 22.9704 19.5819 23.0503 19.734 23.1264C19.871 23.1949 20.0004 23.2596 20.1107 23.3281C20.1259 23.3357 20.1411 23.3471 20.1563 23.3547C20.2857 23.4194 20.4074 23.4498 20.533 23.4498C20.8488 23.4498 21.0466 23.252 21.1113 23.1873L22.4124 21.8861C22.5418 21.7568 22.7472 21.6008 22.9869 21.6008C23.2228 21.6008 23.4168 21.7492 23.5348 21.8785C23.5386 21.8823 23.5386 21.8823 23.5424 21.8861L25.6387 23.9824C26.0306 24.3705 26.0306 24.77 25.6425 25.1733L25.6425 25.1733Z" fill="white"/>
<path d="M19.7753 14.2874C20.7721 14.4548 21.6776 14.9266 22.4005 15.6495C23.1233 16.3723 23.5913 17.2778 23.7625 18.2746C23.8043 18.5257 24.0212 18.7007 24.2685 18.7007C24.2989 18.7007 24.3256 18.6969 24.356 18.6931C24.6375 18.6474 24.824 18.3811 24.7783 18.0996C24.5729 16.8935 24.0022 15.794 23.1309 14.9228C22.2597 14.0516 21.1602 13.4809 19.9542 13.2754C19.6726 13.2298 19.4101 13.4162 19.3606 13.6939C19.3112 13.9717 19.4938 14.2418 19.7753 14.2874V14.2874Z" fill="white"/>
<path d="M28.0414 17.9517C27.7028 15.9657 26.7669 14.1586 25.3288 12.7205C23.8907 11.2824 22.0835 10.3464 20.0976 10.0078C19.8198 9.95837 19.5573 10.1486 19.5078 10.4263C19.4622 10.7079 19.6486 10.9704 19.9302 11.0198C21.7031 11.3204 23.32 12.1612 24.6059 13.4433C25.8919 14.7293 26.7289 16.3462 27.0294 18.1191C27.0713 18.3702 27.2882 18.5452 27.5354 18.5452C27.5659 18.5452 27.5925 18.5414 27.623 18.5376C27.9007 18.4958 28.0909 18.2294 28.0414 17.9517H28.0414Z" fill="white"/>
<defs>
<filter id="filter0_i_1_8290" x="0.0478516" y="0" width="38" height="42" filterUnits="userSpaceOnUse" color-interpolation-filters="sRGB">
<feFlood flood-opacity="0" result="BackgroundImageFix"/>
<feBlend mode="normal" in="SourceGraphic" in2="BackgroundImageFix" result="shape"/>
<feColorMatrix in="SourceAlpha" type="matrix" values="0 0 0 0 0 0 0 0 0 0 0 0 0 0 0 0 0 0 127 0" result="hardAlpha"/>
<feOffset dy="4"/>
<feGaussianBlur stdDeviation="2"/>
<feComposite in2="hardAlpha" operator="arithmetic" k2="-1" k3="1"/>
<feColorMatrix type="matrix" values="0 0 0 0 1 0 0 0 0 1 0 0 0 0 1 0 0 0 0.25 0"/>
<feBlend mode="normal" in2="shape" result="effect1_innerShadow_1_8290"/>
</filter>
</defs>
</svg>
