<svg width="33" height="32" viewBox="0 0 33 32" fill="none" xmlns="http://www.w3.org/2000/svg">
<g clip-path="url(#clip0_1_8333)">
<g clip-path="url(#clip1_1_8333)">
<mask id="mask0_1_8333" style="mask-type:luminance" maskUnits="userSpaceOnUse" x="0" y="0" width="33" height="32">
<path d="M0.0478516 0H32.0479V32H0.0478516V0Z" fill="white"/>
</mask>
<g mask="url(#mask0_1_8333)">
<path d="M23.9459 10.9771C20.2289 8.89713 14.2619 5.55913 5.0079 0.37713C4.72258 0.186435 4.39712 0.0641298 4.05683 0.0197289C3.71654 -0.024672 3.37059 0.0100283 3.0459 0.12113L18.9239 15.9991L23.9459 10.9771Z" fill="#32BBFF"/>
<path d="M3.04655 0.120117C2.60021 0.269092 2.21233 0.555257 1.93829 0.937766C1.66425 1.32028 1.51804 1.77958 1.52055 2.25012V29.7471C1.51782 30.2176 1.66382 30.6768 1.9377 31.0594C2.21157 31.4419 2.59931 31.7281 3.04555 31.8771L18.9245 16.0001L3.04655 0.120117Z" fill="#32BBFF"/>
<path d="M18.9249 15.999L3.0459 31.877C3.6659 32.089 4.3849 32.039 5.0089 31.621C11.2174 28.1424 17.4288 24.6687 23.6429 21.2L23.9519 21.027L18.9249 15.999Z" fill="#32BBFF"/>
<path d="M1.52054 15.999V29.748C1.51797 30.2184 1.66403 30.6776 1.93788 31.0601C2.21173 31.4426 2.59939 31.7289 3.04554 31.878L18.9245 15.999H1.52054Z" fill="#2C9FD9"/>
<path d="M5.00801 0.376991C4.67073 0.151763 4.2786 0.0223765 3.87351 0.00265041C3.46842 -0.0170757 3.06558 0.0735989 2.70801 0.264991L18.683 16.24L23.946 10.977C20.229 8.89599 14.262 5.55799 5.00801 0.376991Z" fill="#29CC5E"/>
<path d="M18.683 15.7578L2.70801 31.7328C3.06507 31.9259 3.46819 32.0176 3.87364 31.9978C4.27909 31.9781 4.6714 31.8477 5.00801 31.6208C11.2166 28.1419 17.4279 24.6679 23.642 21.1988L23.951 21.0258L18.683 15.7578Z" fill="#D93F21"/>
<path d="M30.5764 15.9987C30.5764 15.2367 30.1924 14.4687 29.4304 14.0417C29.4304 14.0417 28.0054 13.2467 23.6374 10.8037L18.4424 15.9987L23.6424 21.1987C27.9624 18.7737 29.4304 17.9557 29.4304 17.9557C29.7792 17.7621 30.0696 17.4783 30.2712 17.134C30.4727 16.7898 30.5782 16.3977 30.5764 15.9987Z" fill="#FFD500"/>
<path d="M29.4304 17.956C29.7792 17.7624 30.0696 17.4786 30.2712 17.1343C30.4727 16.7901 30.5782 16.398 30.5764 15.999H18.4424L23.6424 21.199C27.9624 18.774 29.4304 17.956 29.4304 17.956Z" fill="#FFAA00"/>
</g>
</g>
</g>
<defs>
<clipPath id="clip0_1_8333">
<rect width="32" height="32" fill="white" transform="translate(0.0478516)"/>
</clipPath>
<clipPath id="clip1_1_8333">
<rect width="32" height="32" fill="white" transform="translate(0.0478516)"/>
</clipPath>
</defs>
</svg>
