<svg width="72" height="32" viewBox="0 0 72 32" fill="none" xmlns="http://www.w3.org/2000/svg">
<path d="M15.0479 0C6.74785 0 0.0478516 6.7 0.0478516 15C0.0478516 18.4 1.14785 21.6 3.24785 24.2L1.14785 30.6C1.04785 31 1.14785 31.4 1.44785 31.7C1.54785 31.9 1.84785 32 2.04785 32C2.14785 32 2.34785 32 2.44785 31.9L9.34785 28.8C11.1479 29.6 13.0479 30 15.0479 30C23.3479 30 30.0479 23.3 30.0479 15C30.0479 6.7 23.3479 0 15.0479 0Z" fill="#25D366"/>
<path d="M23.7479 20.5C23.3479 21.7 21.8479 22.7 20.5479 22.9C20.2479 23 19.9479 23 19.5479 23C18.7479 23 17.5479 22.8 15.4479 21.9C13.0479 20.9 10.6479 18.8 8.74785 16.1V16C8.14785 15.1 7.04785 13.4 7.04785 11.6C7.04785 9.4 8.14785 8.3 8.54785 7.8C9.04785 7.3 9.74785 7 10.5479 7C10.7479 7 10.8479 7 11.0479 7C11.7479 7 12.2479 7.2 12.7479 8.2L13.1479 9C13.4479 9.8 13.8479 10.7 13.9479 10.8C14.2479 11.4 14.2479 11.9 13.9479 12.4C13.8479 12.7 13.6479 12.9 13.4479 13.1C13.3479 13.3 13.2479 13.4 13.1479 13.4C13.0479 13.5 13.0479 13.5 12.9479 13.6C13.2479 14.1 13.8479 15 14.6479 15.7C15.8479 16.8 16.7479 17.1 17.2479 17.3C17.4479 17.1 17.6479 16.7 17.9479 16.4L18.0479 16.2C18.5479 15.5 19.3479 15.3 20.1479 15.6C20.5479 15.8 22.7479 16.8 22.7479 16.8L22.9479 16.9C23.2479 17.1 23.6479 17.2 23.8479 17.6C24.2479 18.5 23.9479 19.8 23.7479 20.5Z" fill="#EB662B"/>
<path fill-rule="evenodd" clip-rule="evenodd" d="M55.0479 32C63.8843 32 71.0479 24.8365 71.0479 16C71.0479 7.16344 63.8843 0 55.0479 0C46.2113 0 39.0479 7.16344 39.0479 16C39.0479 18.5595 39.6488 20.9786 40.7174 23.124C41.0014 23.6941 41.0959 24.3458 40.9312 24.961L39.9783 28.5227C39.5646 30.0688 40.9791 31.4832 42.5252 31.0696L46.0869 30.1166C46.7021 29.952 47.3538 30.0466 47.9239 30.3304C50.0692 31.399 52.4883 32 55.0479 32ZM48.6479 18C47.9851 18 47.4479 18.5373 47.4479 19.2C47.4479 19.8627 47.9851 20.4 48.6479 20.4H57.4479C58.1106 20.4 58.6479 19.8627 58.6479 19.2C58.6479 18.5373 58.1106 18 57.4479 18H48.6479ZM47.4479 13.6C47.4479 12.9373 47.9851 12.4 48.6479 12.4H61.4479C62.1106 12.4 62.6479 12.9373 62.6479 13.6C62.6479 14.2627 62.1106 14.8 61.4479 14.8H48.6479C47.9851 14.8 47.4479 14.2627 47.4479 13.6Z" fill="#EB662B"/>
</svg>
