<svg width="20" height="27" viewBox="0 0 20 27" fill="none" xmlns="http://www.w3.org/2000/svg">
<path d="M18.082 4.48688L15.2036 1.60846C14.1874 0.592294 12.8105 0.0224609 11.3729 0.0224609H5.58464C2.59355 0.0224609 0.167969 2.44804 0.167969 5.43913V20.6058C0.167969 23.5969 2.59355 26.0225 5.58464 26.0225H14.2513C17.2424 26.0225 19.668 23.5969 19.668 20.6058V8.31754C19.668 6.88104 19.0971 5.50304 18.082 4.48688ZM7.83472 13.0225V16.2725H4.58472C4.58472 14.4774 6.03964 13.0225 7.83472 13.0225ZM10.0014 21.6891H7.83472C6.03964 21.6891 4.58472 20.2342 4.58472 18.4391H10.0014V21.6891ZM12.1681 21.6891V18.4391H15.4181C15.4181 20.2342 13.9631 21.6891 12.1681 21.6891ZM10.0014 16.2725V13.0225H12.1681C13.9631 13.0225 15.4181 14.4774 15.4181 16.2725H10.0014Z" fill="white"/>
</svg>
