<svg width="24" height="26" viewBox="0 0 24 26" fill="none" xmlns="http://www.w3.org/2000/svg">
<path d="M1.36048 19.0225C2.2221 20.5378 4.13289 21.0584 5.6283 20.1853C5.62933 20.1847 5.6303 20.1841 5.63133 20.1835L6.09485 19.9122C6.96985 20.6709 7.97561 21.2592 9.0615 21.6476V22.1891C9.0615 23.938 10.4606 25.3558 12.1865 25.3558C13.9124 25.3558 15.3115 23.938 15.3115 22.1891V21.6476C16.3975 21.2586 17.4033 20.6696 18.2782 19.9102L18.7438 20.1825C20.2395 21.0569 22.1517 20.5371 23.0146 19.0214C23.8776 17.5057 23.3646 15.568 21.8688 14.6936L21.4063 14.4234C21.6145 13.2754 21.6145 12.0986 21.4063 10.9506L21.8688 10.6804C23.3645 9.80593 23.8776 7.86832 23.0146 6.35258C22.1517 4.83688 20.2396 4.31701 18.7438 5.19145L18.2803 5.46274C17.4044 4.70507 16.3979 4.11785 15.3115 3.73063V3.18913C15.3115 1.44024 13.9124 0.0224609 12.1865 0.0224609C10.4606 0.0224609 9.0615 1.44024 9.0615 3.18913V3.73063C7.97547 4.11968 6.96966 4.70868 6.09485 5.46809L5.62923 5.19472C4.13343 4.32022 2.22132 4.8401 1.35838 6.35579C0.495439 7.87149 1.00843 9.80914 2.50423 10.6836L2.96673 10.9538C2.75852 12.1018 2.75852 13.2786 2.96673 14.4266L2.50423 14.6968C1.01258 15.5736 0.501249 17.5074 1.36048 19.0225ZM12.1865 8.46692C14.4877 8.46692 16.3532 10.3573 16.3532 12.6891C16.3532 15.021 14.4877 16.9113 12.1865 16.9113C9.88533 16.9113 8.01985 15.021 8.01985 12.6891C8.01985 10.3573 9.88533 8.46692 12.1865 8.46692Z" fill="white"/>
</svg>
