<svg width="27" height="27" viewBox="0 0 27 27" fill="none" xmlns="http://www.w3.org/2000/svg">
<g clip-path="url(#clip0_1_11929)">
<path d="M21.7158 26.0009C21.4967 26.001 21.2826 25.9363 21.101 25.815C20.9195 25.6938 20.7789 25.5215 20.6974 25.3205L19.7723 23.0314L17.4528 22.0662C17.2539 21.9794 17.0853 21.8364 16.9683 21.6552C16.8513 21.474 16.791 21.2626 16.7951 21.0477C16.7992 20.8328 16.8675 20.6239 16.9913 20.4471C17.1152 20.2704 17.2891 20.1338 17.4912 20.0544L19.78 19.1975L20.6974 16.9312C20.7818 16.7331 20.9235 16.5641 21.1046 16.4452C21.2857 16.3264 21.4983 16.263 21.7158 16.263C21.9332 16.263 22.1458 16.3264 22.3269 16.4452C22.5081 16.5641 22.6497 16.7331 22.7341 16.9312L23.656 19.2062L25.9579 20.1173C26.1587 20.2003 26.3302 20.3401 26.4508 20.5192C26.5714 20.6983 26.6357 20.9086 26.6357 21.1237C26.6357 21.3388 26.5714 21.5491 26.4508 21.7282C26.3302 21.9073 26.1587 22.0471 25.9579 22.1301L23.656 23.0412L22.7341 25.3162C22.6533 25.518 22.513 25.6912 22.3314 25.8132C22.1499 25.9353 21.9354 26.0007 21.7158 26.0009ZM11.3023 22.7509C10.8287 22.7565 10.3661 22.6104 9.98351 22.3345C9.60097 22.0585 9.31912 21.6676 9.18015 21.2201L7.41096 15.7525L1.86113 13.9174C1.4132 13.7694 1.02446 13.4845 0.751044 13.1039C0.47763 12.7234 0.333701 12.2667 0.340045 11.8C0.346389 11.3333 0.502677 10.8806 0.786337 10.5074C1.07 10.1342 1.46634 9.8598 1.91813 9.72378L7.42411 8.06195L9.27881 2.58678C9.4167 2.13706 9.70195 1.74539 10.0897 1.47339C10.4774 1.20139 10.9456 1.06448 11.4207 1.0842C11.8943 1.08483 12.355 1.23705 12.7338 1.51807C13.1126 1.79909 13.3892 2.1938 13.522 2.64311L15.2013 8.07603L20.715 9.8202C21.1597 9.96762 21.5463 10.2494 21.8202 10.6257C22.0942 11.0021 22.2415 11.4539 22.2415 11.9175C22.2415 12.3811 22.0942 12.833 21.8202 13.2093C21.5463 13.5857 21.1597 13.8674 20.715 14.0149L15.1915 15.7612L13.4245 21.2201C13.2855 21.6676 13.0036 22.0585 12.6211 22.3345C12.2385 22.6104 11.7759 22.7565 11.3023 22.7509ZM22.8119 7.5842C22.5676 7.58419 22.3302 7.50349 22.1376 7.3549C21.9449 7.20632 21.808 6.99838 21.7487 6.76411L21.3573 5.21495L19.7865 4.79786C19.5504 4.73517 19.3423 4.59628 19.1953 4.40328C19.0482 4.21027 18.9707 3.97422 18.975 3.73265C18.9793 3.49108 19.0651 3.25786 19.2189 3.07007C19.3727 2.88227 19.5856 2.75067 19.8238 2.6962L21.3584 2.34411L21.7487 0.820946C21.8081 0.5867 21.9449 0.378786 22.1376 0.230225C22.3302 0.0816646 22.5676 0.000976562 22.8119 0.000976562C23.0563 0.000976563 23.2936 0.0816646 23.4863 0.230225C23.6789 0.378786 23.8158 0.5867 23.8752 0.820946L24.2632 2.35711L25.8176 2.7417C26.0546 2.8004 26.265 2.9357 26.4153 3.12608C26.5656 3.31647 26.6472 3.55104 26.6472 3.79253C26.6472 4.03402 26.5656 4.26859 26.4153 4.45898C26.265 4.64936 26.0546 4.78466 25.8176 4.84336L24.2632 5.22795L23.8752 6.76411C23.8158 6.99838 23.6789 7.20632 23.4863 7.3549C23.2936 7.50349 23.0563 7.58419 22.8119 7.5842Z" fill="white"/>
</g>
<defs>
<clipPath id="clip0_1_11929">
<rect width="27" height="26" fill="white" transform="translate(0 0.0224609)"/>
</clipPath>
</defs>
</svg>
