<svg width="20" height="27" viewBox="0 0 20 27" fill="none" xmlns="http://www.w3.org/2000/svg">
<path d="M9.51562 13.0225C10.7682 13.0225 11.9927 12.6412 13.0342 11.927C14.0757 11.2128 14.8875 10.1976 15.3669 9.00991C15.8462 7.82219 15.9716 6.51525 15.7273 5.25438C15.4829 3.9935 14.8797 2.83531 13.994 1.92627C13.1082 1.01723 11.9797 0.398163 10.7512 0.14736C9.52265 -0.103444 8.24923 0.0252773 7.09196 0.517247C5.9347 1.00922 4.94557 1.84234 4.24965 2.91126C3.55374 3.98018 3.18229 5.23689 3.18229 6.52246C3.18397 8.24584 3.85177 9.89814 5.03913 11.1168C6.2265 12.3354 7.83644 13.0207 9.51562 13.0225ZM9.51562 15.1891C6.99693 15.192 4.58219 16.2201 2.8012 18.048C1.02021 19.8759 0.0184189 22.3541 0.015625 24.9391C0.015625 25.2264 0.126835 25.502 0.32479 25.7052C0.522745 25.9083 0.79123 26.0225 1.07118 26.0225H17.9601C18.24 26.0225 18.5085 25.9083 18.7065 25.7052C18.9044 25.502 19.0156 25.2264 19.0156 24.9391C19.0128 22.3541 18.011 19.8759 16.2301 18.048C14.4491 16.2201 12.0343 15.192 9.51562 15.1891Z" fill="white"/>
</svg>
