<svg width="18" height="27" viewBox="0 0 18 27" fill="none" xmlns="http://www.w3.org/2000/svg">
<path d="M8.51693 20.6061C7.63592 20.6061 6.92282 19.8781 6.92282 18.9812C6.92282 16.8818 8.35964 14.9633 11.0771 13.437C13.1016 12.2996 14.1495 10.0453 13.7446 7.69457C13.3705 5.52477 11.6223 3.74279 9.49359 3.36148C7.95793 3.08633 6.44883 3.46114 5.24156 4.41658C4.0566 5.35578 3.31162 6.76079 3.19897 8.27195C3.13202 9.16565 2.36472 9.83728 1.48902 9.76904C0.611198 9.70079 -0.0466381 8.92083 0.0203146 8.02605C0.200981 5.60277 1.39125 3.35173 3.28612 1.85139C5.2118 0.325063 7.61254 -0.273987 10.0441 0.160406C13.4704 0.773538 16.2834 3.64096 16.885 7.13343C17.5194 10.8155 15.8031 14.4932 12.6159 16.2838C11.0473 17.1645 10.111 18.1731 10.111 18.9812C10.111 19.8781 9.39794 20.6061 8.51693 20.6061ZM6.92282 24.3976C6.92282 25.2945 7.63698 26.0225 8.51693 26.0225C9.39688 26.0225 10.111 25.2945 10.111 24.3976C10.111 23.5006 9.39688 22.7726 8.51693 22.7726C7.63698 22.7726 6.92282 23.5006 6.92282 24.3976Z" fill="white"/>
</svg>
