<svg width="368" height="309" viewBox="0 0 368 309" fill="none" xmlns="http://www.w3.org/2000/svg">
<path d="M0 15C0 6.71573 6.71573 0 15 0H353C361.284 0 368 6.71573 368 15V309H0V15Z" fill="#FEF6F2"/>
<mask id="path-2-inside-1_1_5205" fill="white">
<path d="M64 97C64 69.3858 86.3858 47 114 47H253C280.614 47 303 69.3858 303 97V309H64V97Z"/>
</mask>
<path d="M64 97C64 69.3858 86.3858 47 114 47H253C280.614 47 303 69.3858 303 97V309H64V97Z" fill="white"/>
<path d="M63 97C63 68.8335 85.8335 46 114 46H253C281.167 46 304 68.8335 304 97H302C302 69.938 280.062 48 253 48H114C86.938 48 65 69.938 65 97H63ZM303 309H64H303ZM63 309V97C63 68.8335 85.8335 46 114 46V48C86.938 48 65 69.938 65 97V309H63ZM253 46C281.167 46 304 68.8335 304 97V309H302V97C302 69.938 280.062 48 253 48V46Z" fill="black" mask="url(#path-2-inside-1_1_5205)"/>
<path d="M153.738 263.212L151.713 257.965C151.653 257.809 151.59 257.629 151.524 257.425C151.458 257.215 151.395 256.993 151.335 256.759C151.209 257.245 151.08 257.65 150.948 257.974L148.923 263.212H153.738ZM157.374 268H156.024C155.868 268 155.742 267.961 155.646 267.883C155.55 267.805 155.478 267.706 155.43 267.586L154.224 264.472H148.437L147.231 267.586C147.195 267.694 147.126 267.79 147.024 267.874C146.922 267.958 146.796 268 146.646 268H145.296L150.453 255.103H152.217L157.374 268ZM164.792 260.503C164.744 260.569 164.696 260.62 164.648 260.656C164.6 260.692 164.534 260.71 164.45 260.71C164.36 260.71 164.261 260.674 164.153 260.602C164.045 260.524 163.91 260.44 163.748 260.35C163.592 260.26 163.397 260.179 163.163 260.107C162.935 260.029 162.653 259.99 162.317 259.99C161.867 259.99 161.471 260.071 161.129 260.233C160.787 260.389 160.499 260.617 160.265 260.917C160.037 261.217 159.863 261.58 159.743 262.006C159.629 262.432 159.572 262.909 159.572 263.437C159.572 263.989 159.635 264.481 159.761 264.913C159.887 265.339 160.064 265.699 160.292 265.993C160.526 266.281 160.805 266.503 161.129 266.659C161.459 266.809 161.828 266.884 162.236 266.884C162.626 266.884 162.947 266.839 163.199 266.749C163.451 266.653 163.658 266.548 163.82 266.434C163.988 266.32 164.126 266.218 164.234 266.128C164.348 266.032 164.459 265.984 164.567 265.984C164.699 265.984 164.801 266.035 164.873 266.137L165.323 266.722C165.125 266.968 164.9 267.178 164.648 267.352C164.396 267.526 164.123 267.673 163.829 267.793C163.541 267.907 163.238 267.991 162.92 268.045C162.602 268.099 162.278 268.126 161.948 268.126C161.378 268.126 160.847 268.021 160.355 267.811C159.869 267.601 159.446 267.298 159.086 266.902C158.726 266.5 158.444 266.008 158.24 265.426C158.036 264.844 157.934 264.181 157.934 263.437C157.934 262.759 158.027 262.132 158.213 261.556C158.405 260.98 158.681 260.485 159.041 260.071C159.407 259.651 159.854 259.324 160.382 259.09C160.916 258.856 161.528 258.739 162.218 258.739C162.86 258.739 163.424 258.844 163.91 259.054C164.402 259.258 164.837 259.549 165.215 259.927L164.792 260.503ZM175.502 268H173.9V260.224H169.202V265.696C169.202 266.08 169.295 266.365 169.481 266.551C169.667 266.737 169.907 266.83 170.201 266.83C170.369 266.83 170.513 266.809 170.633 266.767C170.759 266.719 170.867 266.668 170.957 266.614C171.047 266.56 171.122 266.512 171.182 266.47C171.248 266.422 171.305 266.398 171.353 266.398C171.437 266.398 171.512 266.449 171.578 266.551L172.046 267.316C171.77 267.574 171.437 267.778 171.047 267.928C170.657 268.072 170.255 268.144 169.841 268.144C169.121 268.144 168.566 267.943 168.176 267.541C167.792 267.139 167.6 266.56 167.6 265.804V260.224H166.502C166.406 260.224 166.325 260.197 166.259 260.143C166.193 260.083 166.16 259.993 166.16 259.873V259.234L167.654 259.036L168.023 256.228C168.041 256.138 168.08 256.066 168.14 256.012C168.206 255.952 168.29 255.922 168.392 255.922H169.202V259.063H175.502V268ZM175.898 255.958C175.898 256.114 175.865 256.261 175.799 256.399C175.739 256.531 175.655 256.648 175.547 256.75C175.445 256.852 175.325 256.933 175.187 256.993C175.049 257.053 174.902 257.083 174.746 257.083C174.59 257.083 174.443 257.053 174.305 256.993C174.173 256.933 174.056 256.852 173.954 256.75C173.852 256.648 173.771 256.531 173.711 256.399C173.651 256.261 173.621 256.114 173.621 255.958C173.621 255.802 173.651 255.655 173.711 255.517C173.771 255.373 173.852 255.25 173.954 255.148C174.056 255.04 174.173 254.956 174.305 254.896C174.443 254.836 174.59 254.806 174.746 254.806C174.902 254.806 175.049 254.836 175.187 254.896C175.325 254.956 175.445 255.04 175.547 255.148C175.655 255.25 175.739 255.373 175.799 255.517C175.865 255.655 175.898 255.802 175.898 255.958ZM185.946 258.883L182.229 268H180.789L177.072 258.883H178.377C178.509 258.883 178.617 258.916 178.701 258.982C178.785 259.048 178.842 259.126 178.872 259.216L181.185 265.084C181.257 265.306 181.32 265.522 181.374 265.732C181.428 265.942 181.479 266.152 181.527 266.362C181.575 266.152 181.626 265.942 181.68 265.732C181.734 265.522 181.8 265.306 181.878 265.084L184.218 259.216C184.254 259.12 184.314 259.042 184.398 258.982C184.482 258.916 184.581 258.883 184.695 258.883H185.946ZM192.163 263.896C191.425 263.92 190.795 263.98 190.273 264.076C189.757 264.166 189.334 264.286 189.004 264.436C188.68 264.586 188.443 264.763 188.293 264.967C188.149 265.171 188.077 265.399 188.077 265.651C188.077 265.891 188.116 266.098 188.194 266.272C188.272 266.446 188.377 266.59 188.509 266.704C188.647 266.812 188.806 266.893 188.986 266.947C189.172 266.995 189.37 267.019 189.58 267.019C189.862 267.019 190.12 266.992 190.354 266.938C190.588 266.878 190.807 266.794 191.011 266.686C191.221 266.578 191.419 266.449 191.605 266.299C191.797 266.149 191.983 265.978 192.163 265.786V263.896ZM186.988 260.17C187.492 259.684 188.035 259.321 188.617 259.081C189.199 258.841 189.844 258.721 190.552 258.721C191.062 258.721 191.515 258.805 191.911 258.973C192.307 259.141 192.64 259.375 192.91 259.675C193.18 259.975 193.384 260.338 193.522 260.764C193.66 261.19 193.729 261.658 193.729 262.168V268H193.018C192.862 268 192.742 267.976 192.658 267.928C192.574 267.874 192.508 267.772 192.46 267.622L192.28 266.758C192.04 266.98 191.806 267.178 191.578 267.352C191.35 267.52 191.11 267.664 190.858 267.784C190.606 267.898 190.336 267.985 190.048 268.045C189.766 268.111 189.451 268.144 189.103 268.144C188.749 268.144 188.416 268.096 188.104 268C187.792 267.898 187.519 267.748 187.285 267.55C187.057 267.352 186.874 267.103 186.736 266.803C186.604 266.497 186.538 266.137 186.538 265.723C186.538 265.363 186.637 265.018 186.835 264.688C187.033 264.352 187.354 264.055 187.798 263.797C188.242 263.539 188.821 263.329 189.535 263.167C190.249 262.999 191.125 262.903 192.163 262.879V262.168C192.163 261.46 192.01 260.926 191.704 260.566C191.398 260.2 190.951 260.017 190.363 260.017C189.967 260.017 189.634 260.068 189.364 260.17C189.1 260.266 188.869 260.377 188.671 260.503C188.479 260.623 188.311 260.734 188.167 260.836C188.029 260.932 187.891 260.98 187.753 260.98C187.645 260.98 187.552 260.953 187.474 260.899C187.396 260.839 187.33 260.767 187.276 260.683L186.988 260.17ZM198.845 268.144C198.125 268.144 197.57 267.943 197.18 267.541C196.796 267.139 196.604 266.56 196.604 265.804V260.224H195.506C195.41 260.224 195.329 260.197 195.263 260.143C195.197 260.083 195.164 259.993 195.164 259.873V259.234L196.658 259.045L197.027 256.228C197.045 256.138 197.084 256.066 197.144 256.012C197.21 255.952 197.294 255.922 197.396 255.922H198.206V259.063H200.843V260.224H198.206V265.696C198.206 266.08 198.299 266.365 198.485 266.551C198.671 266.737 198.911 266.83 199.205 266.83C199.373 266.83 199.517 266.809 199.637 266.767C199.763 266.719 199.871 266.668 199.961 266.614C200.051 266.56 200.126 266.512 200.186 266.47C200.252 266.422 200.309 266.398 200.357 266.398C200.441 266.398 200.516 266.449 200.582 266.551L201.05 267.316C200.774 267.574 200.441 267.778 200.051 267.928C199.661 268.072 199.259 268.144 198.845 268.144ZM208.547 262.447C208.547 262.075 208.493 261.736 208.385 261.43C208.283 261.118 208.13 260.851 207.926 260.629C207.728 260.401 207.485 260.227 207.197 260.107C206.909 259.981 206.582 259.918 206.216 259.918C205.448 259.918 204.839 260.143 204.389 260.593C203.945 261.037 203.669 261.655 203.561 262.447H208.547ZM209.843 266.722C209.645 266.962 209.408 267.172 209.132 267.352C208.856 267.526 208.559 267.67 208.241 267.784C207.929 267.898 207.605 267.982 207.269 268.036C206.933 268.096 206.6 268.126 206.27 268.126C205.64 268.126 205.058 268.021 204.524 267.811C203.996 267.595 203.537 267.283 203.147 266.875C202.763 266.461 202.463 265.951 202.247 265.345C202.031 264.739 201.923 264.043 201.923 263.257C201.923 262.621 202.019 262.027 202.211 261.475C202.409 260.923 202.691 260.446 203.057 260.044C203.423 259.636 203.87 259.318 204.398 259.09C204.926 258.856 205.52 258.739 206.18 258.739C206.726 258.739 207.23 258.832 207.692 259.018C208.16 259.198 208.562 259.462 208.898 259.81C209.24 260.152 209.507 260.578 209.699 261.088C209.891 261.592 209.987 262.168 209.987 262.816C209.987 263.068 209.96 263.236 209.906 263.32C209.852 263.404 209.75 263.446 209.6 263.446H203.507C203.525 264.022 203.603 264.523 203.741 264.949C203.885 265.375 204.083 265.732 204.335 266.02C204.587 266.302 204.887 266.515 205.235 266.659C205.583 266.797 205.973 266.866 206.405 266.866C206.807 266.866 207.152 266.821 207.44 266.731C207.734 266.635 207.986 266.533 208.196 266.425C208.406 266.317 208.58 266.218 208.718 266.128C208.862 266.032 208.985 265.984 209.087 265.984C209.219 265.984 209.321 266.035 209.393 266.137L209.843 266.722ZM217.895 261.052C217.595 260.65 217.271 260.371 216.923 260.215C216.575 260.053 216.185 259.972 215.753 259.972C214.907 259.972 214.256 260.275 213.8 260.881C213.344 261.487 213.116 262.351 213.116 263.473C213.116 264.067 213.167 264.577 213.269 265.003C213.371 265.423 213.521 265.771 213.719 266.047C213.917 266.317 214.16 266.515 214.448 266.641C214.736 266.767 215.063 266.83 215.429 266.83C215.957 266.83 216.416 266.71 216.806 266.47C217.202 266.23 217.565 265.891 217.895 265.453V261.052ZM219.497 254.743V268H218.543C218.315 268 218.171 267.889 218.111 267.667L217.967 266.56C217.577 267.028 217.133 267.406 216.635 267.694C216.137 267.982 215.561 268.126 214.907 268.126C214.385 268.126 213.911 268.027 213.485 267.829C213.059 267.625 212.696 267.328 212.396 266.938C212.096 266.548 211.865 266.062 211.703 265.48C211.541 264.898 211.46 264.229 211.46 263.473C211.46 262.801 211.55 262.177 211.73 261.601C211.91 261.019 212.168 260.515 212.504 260.089C212.84 259.663 213.251 259.33 213.737 259.09C214.229 258.844 214.781 258.721 215.393 258.721C215.951 258.721 216.428 258.817 216.824 259.009C217.226 259.195 217.583 259.456 217.895 259.792V254.743H219.497Z" fill="#383838"/>
<path d="M194.608 126.481L177.877 143.251L171.442 136.816C171.092 136.408 170.662 136.076 170.178 135.842C169.694 135.608 169.167 135.476 168.63 135.456C168.093 135.435 167.558 135.525 167.057 135.722C166.557 135.918 166.102 136.215 165.722 136.595C165.342 136.975 165.045 137.43 164.849 137.93C164.652 138.431 164.562 138.966 164.583 139.503C164.603 140.04 164.735 140.567 164.969 141.051C165.203 141.535 165.535 141.965 165.943 142.315L175.108 151.519C175.472 151.88 175.905 152.166 176.38 152.36C176.855 152.555 177.364 152.653 177.877 152.65C178.9 152.646 179.881 152.239 180.607 151.519L200.107 132.019C200.473 131.656 200.763 131.225 200.961 130.75C201.159 130.275 201.261 129.765 201.261 129.25C201.261 128.735 201.159 128.225 200.961 127.75C200.763 127.275 200.473 126.844 200.107 126.481C199.376 125.755 198.388 125.347 197.358 125.347C196.327 125.347 195.339 125.755 194.608 126.481ZM184 100C176.287 100 168.746 102.287 162.333 106.573C155.919 110.858 150.921 116.949 147.969 124.075C145.017 131.202 144.245 139.043 145.749 146.609C147.254 154.174 150.969 161.123 156.423 166.577C161.877 172.031 168.826 175.746 176.391 177.251C183.957 178.755 191.798 177.983 198.925 175.031C206.051 172.079 212.142 167.081 216.427 160.667C220.713 154.254 223 146.713 223 139C223 133.878 221.991 128.807 220.031 124.075C218.071 119.344 215.199 115.044 211.577 111.423C207.956 107.801 203.656 104.929 198.925 102.969C194.193 101.009 189.122 100 184 100ZM184 170.2C177.829 170.2 171.797 168.37 166.666 164.942C161.535 161.514 157.536 156.641 155.175 150.94C152.814 145.239 152.196 138.965 153.4 132.913C154.603 126.861 157.575 121.302 161.938 116.938C166.302 112.575 171.861 109.603 177.913 108.399C183.965 107.196 190.239 107.814 195.94 110.175C201.641 112.536 206.514 116.535 209.942 121.666C213.37 126.797 215.2 132.829 215.2 139C215.2 147.275 211.913 155.211 206.062 161.062C200.211 166.913 192.275 170.2 184 170.2Z" fill="#EB662B"/>
<path d="M30.4184 31.82C30.4184 33.0733 30.2818 34.16 30.0084 35.08C29.7418 36 29.3718 36.7633 28.8984 37.37C28.4318 37.97 27.8784 38.4167 27.2384 38.71C26.6051 39.0033 25.9218 39.15 25.1884 39.15C24.4551 39.15 23.7684 39.0033 23.1284 38.71C22.4951 38.4167 21.9451 37.97 21.4784 37.37C21.0118 36.7633 20.6451 36 20.3784 35.08C20.1118 34.16 19.9784 33.0733 19.9784 31.82C19.9784 30.5667 20.1118 29.48 20.3784 28.56C20.6451 27.6333 21.0118 26.87 21.4784 26.27C21.9451 25.6633 22.4951 25.2133 23.1284 24.92C23.7684 24.6267 24.4551 24.48 25.1884 24.48C25.9218 24.48 26.6051 24.6267 27.2384 24.92C27.8784 25.2133 28.4318 25.6633 28.8984 26.27C29.3718 26.87 29.7418 27.6333 30.0084 28.56C30.2818 29.48 30.4184 30.5667 30.4184 31.82ZM28.3984 31.82C28.3984 30.74 28.3084 29.8367 28.1284 29.11C27.9551 28.3833 27.7184 27.8 27.4184 27.36C27.1251 26.9133 26.7851 26.5967 26.3984 26.41C26.0118 26.2233 25.6084 26.13 25.1884 26.13C24.7684 26.13 24.3651 26.2233 23.9784 26.41C23.5918 26.5967 23.2484 26.9133 22.9484 27.36C22.6551 27.8 22.4218 28.3833 22.2484 29.11C22.0751 29.8367 21.9884 30.74 21.9884 31.82C21.9884 32.9 22.0751 33.8033 22.2484 34.53C22.4218 35.2567 22.6551 35.84 22.9484 36.28C23.2484 36.72 23.5918 37.0333 23.9784 37.22C24.3651 37.4067 24.7684 37.5 25.1884 37.5C25.6084 37.5 26.0118 37.4067 26.3984 37.22C26.7851 37.0333 27.1251 36.72 27.4184 36.28C27.7184 35.84 27.9551 35.2567 28.1284 34.53C28.3084 33.8033 28.3984 32.9 28.3984 31.82ZM32.24 28.55C32.34 27.8833 32.5267 27.2967 32.8 26.79C33.0733 26.2833 33.4167 25.86 33.83 25.52C34.2433 25.1733 34.7167 24.9133 35.25 24.74C35.79 24.5667 36.37 24.48 36.99 24.48C37.61 24.48 38.18 24.57 38.7 24.75C39.22 24.9233 39.6633 25.1733 40.03 25.5C40.4033 25.82 40.6933 26.2067 40.9 26.66C41.1067 27.1133 41.21 27.6133 41.21 28.16C41.21 28.62 41.1533 29.0267 41.04 29.38C40.9267 29.7333 40.7633 30.0433 40.55 30.31C40.3433 30.5767 40.09 30.8033 39.79 30.99C39.49 31.17 39.1533 31.32 38.78 31.44C39.6933 31.6933 40.38 32.1067 40.84 32.68C41.3 33.2467 41.53 33.9667 41.53 34.84C41.53 35.5133 41.4033 36.12 41.15 36.66C40.8967 37.1933 40.55 37.6467 40.11 38.02C39.67 38.3867 39.1567 38.67 38.57 38.87C37.99 39.0633 37.37 39.16 36.71 39.16C35.9567 39.16 35.31 39.07 34.77 38.89C34.23 38.7033 33.77 38.4467 33.39 38.12C33.01 37.7867 32.6933 37.39 32.44 36.93C32.1933 36.4633 31.9833 35.9533 31.81 35.4L32.66 35.04C32.88 34.9467 33.0933 34.92 33.3 34.96C33.5067 35 33.6567 35.1167 33.75 35.31C33.85 35.51 33.9633 35.7367 34.09 35.99C34.2233 36.2367 34.4 36.4733 34.62 36.7C34.84 36.92 35.1133 37.1067 35.44 37.26C35.7733 37.4133 36.19 37.49 36.69 37.49C37.17 37.49 37.59 37.4133 37.95 37.26C38.31 37.1 38.61 36.8967 38.85 36.65C39.09 36.3967 39.27 36.1167 39.39 35.81C39.51 35.5033 39.57 35.2 39.57 34.9C39.57 34.5267 39.5233 34.1833 39.43 33.87C39.3367 33.5567 39.1567 33.29 38.89 33.07C38.63 32.8433 38.2667 32.6667 37.8 32.54C37.3333 32.4133 36.7267 32.35 35.98 32.35V30.93C36.5933 30.9233 37.11 30.86 37.53 30.74C37.9567 30.62 38.3 30.4533 38.56 30.24C38.82 30.0267 39.0067 29.7733 39.12 29.48C39.24 29.1867 39.3 28.86 39.3 28.5C39.3 28.1067 39.24 27.7633 39.12 27.47C39 27.1767 38.83 26.9333 38.61 26.74C38.3967 26.54 38.14 26.3933 37.84 26.3C37.5467 26.2 37.2267 26.15 36.88 26.15C36.5333 26.15 36.2133 26.2 35.92 26.3C35.6267 26.4 35.3667 26.54 35.14 26.72C34.9133 26.9 34.7233 27.1133 34.57 27.36C34.4167 27.6067 34.3067 27.8733 34.24 28.16C34.1467 28.4133 34.0267 28.5833 33.88 28.67C33.74 28.7567 33.5367 28.7767 33.27 28.73L32.24 28.55Z" fill="white"/>
</svg>
