<svg width="368" height="309" viewBox="0 0 368 309" fill="none" xmlns="http://www.w3.org/2000/svg">
<g clip-path="url(#clip0_1_5113)">
<path d="M0 15C0 6.71573 6.71573 0 15 0H353C361.284 0 368 6.71573 368 15V309H0V15Z" fill="#FEF6F2"/>
<path d="M64 97C64 69.3858 86.3858 47 114 47H253C280.614 47 303 69.3858 303 97V309H64V97Z" fill="white"/>
<mask id="path-3-inside-1_1_5113" fill="white">
<path d="M64 97C64 69.3858 86.3858 47 114 47H253C280.614 47 303 69.3858 303 97V309H64V97Z"/>
</mask>
<path d="M64 97C64 69.3858 86.3858 47 114 47H253C280.614 47 303 69.3858 303 97V309H64V97Z" fill="white"/>
<path d="M63 97C63 68.8335 85.8335 46 114 46H253C281.167 46 304 68.8335 304 97H302C302 69.938 280.062 48 253 48H114C86.938 48 65 69.938 65 97H63ZM303 309H64H303ZM63 309V97C63 68.8335 85.8335 46 114 46V48C86.938 48 65 69.938 65 97V309H63ZM253 46C281.167 46 304 68.8335 304 97V309H302V97C302 69.938 280.062 48 253 48V46Z" fill="black" mask="url(#path-3-inside-1_1_5113)"/>
<path d="M30.4184 31.82C30.4184 33.0733 30.2818 34.16 30.0084 35.08C29.7418 36 29.3718 36.7633 28.8984 37.37C28.4318 37.97 27.8784 38.4167 27.2384 38.71C26.6051 39.0033 25.9218 39.15 25.1884 39.15C24.4551 39.15 23.7684 39.0033 23.1284 38.71C22.4951 38.4167 21.9451 37.97 21.4784 37.37C21.0118 36.7633 20.6451 36 20.3784 35.08C20.1118 34.16 19.9784 33.0733 19.9784 31.82C19.9784 30.5667 20.1118 29.48 20.3784 28.56C20.6451 27.6333 21.0118 26.87 21.4784 26.27C21.9451 25.6633 22.4951 25.2133 23.1284 24.92C23.7684 24.6267 24.4551 24.48 25.1884 24.48C25.9218 24.48 26.6051 24.6267 27.2384 24.92C27.8784 25.2133 28.4318 25.6633 28.8984 26.27C29.3718 26.87 29.7418 27.6333 30.0084 28.56C30.2818 29.48 30.4184 30.5667 30.4184 31.82ZM28.3984 31.82C28.3984 30.74 28.3084 29.8367 28.1284 29.11C27.9551 28.3833 27.7184 27.8 27.4184 27.36C27.1251 26.9133 26.7851 26.5967 26.3984 26.41C26.0118 26.2233 25.6084 26.13 25.1884 26.13C24.7684 26.13 24.3651 26.2233 23.9784 26.41C23.5918 26.5967 23.2484 26.9133 22.9484 27.36C22.6551 27.8 22.4218 28.3833 22.2484 29.11C22.0751 29.8367 21.9884 30.74 21.9884 31.82C21.9884 32.9 22.0751 33.8033 22.2484 34.53C22.4218 35.2567 22.6551 35.84 22.9484 36.28C23.2484 36.72 23.5918 37.0333 23.9784 37.22C24.3651 37.4067 24.7684 37.5 25.1884 37.5C25.6084 37.5 26.0118 37.4067 26.3984 37.22C26.7851 37.0333 27.1251 36.72 27.4184 36.28C27.7184 35.84 27.9551 35.2567 28.1284 34.53C28.3084 33.8033 28.3984 32.9 28.3984 31.82ZM41.22 37.51V39H33.46V37.51H36.5V28.1C36.5 27.8 36.51 27.49 36.53 27.17L34.09 29.24C33.9967 29.3133 33.9033 29.36 33.81 29.38C33.7167 29.4 33.6267 29.4033 33.54 29.39C33.46 29.3767 33.3867 29.35 33.32 29.31C33.26 29.2633 33.21 29.2167 33.17 29.17L32.56 28.32L36.86 24.61H38.45V37.51H41.22Z" fill="white"/>
<rect x="92.5" y="84.5" width="183" height="37" rx="6.5" fill="white"/>
<rect x="92.5" y="84.5" width="183" height="37" rx="6.5" stroke="#D9D9D9"/>
<circle cx="113" cy="103" r="8.5" fill="white" stroke="#D9D9D9"/>
<path d="M141.601 108.51V110H133.841V108.51H136.881V99.1C136.881 98.8 136.891 98.49 136.911 98.17L134.471 100.24C134.378 100.313 134.284 100.36 134.191 100.38C134.098 100.4 134.008 100.403 133.921 100.39C133.841 100.377 133.768 100.35 133.701 100.31C133.641 100.263 133.591 100.217 133.551 100.17L132.941 99.32L137.241 95.61H138.831V108.51H141.601ZM161.531 103.01V108.61C160.804 109.13 160.031 109.52 159.211 109.78C158.391 110.033 157.498 110.16 156.531 110.16C155.371 110.16 154.321 109.98 153.381 109.62C152.448 109.26 151.651 108.757 150.991 108.11C150.331 107.463 149.821 106.69 149.461 105.79C149.108 104.89 148.931 103.9 148.931 102.82C148.931 101.733 149.101 100.74 149.441 99.84C149.788 98.9333 150.281 98.16 150.921 97.52C151.561 96.8733 152.334 96.3733 153.241 96.02C154.154 95.66 155.178 95.48 156.311 95.48C156.884 95.48 157.414 95.5233 157.901 95.61C158.394 95.6967 158.851 95.82 159.271 95.98C159.691 96.14 160.078 96.3333 160.431 96.56C160.791 96.78 161.124 97.03 161.431 97.31L160.821 98.27C160.728 98.4233 160.604 98.52 160.451 98.56C160.298 98.6 160.131 98.5633 159.951 98.45C159.778 98.35 159.584 98.2333 159.371 98.1C159.164 97.9667 158.914 97.8433 158.621 97.73C158.334 97.6167 157.998 97.52 157.611 97.44C157.224 97.36 156.768 97.32 156.241 97.32C155.454 97.32 154.744 97.45 154.111 97.71C153.478 97.9633 152.938 98.33 152.491 98.81C152.044 99.29 151.701 99.87 151.461 100.55C151.221 101.223 151.101 101.98 151.101 102.82C151.101 103.7 151.228 104.49 151.481 105.19C151.734 105.883 152.091 106.473 152.551 106.96C153.018 107.44 153.581 107.807 154.241 108.06C154.908 108.313 155.651 108.44 156.471 108.44C156.791 108.44 157.088 108.423 157.361 108.39C157.641 108.35 157.908 108.297 158.161 108.23C158.414 108.163 158.658 108.08 158.891 107.98C159.131 107.88 159.368 107.77 159.601 107.65V104.64H157.481C157.348 104.64 157.238 104.6 157.151 104.52C157.071 104.44 157.031 104.34 157.031 104.22V103.01H161.531ZM169.531 108.31C170.071 108.31 170.531 108.247 170.911 108.12C171.298 107.993 171.611 107.82 171.851 107.6C172.098 107.38 172.278 107.12 172.391 106.82C172.504 106.513 172.561 106.18 172.561 105.82C172.561 105.107 172.314 104.547 171.821 104.14C171.328 103.727 170.564 103.52 169.531 103.52H166.531V108.31H169.531ZM166.531 97.31V102.01H168.981C170.028 102.01 170.804 101.8 171.311 101.38C171.824 100.953 172.081 100.38 172.081 99.66C172.081 98.84 171.838 98.2433 171.351 97.87C170.864 97.4967 170.108 97.31 169.081 97.31H166.531ZM169.081 95.64C169.981 95.64 170.751 95.7267 171.391 95.9C172.038 96.0733 172.568 96.3233 172.981 96.65C173.394 96.9767 173.698 97.3733 173.891 97.84C174.091 98.3 174.191 98.8233 174.191 99.41C174.191 99.7567 174.138 100.09 174.031 100.41C173.924 100.73 173.761 101.03 173.541 101.31C173.321 101.583 173.044 101.83 172.711 102.05C172.378 102.27 171.984 102.453 171.531 102.6C173.618 103.013 174.661 104.103 174.661 105.87C174.661 106.483 174.548 107.043 174.321 107.55C174.094 108.05 173.764 108.483 173.331 108.85C172.898 109.217 172.364 109.5 171.731 109.7C171.098 109.9 170.378 110 169.571 110H164.401V95.64H169.081Z" fill="black"/>
<rect x="92.5" y="138.5" width="183" height="37" rx="6.5" fill="white"/>
<rect x="92.5" y="138.5" width="183" height="37" rx="6.5" stroke="#D9D9D9"/>
<circle cx="113" cy="157" r="8.5" fill="white" stroke="#D9D9D9"/>
<path d="M141.241 162.15C141.454 162.15 141.621 162.213 141.741 162.34C141.861 162.46 141.921 162.62 141.921 162.82V164H132.281V163.33C132.281 163.197 132.308 163.057 132.361 162.91C132.414 162.757 132.504 162.62 132.631 162.5L137.171 157.95C137.551 157.57 137.894 157.203 138.201 156.85C138.508 156.497 138.768 156.147 138.981 155.8C139.194 155.447 139.358 155.087 139.471 154.72C139.591 154.353 139.651 153.967 139.651 153.56C139.651 153.16 139.588 152.81 139.461 152.51C139.334 152.203 139.161 151.95 138.941 151.75C138.721 151.55 138.461 151.4 138.161 151.3C137.861 151.2 137.538 151.15 137.191 151.15C136.844 151.15 136.524 151.2 136.231 151.3C135.944 151.4 135.688 151.54 135.461 151.72C135.234 151.9 135.044 152.113 134.891 152.36C134.738 152.607 134.628 152.873 134.561 153.16C134.468 153.413 134.348 153.583 134.201 153.67C134.061 153.757 133.854 153.777 133.581 153.73L132.561 153.55C132.654 152.883 132.838 152.297 133.111 151.79C133.384 151.283 133.728 150.86 134.141 150.52C134.554 150.173 135.028 149.913 135.561 149.74C136.101 149.567 136.681 149.48 137.301 149.48C137.928 149.48 138.504 149.573 139.031 149.76C139.564 149.94 140.024 150.203 140.411 150.55C140.798 150.897 141.101 151.32 141.321 151.82C141.541 152.313 141.651 152.873 141.651 153.5C141.651 154.033 141.571 154.53 141.411 154.99C141.258 155.443 141.044 155.877 140.771 156.29C140.504 156.703 140.191 157.107 139.831 157.5C139.478 157.887 139.101 158.28 138.701 158.68L135.061 162.4C135.341 162.327 135.621 162.267 135.901 162.22C136.188 162.173 136.458 162.15 136.711 162.15H141.241ZM161.531 157.01V162.61C160.804 163.13 160.031 163.52 159.211 163.78C158.391 164.033 157.498 164.16 156.531 164.16C155.371 164.16 154.321 163.98 153.381 163.62C152.448 163.26 151.651 162.757 150.991 162.11C150.331 161.463 149.821 160.69 149.461 159.79C149.108 158.89 148.931 157.9 148.931 156.82C148.931 155.733 149.101 154.74 149.441 153.84C149.788 152.933 150.281 152.16 150.921 151.52C151.561 150.873 152.334 150.373 153.241 150.02C154.154 149.66 155.178 149.48 156.311 149.48C156.884 149.48 157.414 149.523 157.901 149.61C158.394 149.697 158.851 149.82 159.271 149.98C159.691 150.14 160.078 150.333 160.431 150.56C160.791 150.78 161.124 151.03 161.431 151.31L160.821 152.27C160.728 152.423 160.604 152.52 160.451 152.56C160.298 152.6 160.131 152.563 159.951 152.45C159.778 152.35 159.584 152.233 159.371 152.1C159.164 151.967 158.914 151.843 158.621 151.73C158.334 151.617 157.998 151.52 157.611 151.44C157.224 151.36 156.768 151.32 156.241 151.32C155.454 151.32 154.744 151.45 154.111 151.71C153.478 151.963 152.938 152.33 152.491 152.81C152.044 153.29 151.701 153.87 151.461 154.55C151.221 155.223 151.101 155.98 151.101 156.82C151.101 157.7 151.228 158.49 151.481 159.19C151.734 159.883 152.091 160.473 152.551 160.96C153.018 161.44 153.581 161.807 154.241 162.06C154.908 162.313 155.651 162.44 156.471 162.44C156.791 162.44 157.088 162.423 157.361 162.39C157.641 162.35 157.908 162.297 158.161 162.23C158.414 162.163 158.658 162.08 158.891 161.98C159.131 161.88 159.368 161.77 159.601 161.65V158.64H157.481C157.348 158.64 157.238 158.6 157.151 158.52C157.071 158.44 157.031 158.34 157.031 158.22V157.01H161.531ZM169.531 162.31C170.071 162.31 170.531 162.247 170.911 162.12C171.298 161.993 171.611 161.82 171.851 161.6C172.098 161.38 172.278 161.12 172.391 160.82C172.504 160.513 172.561 160.18 172.561 159.82C172.561 159.107 172.314 158.547 171.821 158.14C171.328 157.727 170.564 157.52 169.531 157.52H166.531V162.31H169.531ZM166.531 151.31V156.01H168.981C170.028 156.01 170.804 155.8 171.311 155.38C171.824 154.953 172.081 154.38 172.081 153.66C172.081 152.84 171.838 152.243 171.351 151.87C170.864 151.497 170.108 151.31 169.081 151.31H166.531ZM169.081 149.64C169.981 149.64 170.751 149.727 171.391 149.9C172.038 150.073 172.568 150.323 172.981 150.65C173.394 150.977 173.698 151.373 173.891 151.84C174.091 152.3 174.191 152.823 174.191 153.41C174.191 153.757 174.138 154.09 174.031 154.41C173.924 154.73 173.761 155.03 173.541 155.31C173.321 155.583 173.044 155.83 172.711 156.05C172.378 156.27 171.984 156.453 171.531 156.6C173.618 157.013 174.661 158.103 174.661 159.87C174.661 160.483 174.548 161.043 174.321 161.55C174.094 162.05 173.764 162.483 173.331 162.85C172.898 163.217 172.364 163.5 171.731 163.7C171.098 163.9 170.378 164 169.571 164H164.401V149.64H169.081Z" fill="black"/>
<rect x="92.5" y="192.5" width="183" height="37" rx="6.5" fill="white"/>
<rect x="92.5" y="192.5" width="183" height="37" rx="6.5" stroke="#D9D9D9"/>
<circle cx="113" cy="211" r="8.5" fill="white" stroke="#D9D9D9"/>
<path d="M132.621 207.55C132.721 206.883 132.908 206.297 133.181 205.79C133.454 205.283 133.798 204.86 134.211 204.52C134.624 204.173 135.098 203.913 135.631 203.74C136.171 203.567 136.751 203.48 137.371 203.48C137.991 203.48 138.561 203.57 139.081 203.75C139.601 203.923 140.044 204.173 140.411 204.5C140.784 204.82 141.074 205.207 141.281 205.66C141.488 206.113 141.591 206.613 141.591 207.16C141.591 207.62 141.534 208.027 141.421 208.38C141.308 208.733 141.144 209.043 140.931 209.31C140.724 209.577 140.471 209.803 140.171 209.99C139.871 210.17 139.534 210.32 139.161 210.44C140.074 210.693 140.761 211.107 141.221 211.68C141.681 212.247 141.911 212.967 141.911 213.84C141.911 214.513 141.784 215.12 141.531 215.66C141.278 216.193 140.931 216.647 140.491 217.02C140.051 217.387 139.538 217.67 138.951 217.87C138.371 218.063 137.751 218.16 137.091 218.16C136.338 218.16 135.691 218.07 135.151 217.89C134.611 217.703 134.151 217.447 133.771 217.12C133.391 216.787 133.074 216.39 132.821 215.93C132.574 215.463 132.364 214.953 132.191 214.4L133.041 214.04C133.261 213.947 133.474 213.92 133.681 213.96C133.888 214 134.038 214.117 134.131 214.31C134.231 214.51 134.344 214.737 134.471 214.99C134.604 215.237 134.781 215.473 135.001 215.7C135.221 215.92 135.494 216.107 135.821 216.26C136.154 216.413 136.571 216.49 137.071 216.49C137.551 216.49 137.971 216.413 138.331 216.26C138.691 216.1 138.991 215.897 139.231 215.65C139.471 215.397 139.651 215.117 139.771 214.81C139.891 214.503 139.951 214.2 139.951 213.9C139.951 213.527 139.904 213.183 139.811 212.87C139.718 212.557 139.538 212.29 139.271 212.07C139.011 211.843 138.648 211.667 138.181 211.54C137.714 211.413 137.108 211.35 136.361 211.35V209.93C136.974 209.923 137.491 209.86 137.911 209.74C138.338 209.62 138.681 209.453 138.941 209.24C139.201 209.027 139.388 208.773 139.501 208.48C139.621 208.187 139.681 207.86 139.681 207.5C139.681 207.107 139.621 206.763 139.501 206.47C139.381 206.177 139.211 205.933 138.991 205.74C138.778 205.54 138.521 205.393 138.221 205.3C137.928 205.2 137.608 205.15 137.261 205.15C136.914 205.15 136.594 205.2 136.301 205.3C136.008 205.4 135.748 205.54 135.521 205.72C135.294 205.9 135.104 206.113 134.951 206.36C134.798 206.607 134.688 206.873 134.621 207.16C134.528 207.413 134.408 207.583 134.261 207.67C134.121 207.757 133.918 207.777 133.651 207.73L132.621 207.55ZM161.531 211.01V216.61C160.804 217.13 160.031 217.52 159.211 217.78C158.391 218.033 157.498 218.16 156.531 218.16C155.371 218.16 154.321 217.98 153.381 217.62C152.448 217.26 151.651 216.757 150.991 216.11C150.331 215.463 149.821 214.69 149.461 213.79C149.108 212.89 148.931 211.9 148.931 210.82C148.931 209.733 149.101 208.74 149.441 207.84C149.788 206.933 150.281 206.16 150.921 205.52C151.561 204.873 152.334 204.373 153.241 204.02C154.154 203.66 155.178 203.48 156.311 203.48C156.884 203.48 157.414 203.523 157.901 203.61C158.394 203.697 158.851 203.82 159.271 203.98C159.691 204.14 160.078 204.333 160.431 204.56C160.791 204.78 161.124 205.03 161.431 205.31L160.821 206.27C160.728 206.423 160.604 206.52 160.451 206.56C160.298 206.6 160.131 206.563 159.951 206.45C159.778 206.35 159.584 206.233 159.371 206.1C159.164 205.967 158.914 205.843 158.621 205.73C158.334 205.617 157.998 205.52 157.611 205.44C157.224 205.36 156.768 205.32 156.241 205.32C155.454 205.32 154.744 205.45 154.111 205.71C153.478 205.963 152.938 206.33 152.491 206.81C152.044 207.29 151.701 207.87 151.461 208.55C151.221 209.223 151.101 209.98 151.101 210.82C151.101 211.7 151.228 212.49 151.481 213.19C151.734 213.883 152.091 214.473 152.551 214.96C153.018 215.44 153.581 215.807 154.241 216.06C154.908 216.313 155.651 216.44 156.471 216.44C156.791 216.44 157.088 216.423 157.361 216.39C157.641 216.35 157.908 216.297 158.161 216.23C158.414 216.163 158.658 216.08 158.891 215.98C159.131 215.88 159.368 215.77 159.601 215.65V212.64H157.481C157.348 212.64 157.238 212.6 157.151 212.52C157.071 212.44 157.031 212.34 157.031 212.22V211.01H161.531ZM169.531 216.31C170.071 216.31 170.531 216.247 170.911 216.12C171.298 215.993 171.611 215.82 171.851 215.6C172.098 215.38 172.278 215.12 172.391 214.82C172.504 214.513 172.561 214.18 172.561 213.82C172.561 213.107 172.314 212.547 171.821 212.14C171.328 211.727 170.564 211.52 169.531 211.52H166.531V216.31H169.531ZM166.531 205.31V210.01H168.981C170.028 210.01 170.804 209.8 171.311 209.38C171.824 208.953 172.081 208.38 172.081 207.66C172.081 206.84 171.838 206.243 171.351 205.87C170.864 205.497 170.108 205.31 169.081 205.31H166.531ZM169.081 203.64C169.981 203.64 170.751 203.727 171.391 203.9C172.038 204.073 172.568 204.323 172.981 204.65C173.394 204.977 173.698 205.373 173.891 205.84C174.091 206.3 174.191 206.823 174.191 207.41C174.191 207.757 174.138 208.09 174.031 208.41C173.924 208.73 173.761 209.03 173.541 209.31C173.321 209.583 173.044 209.83 172.711 210.05C172.378 210.27 171.984 210.453 171.531 210.6C173.618 211.013 174.661 212.103 174.661 213.87C174.661 214.483 174.548 215.043 174.321 215.55C174.094 216.05 173.764 216.483 173.331 216.85C172.898 217.217 172.364 217.5 171.731 217.7C171.098 217.9 170.378 218 169.571 218H164.401V203.64H169.081Z" fill="black"/>
<rect x="92.5" y="246.5" width="183" height="37" rx="6.5" fill="#EB662B"/>
<rect x="92.5" y="246.5" width="183" height="37" rx="6.5" stroke="#D9D9D9"/>
<circle cx="113" cy="265" r="8.5" fill="#EB662B" stroke="#D9D9D9"/>
<path d="M135.111 263C135.844 262.847 136.508 262.77 137.101 262.77C137.848 262.77 138.508 262.883 139.081 263.11C139.654 263.33 140.134 263.637 140.521 264.03C140.914 264.417 141.208 264.877 141.401 265.41C141.601 265.937 141.701 266.51 141.701 267.13C141.701 267.89 141.568 268.58 141.301 269.2C141.034 269.82 140.668 270.35 140.201 270.79C139.734 271.23 139.181 271.57 138.541 271.81C137.908 272.043 137.224 272.16 136.491 272.16C136.058 272.16 135.644 272.117 135.251 272.03C134.864 271.943 134.501 271.83 134.161 271.69C133.821 271.543 133.504 271.377 133.211 271.19C132.924 271.003 132.668 270.807 132.441 270.6L133.041 269.76C133.168 269.573 133.338 269.48 133.551 269.48C133.691 269.48 133.844 269.533 134.011 269.64C134.184 269.74 134.388 269.853 134.621 269.98C134.854 270.107 135.131 270.223 135.451 270.33C135.771 270.43 136.151 270.48 136.591 270.48C137.078 270.48 137.514 270.403 137.901 270.25C138.294 270.09 138.624 269.867 138.891 269.58C139.164 269.293 139.371 268.95 139.511 268.55C139.658 268.15 139.731 267.707 139.731 267.22C139.731 266.787 139.668 266.397 139.541 266.05C139.414 265.703 139.224 265.407 138.971 265.16C138.718 264.913 138.401 264.727 138.021 264.6C137.641 264.467 137.198 264.4 136.691 264.4C135.984 264.4 135.231 264.527 134.431 264.78L133.201 264.42L134.371 257.64H141.251V258.49C141.251 258.77 141.161 259 140.981 259.18C140.808 259.353 140.514 259.44 140.101 259.44H135.731L135.111 263ZM161.531 265.01V270.61C160.804 271.13 160.031 271.52 159.211 271.78C158.391 272.033 157.498 272.16 156.531 272.16C155.371 272.16 154.321 271.98 153.381 271.62C152.448 271.26 151.651 270.757 150.991 270.11C150.331 269.463 149.821 268.69 149.461 267.79C149.108 266.89 148.931 265.9 148.931 264.82C148.931 263.733 149.101 262.74 149.441 261.84C149.788 260.933 150.281 260.16 150.921 259.52C151.561 258.873 152.334 258.373 153.241 258.02C154.154 257.66 155.178 257.48 156.311 257.48C156.884 257.48 157.414 257.523 157.901 257.61C158.394 257.697 158.851 257.82 159.271 257.98C159.691 258.14 160.078 258.333 160.431 258.56C160.791 258.78 161.124 259.03 161.431 259.31L160.821 260.27C160.728 260.423 160.604 260.52 160.451 260.56C160.298 260.6 160.131 260.563 159.951 260.45C159.778 260.35 159.584 260.233 159.371 260.1C159.164 259.967 158.914 259.843 158.621 259.73C158.334 259.617 157.998 259.52 157.611 259.44C157.224 259.36 156.768 259.32 156.241 259.32C155.454 259.32 154.744 259.45 154.111 259.71C153.478 259.963 152.938 260.33 152.491 260.81C152.044 261.29 151.701 261.87 151.461 262.55C151.221 263.223 151.101 263.98 151.101 264.82C151.101 265.7 151.228 266.49 151.481 267.19C151.734 267.883 152.091 268.473 152.551 268.96C153.018 269.44 153.581 269.807 154.241 270.06C154.908 270.313 155.651 270.44 156.471 270.44C156.791 270.44 157.088 270.423 157.361 270.39C157.641 270.35 157.908 270.297 158.161 270.23C158.414 270.163 158.658 270.08 158.891 269.98C159.131 269.88 159.368 269.77 159.601 269.65V266.64H157.481C157.348 266.64 157.238 266.6 157.151 266.52C157.071 266.44 157.031 266.34 157.031 266.22V265.01H161.531ZM169.531 270.31C170.071 270.31 170.531 270.247 170.911 270.12C171.298 269.993 171.611 269.82 171.851 269.6C172.098 269.38 172.278 269.12 172.391 268.82C172.504 268.513 172.561 268.18 172.561 267.82C172.561 267.107 172.314 266.547 171.821 266.14C171.328 265.727 170.564 265.52 169.531 265.52H166.531V270.31H169.531ZM166.531 259.31V264.01H168.981C170.028 264.01 170.804 263.8 171.311 263.38C171.824 262.953 172.081 262.38 172.081 261.66C172.081 260.84 171.838 260.243 171.351 259.87C170.864 259.497 170.108 259.31 169.081 259.31H166.531ZM169.081 257.64C169.981 257.64 170.751 257.727 171.391 257.9C172.038 258.073 172.568 258.323 172.981 258.65C173.394 258.977 173.698 259.373 173.891 259.84C174.091 260.3 174.191 260.823 174.191 261.41C174.191 261.757 174.138 262.09 174.031 262.41C173.924 262.73 173.761 263.03 173.541 263.31C173.321 263.583 173.044 263.83 172.711 264.05C172.378 264.27 171.984 264.453 171.531 264.6C173.618 265.013 174.661 266.103 174.661 267.87C174.661 268.483 174.548 269.043 174.321 269.55C174.094 270.05 173.764 270.483 173.331 270.85C172.898 271.217 172.364 271.5 171.731 271.7C171.098 271.9 170.378 272 169.571 272H164.401V257.64H169.081Z" fill="white"/>
<rect x="92.5" y="300.5" width="183" height="37" rx="6.5" fill="white"/>
<rect x="92.5" y="300.5" width="183" height="37" rx="6.5" stroke="#D9D9D9"/>
</g>
<defs>
<clipPath id="clip0_1_5113">
<path d="M0 15C0 6.71573 6.71573 0 15 0H353C361.284 0 368 6.71573 368 15V309H0V15Z" fill="white"/>
</clipPath>
</defs>
</svg>
