<svg width="14" height="15" viewBox="0 0 14 15" fill="none" xmlns="http://www.w3.org/2000/svg">
<path d="M9.07499 6.82824H7.73165V4.14156C7.73165 3.96342 7.66088 3.79258 7.53492 3.66662C7.40896 3.54065 7.23811 3.46989 7.05998 3.46989C6.88184 3.46989 6.71099 3.54065 6.58503 3.66662C6.45907 3.79258 6.3883 3.96342 6.3883 4.14156V7.49991C6.3883 7.67805 6.45907 7.84889 6.58503 7.97486C6.71099 8.10082 6.88184 8.17158 7.05998 8.17158H9.07499C9.25313 8.17158 9.42397 8.10082 9.54993 7.97486C9.67589 7.84889 9.74666 7.67805 9.74666 7.49991C9.74666 7.32178 9.67589 7.15093 9.54993 7.02497C9.42397 6.89901 9.25313 6.82824 9.07499 6.82824ZM7.05998 0.783203C5.73154 0.783203 4.43293 1.17713 3.32837 1.91517C2.22381 2.65321 1.36292 3.70222 0.854544 4.92954C0.346172 6.15686 0.213159 7.50736 0.472324 8.81028C0.73149 10.1132 1.37119 11.31 2.31054 12.2493C3.24989 13.1887 4.4467 13.8284 5.74961 14.0876C7.05252 14.3467 8.40303 14.2137 9.63035 13.7053C10.8577 13.197 11.9067 12.3361 12.6447 11.2315C13.3828 10.127 13.7767 8.82835 13.7767 7.49991C13.7767 6.61786 13.603 5.74445 13.2654 4.92954C12.9279 4.11463 12.4331 3.37419 11.8094 2.75048C11.1857 2.12678 10.4453 1.63203 9.63035 1.29448C8.81544 0.956936 7.94203 0.783203 7.05998 0.783203V0.783203ZM7.05998 12.8733C5.99722 12.8733 4.95834 12.5581 4.07469 11.9677C3.19105 11.3773 2.50233 10.5381 2.09563 9.55621C1.68893 8.57436 1.58252 7.49395 1.78985 6.45162C1.99719 5.40929 2.50895 4.45185 3.26043 3.70037C4.01191 2.94889 4.96935 2.43713 6.01168 2.22979C7.05401 2.02246 8.13442 2.12887 9.11627 2.53557C10.0981 2.94227 10.9373 3.63098 11.5278 4.51463C12.1182 5.39828 12.4333 6.43716 12.4333 7.49991C12.4333 8.92502 11.8672 10.2918 10.8595 11.2995C9.85182 12.3072 8.48508 12.8733 7.05998 12.8733V12.8733Z" fill="#323232"/>
</svg>
