<svg width="12" height="15" viewBox="0 0 12 15" fill="none" xmlns="http://www.w3.org/2000/svg">
<path d="M3.37321 10.5224C3.24036 10.5224 3.1105 10.5618 3.00005 10.6356C2.88959 10.7094 2.8035 10.8143 2.75266 10.9371C2.70183 11.0598 2.68853 11.1948 2.71444 11.3251C2.74036 11.4554 2.80433 11.5751 2.89826 11.669C2.9922 11.763 3.11188 11.827 3.24217 11.8529C3.37246 11.8788 3.50751 11.8655 3.63025 11.8146C3.75298 11.7638 3.85788 11.6777 3.93168 11.5673C4.00549 11.4568 4.04488 11.3269 4.04488 11.1941C4.04488 11.016 3.97411 10.8451 3.84815 10.7192C3.72219 10.5932 3.55135 10.5224 3.37321 10.5224V10.5224ZM6.05989 0.783203C3.37321 0.783203 0.686523 1.70339 0.686523 3.46989V11.5299C0.686523 13.2964 3.37321 14.2166 6.05989 14.2166C8.74658 14.2166 11.4333 13.2964 11.4333 11.5299V3.46989C11.4333 1.70339 8.74658 0.783203 6.05989 0.783203ZM10.0899 11.5299C10.0899 12.0068 8.55851 12.8733 6.05989 12.8733C3.56128 12.8733 2.02987 12.0068 2.02987 11.5299V9.33358C3.28728 9.93133 4.66812 10.2236 6.05989 10.1866C7.45167 10.2236 8.8325 9.93133 10.0899 9.33358V11.5299ZM10.0899 7.49991C10.0899 7.9768 8.55851 8.84326 6.05989 8.84326C3.56128 8.84326 2.02987 7.9768 2.02987 7.49991V5.30355C3.28728 5.90131 4.66812 6.19358 6.05989 6.15657C7.45167 6.19358 8.8325 5.90131 10.0899 5.30355V7.49991ZM6.05989 4.81323C3.56128 4.81323 2.02987 3.94677 2.02987 3.46989C2.02987 2.993 3.56128 2.12655 6.05989 2.12655C8.55851 2.12655 10.0899 2.993 10.0899 3.46989C10.0899 3.94677 8.55851 4.81323 6.05989 4.81323ZM3.37321 6.49241C3.24036 6.49241 3.1105 6.5318 3.00005 6.6056C2.88959 6.67941 2.8035 6.78431 2.75266 6.90704C2.70183 7.02977 2.68853 7.16482 2.71444 7.29511C2.74036 7.42541 2.80433 7.54509 2.89826 7.63902C2.9922 7.73296 3.11188 7.79693 3.24217 7.82284C3.37246 7.84876 3.50751 7.83546 3.63025 7.78462C3.75298 7.73378 3.85788 7.64769 3.93168 7.53724C4.00549 7.42678 4.04488 7.29692 4.04488 7.16408C4.04488 6.98594 3.97411 6.8151 3.84815 6.68913C3.72219 6.56317 3.55135 6.49241 3.37321 6.49241V6.49241Z" fill="#323232"/>
</svg>
