<svg width="368" height="309" viewBox="0 0 368 309" fill="none" xmlns="http://www.w3.org/2000/svg">
<path d="M0 15C0 6.71573 6.71573 0 15 0H353C361.284 0 368 6.71573 368 15V309H0V15Z" fill="#FEF6F2"/>
<mask id="path-2-inside-1_1_5137" fill="white">
<path d="M64 97C64 69.3858 86.3858 47 114 47H253C280.614 47 303 69.3858 303 97V309H64V97Z"/>
</mask>
<path d="M64 97C64 69.3858 86.3858 47 114 47H253C280.614 47 303 69.3858 303 97V309H64V97Z" fill="white"/>
<path d="M63 97C63 68.8335 85.8335 46 114 46H253C281.167 46 304 68.8335 304 97H302C302 69.938 280.062 48 253 48H114C86.938 48 65 69.938 65 97H63ZM303 309H64H303ZM63 309V97C63 68.8335 85.8335 46 114 46V48C86.938 48 65 69.938 65 97V309H63ZM253 46C281.167 46 304 68.8335 304 97V309H302V97C302 69.938 280.062 48 253 48V46Z" fill="black" mask="url(#path-2-inside-1_1_5137)"/>
<path d="M172.594 257.119C172.54 257.209 172.48 257.278 172.414 257.326C172.354 257.368 172.279 257.389 172.189 257.389C172.087 257.389 171.967 257.338 171.829 257.236C171.691 257.134 171.517 257.023 171.307 256.903C171.103 256.777 170.854 256.663 170.56 256.561C170.272 256.459 169.921 256.408 169.507 256.408C169.117 256.408 168.772 256.462 168.472 256.57C168.178 256.672 167.929 256.813 167.725 256.993C167.527 257.173 167.377 257.386 167.275 257.632C167.173 257.872 167.122 258.133 167.122 258.415C167.122 258.775 167.209 259.075 167.383 259.315C167.563 259.549 167.797 259.75 168.085 259.918C168.379 260.086 168.709 260.233 169.075 260.359C169.447 260.479 169.825 260.605 170.209 260.737C170.599 260.869 170.977 261.019 171.343 261.187C171.715 261.349 172.045 261.556 172.333 261.808C172.627 262.06 172.861 262.369 173.035 262.735C173.215 263.101 173.305 263.551 173.305 264.085C173.305 264.649 173.209 265.18 173.017 265.678C172.825 266.17 172.543 266.599 172.171 266.965C171.805 267.331 171.352 267.619 170.812 267.829C170.278 268.039 169.669 268.144 168.985 268.144C168.145 268.144 167.383 267.994 166.699 267.694C166.015 267.388 165.43 266.977 164.944 266.461L165.448 265.633C165.496 265.567 165.553 265.513 165.619 265.471C165.691 265.423 165.769 265.399 165.853 265.399C165.931 265.399 166.018 265.432 166.114 265.498C166.216 265.558 166.33 265.636 166.456 265.732C166.582 265.828 166.726 265.933 166.888 266.047C167.05 266.161 167.233 266.266 167.437 266.362C167.647 266.458 167.884 266.539 168.148 266.605C168.412 266.665 168.709 266.695 169.039 266.695C169.453 266.695 169.822 266.638 170.146 266.524C170.47 266.41 170.743 266.251 170.965 266.047C171.193 265.837 171.367 265.588 171.487 265.3C171.607 265.012 171.667 264.691 171.667 264.337C171.667 263.947 171.577 263.629 171.397 263.383C171.223 263.131 170.992 262.921 170.704 262.753C170.416 262.585 170.086 262.444 169.714 262.33C169.342 262.21 168.964 262.09 168.58 261.97C168.196 261.844 167.818 261.7 167.446 261.538C167.074 261.376 166.744 261.166 166.456 260.908C166.168 260.65 165.934 260.329 165.754 259.945C165.58 259.555 165.493 259.075 165.493 258.505C165.493 258.049 165.58 257.608 165.754 257.182C165.934 256.756 166.192 256.378 166.528 256.048C166.87 255.718 167.287 255.454 167.779 255.256C168.277 255.058 168.847 254.959 169.489 254.959C170.209 254.959 170.863 255.073 171.451 255.301C172.045 255.529 172.567 255.859 173.017 256.291L172.594 257.119ZM181.684 260.503C181.636 260.569 181.588 260.62 181.54 260.656C181.492 260.692 181.426 260.71 181.342 260.71C181.252 260.71 181.153 260.674 181.045 260.602C180.937 260.524 180.802 260.44 180.64 260.35C180.484 260.26 180.289 260.179 180.055 260.107C179.827 260.029 179.545 259.99 179.209 259.99C178.759 259.99 178.363 260.071 178.021 260.233C177.679 260.389 177.391 260.617 177.157 260.917C176.929 261.217 176.755 261.58 176.635 262.006C176.521 262.432 176.464 262.909 176.464 263.437C176.464 263.989 176.527 264.481 176.653 264.913C176.779 265.339 176.956 265.699 177.184 265.993C177.418 266.281 177.697 266.503 178.021 266.659C178.351 266.809 178.72 266.884 179.128 266.884C179.518 266.884 179.839 266.839 180.091 266.749C180.343 266.653 180.55 266.548 180.712 266.434C180.88 266.32 181.018 266.218 181.126 266.128C181.24 266.032 181.351 265.984 181.459 265.984C181.591 265.984 181.693 266.035 181.765 266.137L182.215 266.722C182.017 266.968 181.792 267.178 181.54 267.352C181.288 267.526 181.015 267.673 180.721 267.793C180.433 267.907 180.13 267.991 179.812 268.045C179.494 268.099 179.17 268.126 178.84 268.126C178.27 268.126 177.739 268.021 177.247 267.811C176.761 267.601 176.338 267.298 175.978 266.902C175.618 266.5 175.336 266.008 175.132 265.426C174.928 264.844 174.826 264.181 174.826 263.437C174.826 262.759 174.919 262.132 175.105 261.556C175.297 260.98 175.573 260.485 175.933 260.071C176.299 259.651 176.746 259.324 177.274 259.09C177.808 258.856 178.42 258.739 179.11 258.739C179.752 258.739 180.316 258.844 180.802 259.054C181.294 259.258 181.729 259.549 182.107 259.927L181.684 260.503ZM188.876 263.896C188.138 263.92 187.508 263.98 186.986 264.076C186.47 264.166 186.047 264.286 185.717 264.436C185.393 264.586 185.156 264.763 185.006 264.967C184.862 265.171 184.79 265.399 184.79 265.651C184.79 265.891 184.829 266.098 184.907 266.272C184.985 266.446 185.09 266.59 185.222 266.704C185.36 266.812 185.519 266.893 185.699 266.947C185.885 266.995 186.083 267.019 186.293 267.019C186.575 267.019 186.833 266.992 187.067 266.938C187.301 266.878 187.52 266.794 187.724 266.686C187.934 266.578 188.132 266.449 188.318 266.299C188.51 266.149 188.696 265.978 188.876 265.786V263.896ZM183.701 260.17C184.205 259.684 184.748 259.321 185.33 259.081C185.912 258.841 186.557 258.721 187.265 258.721C187.775 258.721 188.228 258.805 188.624 258.973C189.02 259.141 189.353 259.375 189.623 259.675C189.893 259.975 190.097 260.338 190.235 260.764C190.373 261.19 190.442 261.658 190.442 262.168V268H189.731C189.575 268 189.455 267.976 189.371 267.928C189.287 267.874 189.221 267.772 189.173 267.622L188.993 266.758C188.753 266.98 188.519 267.178 188.291 267.352C188.063 267.52 187.823 267.664 187.571 267.784C187.319 267.898 187.049 267.985 186.761 268.045C186.479 268.111 186.164 268.144 185.816 268.144C185.462 268.144 185.129 268.096 184.817 268C184.505 267.898 184.232 267.748 183.998 267.55C183.77 267.352 183.587 267.103 183.449 266.803C183.317 266.497 183.251 266.137 183.251 265.723C183.251 265.363 183.35 265.018 183.548 264.688C183.746 264.352 184.067 264.055 184.511 263.797C184.955 263.539 185.534 263.329 186.248 263.167C186.962 262.999 187.838 262.903 188.876 262.879V262.168C188.876 261.46 188.723 260.926 188.417 260.566C188.111 260.2 187.664 260.017 187.076 260.017C186.68 260.017 186.347 260.068 186.077 260.17C185.813 260.266 185.582 260.377 185.384 260.503C185.192 260.623 185.024 260.734 184.88 260.836C184.742 260.932 184.604 260.98 184.466 260.98C184.358 260.98 184.265 260.953 184.187 260.899C184.109 260.839 184.043 260.767 183.989 260.683L183.701 260.17ZM194.394 260.206C194.592 259.984 194.802 259.783 195.024 259.603C195.246 259.423 195.48 259.27 195.726 259.144C195.978 259.012 196.242 258.913 196.518 258.847C196.8 258.775 197.103 258.739 197.427 258.739C197.925 258.739 198.363 258.823 198.741 258.991C199.125 259.153 199.443 259.387 199.695 259.693C199.953 259.993 200.148 260.356 200.28 260.782C200.412 261.208 200.478 261.679 200.478 262.195V268H198.867V262.195C198.867 261.505 198.708 260.971 198.39 260.593C198.078 260.209 197.601 260.017 196.959 260.017C196.485 260.017 196.041 260.131 195.627 260.359C195.219 260.587 194.841 260.896 194.493 261.286V268H192.882V258.883H193.845C194.073 258.883 194.214 258.994 194.268 259.216L194.394 260.206Z" fill="#383838"/>
<path d="M30.4184 31.82C30.4184 33.0733 30.2818 34.16 30.0084 35.08C29.7418 36 29.3718 36.7633 28.8984 37.37C28.4318 37.97 27.8784 38.4167 27.2384 38.71C26.6051 39.0033 25.9218 39.15 25.1884 39.15C24.4551 39.15 23.7684 39.0033 23.1284 38.71C22.4951 38.4167 21.9451 37.97 21.4784 37.37C21.0118 36.7633 20.6451 36 20.3784 35.08C20.1118 34.16 19.9784 33.0733 19.9784 31.82C19.9784 30.5667 20.1118 29.48 20.3784 28.56C20.6451 27.6333 21.0118 26.87 21.4784 26.27C21.9451 25.6633 22.4951 25.2133 23.1284 24.92C23.7684 24.6267 24.4551 24.48 25.1884 24.48C25.9218 24.48 26.6051 24.6267 27.2384 24.92C27.8784 25.2133 28.4318 25.6633 28.8984 26.27C29.3718 26.87 29.7418 27.6333 30.0084 28.56C30.2818 29.48 30.4184 30.5667 30.4184 31.82ZM28.3984 31.82C28.3984 30.74 28.3084 29.8367 28.1284 29.11C27.9551 28.3833 27.7184 27.8 27.4184 27.36C27.1251 26.9133 26.7851 26.5967 26.3984 26.41C26.0118 26.2233 25.6084 26.13 25.1884 26.13C24.7684 26.13 24.3651 26.2233 23.9784 26.41C23.5918 26.5967 23.2484 26.9133 22.9484 27.36C22.6551 27.8 22.4218 28.3833 22.2484 29.11C22.0751 29.8367 21.9884 30.74 21.9884 31.82C21.9884 32.9 22.0751 33.8033 22.2484 34.53C22.4218 35.2567 22.6551 35.84 22.9484 36.28C23.2484 36.72 23.5918 37.0333 23.9784 37.22C24.3651 37.4067 24.7684 37.5 25.1884 37.5C25.6084 37.5 26.0118 37.4067 26.3984 37.22C26.7851 37.0333 27.1251 36.72 27.4184 36.28C27.7184 35.84 27.9551 35.2567 28.1284 34.53C28.3084 33.8033 28.3984 32.9 28.3984 31.82ZM40.86 37.15C41.0733 37.15 41.24 37.2133 41.36 37.34C41.48 37.46 41.54 37.62 41.54 37.82V39H31.9V38.33C31.9 38.1967 31.9267 38.0567 31.98 37.91C32.0333 37.7567 32.1233 37.62 32.25 37.5L36.79 32.95C37.17 32.57 37.5133 32.2033 37.82 31.85C38.1267 31.4967 38.3867 31.1467 38.6 30.8C38.8133 30.4467 38.9767 30.0867 39.09 29.72C39.21 29.3533 39.27 28.9667 39.27 28.56C39.27 28.16 39.2067 27.81 39.08 27.51C38.9533 27.2033 38.78 26.95 38.56 26.75C38.34 26.55 38.08 26.4 37.78 26.3C37.48 26.2 37.1567 26.15 36.81 26.15C36.4633 26.15 36.1433 26.2 35.85 26.3C35.5633 26.4 35.3067 26.54 35.08 26.72C34.8533 26.9 34.6633 27.1133 34.51 27.36C34.3567 27.6067 34.2467 27.8733 34.18 28.16C34.0867 28.4133 33.9667 28.5833 33.82 28.67C33.68 28.7567 33.4733 28.7767 33.2 28.73L32.18 28.55C32.2733 27.8833 32.4567 27.2967 32.73 26.79C33.0033 26.2833 33.3467 25.86 33.76 25.52C34.1733 25.1733 34.6467 24.9133 35.18 24.74C35.72 24.5667 36.3 24.48 36.92 24.48C37.5467 24.48 38.1233 24.5733 38.65 24.76C39.1833 24.94 39.6433 25.2033 40.03 25.55C40.4167 25.8967 40.72 26.32 40.94 26.82C41.16 27.3133 41.27 27.8733 41.27 28.5C41.27 29.0333 41.19 29.53 41.03 29.99C40.8767 30.4433 40.6633 30.8767 40.39 31.29C40.1233 31.7033 39.81 32.1067 39.45 32.5C39.0967 32.8867 38.72 33.28 38.32 33.68L34.68 37.4C34.96 37.3267 35.24 37.2667 35.52 37.22C35.8067 37.1733 36.0767 37.15 36.33 37.15H40.86Z" fill="white"/>
<path d="M250.338 97.2471H117.869V229.716H250.338V97.2471Z" fill="#EB662B"/>
<path d="M131.115 110.487V136.411H157.039V110.487H131.115ZM152.111 131.484H136.042V115.415H152.111V131.484Z" fill="white"/>
<path d="M148.523 119.004H139.625V127.902H148.523V119.004Z" fill="white"/>
<path d="M131.115 190.287V216.211H157.039V190.287H131.115ZM152.111 211.283H136.042V195.214H152.111V211.283Z" fill="white"/>
<path d="M148.523 198.802H139.625V207.7H148.523V198.802Z" fill="white"/>
<path d="M211.166 190.008V215.919H237.09V190.008H211.166ZM232.162 210.992H216.093V194.924H232.162V210.992Z" fill="white"/>
<path d="M228.58 198.514H219.682V207.413H228.58V198.514Z" fill="white"/>
<path d="M171.146 150.52V176.444H197.057V150.52H171.146ZM192.142 171.517H176.06V155.448H192.142V171.517Z" fill="white"/>
<path d="M188.55 159.032H179.652V167.93H188.55V159.032Z" fill="white"/>
<path d="M237.09 110.494H169.518V119.004H237.09V110.494Z" fill="white"/>
<path d="M237.09 178.066V110.494H228.58V178.066H237.09Z" fill="white"/>
<path d="M205.284 209.587H164.334V215.922H205.284V209.587Z" fill="white"/>
<path d="M205.025 199.824H182.088V206.159H205.025V199.824Z" fill="white"/>
<path d="M136.039 140.719H131.115V180.892H136.039V140.719Z" fill="white"/>
<path d="M156.041 146.141H136.039V150.524H156.041V146.141Z" fill="white"/>
<path d="M156.041 161.972H136.039V167.932H156.041V161.972Z" fill="white"/>
<path d="M167.646 129.852H161.023V136.475H167.646V129.852Z" fill="white"/>
<path d="M169.518 119.004H162.895V125.627H169.518V119.004Z" fill="white"/>
<path d="M184.809 129.852H178.186V136.475H184.809V129.852Z" fill="white"/>
<path d="M156.041 150.523H149.418V157.146H156.041V150.523Z" fill="white"/>
<path d="M156.041 167.097H149.418V173.72H156.041V167.097Z" fill="white"/>
<path d="M149.418 174.268H142.795V180.891H149.418V174.268Z" fill="white"/>
<path d="M170.958 190.292H164.334V196.915H170.958V190.292Z" fill="white"/>
<path d="M205.285 190.004H198.662V196.627H205.285V190.004Z" fill="white"/>
<path d="M188.121 182.402H181.498V189.025H188.121V182.402Z" fill="white"/>
<path d="M191.863 193.316H185.24V199.939H191.863V193.316Z" fill="white"/>
<path d="M177.582 196.628H170.959V203.251H177.582V196.628Z" fill="white"/>
<path d="M167.646 174.754H161.023V181.377H167.646V174.754Z" fill="white"/>
<path d="M167.646 153.834H161.023V160.457H167.646V153.834Z" fill="white"/>
<path d="M174.269 136.477H167.646V143.1H174.269V136.477Z" fill="white"/>
<path d="M167.646 142.828H161.023V149.451H167.646V142.828Z" fill="white"/>
<path d="M228.58 178.066H221.957V184.689H228.58V178.066Z" fill="white"/>
<path d="M221.958 171.442H215.334V178.065H221.958V171.442Z" fill="white"/>
<path d="M215.334 164.894H208.711V171.517H215.334V164.894Z" fill="white"/>
<path d="M208.596 158.27H201.973V164.893H208.596V158.27Z" fill="white"/>
<path d="M208.596 131.775H201.973V138.398H208.596V131.775Z" fill="white"/>
<path d="M147.721 139.518H141.098V146.141H147.721V139.518Z" fill="white"/>
<path d="M142.662 153.618H136.039V160.241H142.662V153.618Z" fill="white"/>
<path d="M190.725 139.788H184.102V146.411H190.725V139.788Z" fill="white"/>
<path d="M203.973 139.788H197.35V146.411H203.973V139.788Z" fill="white"/>
<path d="M197.35 139.788H190.727V146.411H197.35V139.788Z" fill="white"/>
<path d="M195.35 118.529H188.727V125.152H195.35V118.529Z" fill="white"/>
<path d="M208.596 118.529H201.973V125.152H208.596V118.529Z" fill="white"/>
<path d="M221.844 118.529H215.221V125.152H221.844V118.529Z" fill="white"/>
<path d="M221.844 131.775H215.221V138.398H221.844V131.775Z" fill="white"/>
<path d="M221.844 145.022H215.221V151.645H221.844V145.022Z" fill="white"/>
<path d="M221.844 158.27H215.221V164.893H221.844V158.27Z" fill="white"/>
<path d="M208.709 171.517H202.086V178.14H208.709V171.517Z" fill="white"/>
<path d="M263.584 110.494V84H237.09" stroke="#1C1B1E" stroke-width="0.861" stroke-miterlimit="10" stroke-linecap="round" stroke-linejoin="round"/>
<path d="M263.584 216.469V242.963H237.09" stroke="#1C1B1E" stroke-width="0.861" stroke-miterlimit="10" stroke-linecap="round" stroke-linejoin="round"/>
<path d="M104.621 216.469V242.963H131.115" stroke="#1C1B1E" stroke-width="0.861" stroke-miterlimit="10" stroke-linecap="round" stroke-linejoin="round"/>
<path d="M104.621 110.494V84H131.115" stroke="#1C1B1E" stroke-width="0.861" stroke-miterlimit="10" stroke-linecap="round" stroke-linejoin="round"/>
<path d="M270.21 147.806H98V150.455H270.21V147.806Z" fill="#EA134B"/>
</svg>
