<svg width="17" height="21" viewBox="0 0 17 21" fill="none" xmlns="http://www.w3.org/2000/svg">
<path d="M15.9909 7.37568C15.8769 7.46404 13.8641 8.59706 13.8641 11.1164C13.8641 14.0304 16.4253 15.0613 16.502 15.0869C16.4902 15.1497 16.0951 16.4987 15.1516 17.8733C14.3103 19.0829 13.4317 20.2905 12.0951 20.2905C10.7585 20.2905 10.4145 19.5149 8.8715 19.5149C7.36781 19.5149 6.83317 20.316 5.61057 20.316C4.38796 20.316 3.53489 19.1968 2.55405 17.8222C1.41794 16.2081 0.5 13.7006 0.5 11.3206C0.5 7.50331 2.98452 5.4788 5.42973 5.4788C6.72899 5.4788 7.81204 6.33102 8.62776 6.33102C9.40418 6.33102 10.615 5.42775 12.0931 5.42775C12.6533 5.42775 14.6661 5.4788 15.9909 7.37568ZM11.3914 3.81168C12.0027 3.0871 12.4351 2.08171 12.4351 1.07633C12.4351 0.936913 12.4233 0.795532 12.3978 0.681641C11.4032 0.71895 10.2199 1.34339 9.50639 2.17008C8.94619 2.8063 8.42334 3.81168 8.42334 4.8308C8.42334 4.98397 8.44889 5.13713 8.46069 5.18622C8.52359 5.198 8.6258 5.21175 8.72801 5.21175C9.62039 5.21175 10.7428 4.6148 11.3914 3.81168Z" fill="black"/>
</svg>
