<svg width="13" height="10" viewBox="0 0 13 10" fill="none" xmlns="http://www.w3.org/2000/svg">
<path d="M10.3044 4.08323L6.55444 7.20823C6.50218 7.25193 6.44009 7.28661 6.37172 7.31027C6.30334 7.33393 6.23004 7.3461 6.156 7.3461C6.08197 7.3461 6.00867 7.33393 5.94029 7.31027C5.87192 7.28661 5.80983 7.25193 5.75757 7.20823L2.00757 4.08323C1.9019 3.99517 1.84253 3.87574 1.84253 3.7512C1.84253 3.62667 1.9019 3.50723 2.00757 3.41917C2.11324 3.33111 2.25656 3.28164 2.40601 3.28164C2.55545 3.28164 2.69877 3.33111 2.80444 3.41917L6.15647 6.21253L9.5085 3.41878C9.61418 3.33072 9.7575 3.28125 9.90694 3.28125C10.0564 3.28125 10.1997 3.33072 10.3054 3.41878C10.4111 3.50684 10.4704 3.62628 10.4704 3.75081C10.4704 3.87535 10.4111 3.99478 10.3054 4.08284L10.3044 4.08323Z" fill="#191919"/>
</svg>
