<svg width="17" height="17" viewBox="0 0 17 17" fill="none" xmlns="http://www.w3.org/2000/svg">
<path d="M16.4777 8.68301C16.4777 8.14089 16.4329 7.59583 16.3372 7.0625H8.66016V10.1336H13.0564C12.874 11.124 12.2878 12.0002 11.4295 12.557V14.5497H14.0523C15.5925 13.1607 16.4777 11.1094 16.4777 8.68301Z" fill="#4285F4"/>
<path d="M8.65999 16.4752C10.8551 16.4752 12.7063 15.769 14.0551 14.5499L11.4323 12.5573C10.7026 13.0437 9.76055 13.3192 8.66298 13.3192C6.53962 13.3192 4.73924 11.9155 4.09326 10.0283H1.38672V12.0825C2.7684 14.7756 5.58261 16.4752 8.65999 16.4752Z" fill="#34A853"/>
<path d="M4.09083 10.0286C3.7499 9.03811 3.7499 7.96559 4.09083 6.97511V4.9209H1.38728C0.232886 7.17438 0.232886 9.82932 1.38728 12.0828L4.09083 10.0286Z" fill="#FBBC04"/>
<path d="M8.65999 3.681C9.82036 3.66341 10.9419 4.09125 11.7822 4.8766L14.106 2.59968C12.6346 1.24583 10.6817 0.501508 8.65999 0.524951C5.58261 0.524951 2.7684 2.22459 1.38672 4.92056L4.09027 6.97477C4.73326 5.08466 6.53663 3.681 8.65999 3.681Z" fill="#EA4335"/>
</svg>
