<svg width="22" height="22" viewBox="0 0 22 22" fill="none" xmlns="http://www.w3.org/2000/svg">
<path d="M11 14.0002L8 11.0002M11 14.0002C12.3968 13.469 13.7369 12.799 15 12.0002M11 14.0002V19.0002C11 19.0002 14.03 18.4502 15 17.0002C16.08 15.3802 15 12.0002 15 12.0002M8 11.0002C8.53214 9.61968 9.2022 8.29631 10 7.05025C11.1652 5.18723 12.7876 3.6533 14.713 2.59434C16.6384 1.53538 18.8027 0.986619 21 1.00025C21 3.72025 20.22 8.50025 15 12.0002M8 11.0002L3 11.0003C3 11.0003 3.55 7.97026 5 7.00026C6.62 5.92026 10 7.00026 10 7.00026M3.5 15.5003C2 16.7603 1.5 20.5003 1.5 20.5003C1.5 20.5003 5.24 20.0003 6.5 18.5003C7.21 17.6603 7.2 16.3703 6.41 15.5903C6.02131 15.2193 5.50929 15.005 4.97223 14.9883C4.43516 14.9717 3.91088 15.1541 3.5 15.5003Z" stroke="#EB662B" stroke-width="2" stroke-linecap="round" stroke-linejoin="round"/>
</svg>
