<svg width="51" height="51" viewBox="0 0 51 51" fill="none" xmlns="http://www.w3.org/2000/svg">
<g clip-path="url(#clip0_1_4604)">
<g clip-path="url(#clip1_1_4604)">
<path fill-rule="evenodd" clip-rule="evenodd" d="M23.9797 46.4066C24.2669 46.8639 24.7698 47.1427 25.3107 47.1427C25.8515 47.1427 26.3544 46.8639 26.6417 46.4066C30.8954 39.6243 44.0497 18.6496 47.069 13.8355C47.4374 13.2475 47.3769 12.4873 46.9191 11.9646C45.1878 9.98857 41.0346 5.2461 39.6349 3.64775C39.3362 3.30832 38.9053 3.1123 38.4526 3.1123C34.5745 3.1123 16.0468 3.1123 12.1687 3.1123C11.7161 3.1123 11.2851 3.30832 10.9865 3.64775C9.58667 5.2461 5.43349 9.98857 3.70223 11.9646C3.24452 12.4873 3.18397 13.2475 3.5524 13.8355C6.57158 18.6496 19.7259 39.6243 23.9797 46.4066Z" fill="#FDF0EA"/>
<path fill-rule="evenodd" clip-rule="evenodd" d="M3.37988 12.8589H47.2613C47.1973 12.6493 47.0894 12.4512 46.9384 12.2783C45.2067 10.3024 41.0504 5.55901 39.65 3.96044C39.3523 3.61976 38.9204 3.4248 38.4676 3.4248C34.5891 3.4248 16.0521 3.4248 12.1736 3.4248C11.7207 3.4248 11.2889 3.61976 10.9912 3.96044C9.5907 5.55901 5.43442 10.3024 3.70274 12.2783C3.5518 12.4512 3.44382 12.6493 3.37988 12.8589Z" fill="white"/>
<path fill-rule="evenodd" clip-rule="evenodd" d="M19.0311 12.8589L25.3206 3.4248H12.1735C12.0236 3.4248 11.8759 3.44577 11.7344 3.4877L19.0311 12.8589ZM25.3206 3.4248L31.61 12.8589L38.9067 3.4877C38.7653 3.44577 38.6175 3.4248 38.4676 3.4248H25.3206Z" fill="#FDF0EA"/>
<path fill-rule="evenodd" clip-rule="evenodd" d="M31.6101 12.8589H19.0312L25.3207 3.4248L31.6101 12.8589Z" fill="white"/>
<path fill-rule="evenodd" clip-rule="evenodd" d="M25.3207 47.4629L19.0312 12.8584H31.6101L25.3207 47.4629Z" fill="white"/>
<path fill-rule="evenodd" clip-rule="evenodd" d="M12.7399 41.1924L13.9811 43.0967L15.8853 44.3377L13.9811 45.5778L12.7399 47.482L11.4999 45.5778L9.5957 44.3377L11.4999 43.0967L12.7399 41.1924Z" fill="#FDF0EA"/>
<path fill-rule="evenodd" clip-rule="evenodd" d="M6.45382 28.6201L7.69497 30.5244L9.59917 31.7655L7.69497 33.0055L6.45382 34.9097L5.21377 33.0055L3.30957 31.7655L5.21377 30.5244L6.45382 28.6201Z" fill="#FDF0EA"/>
<path fill-rule="evenodd" clip-rule="evenodd" d="M43.1228 33.8584L44.3639 35.7626L46.2681 37.0038L44.3639 38.2438L43.1228 40.148L41.8827 38.2438L39.9785 37.0038L41.8827 35.7626L43.1228 33.8584Z" fill="#FDF0EA"/>
<path d="M19.5531 40.4822C20.1321 40.4822 20.6014 40.0129 20.6014 39.434C20.6014 38.855 20.1321 38.3857 19.5531 38.3857C18.9742 38.3857 18.5049 38.855 18.5049 39.434C18.5049 40.0129 18.9742 40.4822 19.5531 40.4822Z" fill="#EB662B"/>
<path fill-rule="evenodd" clip-rule="evenodd" d="M4.63798 13.9066H18.1634L24.0618 44.8705L22.2211 41.9365C21.914 41.4459 21.2662 41.2982 20.7767 41.6053C20.286 41.9124 20.1383 42.5602 20.4455 43.0497C20.4455 43.0497 22.4183 46.1955 23.1006 47.2835C23.5797 48.0478 24.4182 48.511 25.3208 48.511C26.2233 48.511 27.0619 48.0478 27.5409 47.2835L47.9764 14.7064C48.5917 13.7263 48.49 12.4579 47.7269 11.5869C45.9952 9.6109 41.84 4.86762 40.4395 3.26906C39.9416 2.70196 39.2236 2.37598 38.4678 2.37598H12.1738C11.4179 2.37598 10.6999 2.70196 10.202 3.26906C8.80159 4.86762 4.64637 9.6109 2.91467 11.5869C2.15156 12.4579 2.04988 13.7263 2.66519 14.7064L16.9789 37.5245C17.287 38.015 17.9339 38.1628 18.4244 37.8557C18.9139 37.5485 19.0628 36.9008 18.7556 36.4113L4.63798 13.9066ZM45.1356 11.8102L39.1093 4.93263L33.7549 11.8102H41.0444C41.623 11.8102 42.0926 12.2798 42.0926 12.8584C42.0926 13.437 41.623 13.9066 41.0444 13.9066H32.4781L26.5797 44.8705L46.0036 13.9066H44.189C43.6105 13.9066 43.1409 13.437 43.1409 12.8584C43.1409 12.2798 43.6105 11.8102 44.189 11.8102H45.1356ZM30.3439 13.9066H20.2976L25.3208 40.2761L30.3439 13.9066ZM5.50592 11.8102H16.8866L11.5322 4.93263L5.50592 11.8102ZM20.9905 11.8102H29.651L25.3208 5.3142L20.9905 11.8102ZM36.8105 4.47245H27.2799L31.6763 11.0669L36.8105 4.47245ZM23.3616 4.47245H13.8311L18.9653 11.0669L23.3616 4.47245Z" fill="#EB662B"/>
<path fill-rule="evenodd" clip-rule="evenodd" d="M13.6175 40.6201C13.4245 40.3233 13.0946 40.1445 12.7393 40.1445C12.3852 40.1445 12.0554 40.3233 11.8611 40.6201L10.7414 42.3389L9.0225 43.4599C8.72573 43.6529 8.5459 43.9828 8.5459 44.338C8.5459 44.6922 8.72573 45.022 9.0225 45.2162L10.7414 46.336L11.8611 48.0549C12.0554 48.3516 12.3852 48.5314 12.7393 48.5314C13.0946 48.5314 13.4245 48.3516 13.6175 48.0549L14.7384 46.336L16.4573 45.2162C16.7541 45.022 16.9327 44.6922 16.9327 44.338C16.9327 43.9828 16.7541 43.6529 16.4573 43.4599L14.7384 42.3389L13.6175 40.6201ZM12.7393 43.1123L13.1023 43.6695C13.1818 43.7908 13.2866 43.8956 13.4079 43.975L13.9651 44.338L13.4079 44.6998C13.2866 44.7793 13.1818 44.8841 13.1023 45.0066L12.7393 45.5626L12.3774 45.0066C12.2981 44.8841 12.1933 44.7793 12.0707 44.6998L11.5147 44.338L12.0707 43.975C12.1933 43.8956 12.2981 43.7908 12.3774 43.6695L12.7393 43.1123Z" fill="#EB662B"/>
<path fill-rule="evenodd" clip-rule="evenodd" d="M7.33137 28.0478C7.13831 27.751 6.80844 27.5723 6.45319 27.5723C6.09906 27.5723 5.76919 27.751 5.57501 28.0478L4.45522 29.7666L2.73637 30.8876C2.43959 31.0806 2.25977 31.4105 2.25977 31.7658C2.25977 32.1199 2.43959 32.4497 2.73637 32.6439L4.45522 33.7637L5.57501 35.4826C5.76919 35.7793 6.09906 35.9592 6.45319 35.9592C6.80844 35.9592 7.13831 35.7793 7.33137 35.4826L8.45227 33.7637L10.1711 32.6439C10.468 32.4497 10.6466 32.1199 10.6466 31.7658C10.6466 31.4105 10.468 31.0806 10.1711 30.8876L8.45227 29.7666L7.33137 28.0478ZM6.45319 30.54L6.81616 31.0972C6.8956 31.2185 7.0004 31.3233 7.12176 31.4028L7.6789 31.7658L7.12176 32.1276C7.0004 32.207 6.8956 32.3118 6.81616 32.4343L6.45319 32.9903L6.09134 32.4343C6.0119 32.3118 5.90709 32.207 5.78463 32.1276L5.22859 31.7658L5.78463 31.4028C5.90709 31.3233 6.0119 31.2185 6.09134 31.0972L6.45319 30.54Z" fill="#EB662B"/>
<path fill-rule="evenodd" clip-rule="evenodd" d="M44.0004 33.2851C43.8073 32.9883 43.4774 32.8096 43.1221 32.8096C42.768 32.8096 42.4382 32.9883 42.2439 33.2851L41.1242 35.0039L39.4054 36.1248C39.1085 36.3179 38.9287 36.6478 38.9287 37.0031C38.9287 37.3572 39.1085 37.687 39.4054 37.8812L41.1242 39.001L42.2439 40.7198C42.4382 41.0167 42.768 41.1965 43.1221 41.1965C43.4774 41.1965 43.8073 41.0167 44.0004 40.7198L45.1213 39.001L46.8401 37.8812C47.1369 37.687 47.3156 37.3572 47.3156 37.0031C47.3156 36.6478 47.1369 36.3179 46.8401 36.1248L45.1213 35.0039L44.0004 33.2851ZM43.1221 35.7773L43.4851 36.3344C43.5646 36.4558 43.6694 36.5606 43.7908 36.6401L44.3479 37.0031L43.7908 37.3649C43.6694 37.4443 43.5646 37.5491 43.4851 37.6716L43.1221 38.2277L42.7603 37.6716C42.6809 37.5491 42.5761 37.4443 42.4536 37.3649L41.8975 37.0031L42.4536 36.6401C42.5761 36.5606 42.6809 36.4558 42.7603 36.3344L43.1221 35.7773Z" fill="#EB662B"/>
</g>
</g>
<defs>
<clipPath id="clip0_1_4604">
<rect width="50.2903" height="50.2903" fill="white" transform="translate(0.163086 0.128906)"/>
</clipPath>
<clipPath id="clip1_1_4604">
<rect width="50.2903" height="50.2903" fill="white" transform="translate(0.163086 0.128906)"/>
</clipPath>
</defs>
</svg>
