<svg width="52" height="51" viewBox="0 0 52 51" fill="none" xmlns="http://www.w3.org/2000/svg">
<g clip-path="url(#clip0_1_4588)">
<g clip-path="url(#clip1_1_4588)">
<path fill-rule="evenodd" clip-rule="evenodd" d="M26.178 3.38672C18.6516 3.38672 12.5508 9.48749 12.5508 17.0139C12.5582 21.7728 15.0435 26.1482 19.0447 28.6042C19.6861 28.9984 20.3602 29.8579 20.508 30.5958L20.878 32.4481C21.0332 33.2228 21.7198 33.7857 22.5091 33.7857H29.8468C30.6361 33.7857 31.3227 33.2228 31.4778 32.4481L31.8478 30.5958C31.9956 29.8579 32.6697 28.9984 33.3112 28.6053C37.3123 26.1482 39.7977 21.7728 39.805 17.0139C39.805 9.48749 33.7043 3.38672 26.178 3.38672Z" fill="#FDF0EA"/>
<path fill-rule="evenodd" clip-rule="evenodd" d="M20.8027 40.3164L31.5451 40.3709L30.63 45.8616C30.4811 46.7537 29.7023 47.413 28.7986 47.413H23.5575C22.6539 47.413 21.875 46.7537 21.7261 45.8616L20.8027 40.3164Z" fill="white"/>
<path fill-rule="evenodd" clip-rule="evenodd" d="M20.4126 37.9785H31.9431C32.2209 37.9785 32.4883 38.0886 32.6842 38.2856C32.8813 38.4817 32.9914 38.749 32.9914 39.0267V40.0749C32.9914 40.6504 32.5186 41.1232 31.9431 41.1232H20.4126C20.1347 41.1232 19.8674 41.0131 19.6714 40.8161C19.4743 40.62 19.3643 40.3527 19.3643 40.0749V39.0267C19.3643 38.4512 19.8371 37.9785 20.4126 37.9785Z" fill="#FDF0EA"/>
<path fill-rule="evenodd" clip-rule="evenodd" d="M26.178 3.38672C23.5731 3.38672 21.4609 9.48749 21.4609 17.0139C21.463 21.7728 22.3236 26.1482 23.7093 28.6042C23.9305 28.9984 24.1643 29.8579 24.2157 30.5958L24.3436 32.4481C24.3971 33.2228 24.6349 33.7857 24.9075 33.7857H27.4484C27.721 33.7857 27.9589 33.2228 28.0124 32.4481L28.1402 30.5958C28.1916 29.8579 28.4254 28.9984 28.6466 28.6053C30.0323 26.1482 30.893 21.7728 30.8951 17.0139C30.8951 9.48749 28.7829 3.38672 26.178 3.38672Z" fill="white"/>
<path fill-rule="evenodd" clip-rule="evenodd" d="M10.5998 32.4903C10.0295 31.9903 9.29361 31.6895 8.48961 31.6895C6.68035 31.6895 5.21387 33.2147 5.21387 35.0962C5.21387 36.9778 6.68035 38.503 8.48961 38.503H13.0756C14.5232 38.503 15.6963 37.2828 15.6963 35.7776C15.6963 34.2723 14.5232 33.0522 13.0756 33.0522C12.5159 33.0522 11.996 33.2345 11.5704 33.5459L10.5998 32.4903Z" fill="#FDF0EA"/>
<path fill-rule="evenodd" clip-rule="evenodd" d="M44.4197 25.384C44.8191 25.0339 45.3348 24.8232 45.8977 24.8232C47.1641 24.8232 48.1902 25.8914 48.1902 27.2079C48.1902 28.5245 47.1641 29.5927 45.8977 29.5927H42.687C41.6744 29.5927 40.8525 28.7383 40.8525 27.6849C40.8525 26.6314 41.6744 25.7771 42.687 25.7771C43.0791 25.7771 43.4427 25.905 43.7405 26.123L44.4197 25.384Z" fill="white"/>
<path fill-rule="evenodd" clip-rule="evenodd" d="M20.044 42.1394L20.6929 46.0347C20.9256 47.4289 22.1436 48.4614 23.5577 48.4614H28.7989C30.2129 48.4614 31.4311 47.4289 31.6637 46.0347L32.3126 42.1384C33.2895 41.9623 34.0401 41.0996 34.0401 40.0754V39.0272C34.0401 38.4717 33.8189 37.9381 33.4258 37.545C33.0327 37.1519 32.4991 36.9308 31.9436 36.9308H31.4195V34.329C31.9667 33.9391 32.3671 33.3489 32.5055 32.6539L32.8766 30.8017C32.974 30.3143 33.4363 29.7587 33.8598 29.4987C38.1691 26.853 40.8463 22.1412 40.8536 17.0163V17.0142C40.8536 8.90919 34.2833 2.33887 26.1783 2.33887C18.0733 2.33887 11.5029 8.90919 11.5029 17.0142V17.0152C11.504 17.4911 11.5271 17.9619 11.5732 18.4293C11.6298 19.0048 12.1424 19.4262 12.7189 19.3696C13.2944 19.313 13.7158 18.8005 13.6592 18.2239C13.6204 17.8245 13.6005 17.4209 13.5994 17.0131C13.5994 11.2395 17.4894 6.37564 22.7914 4.89657C21.3868 7.42073 20.413 11.8988 20.413 17.0142V17.0152C20.4161 21.9881 21.3491 26.5532 22.7956 29.1203C22.9686 29.4254 23.1301 30.0962 23.1699 30.6686L23.2978 32.5208C23.303 32.5953 23.3103 32.6676 23.3176 32.7378H22.5095C22.217 32.7378 21.9633 32.5302 21.9067 32.2431L21.5367 30.3908C21.3385 29.4023 20.4528 28.2398 19.5933 27.7115C17.8585 26.6465 16.4318 25.1894 15.4066 23.4892C15.1078 22.9933 14.4621 22.8341 13.9673 23.1328C13.4715 23.4315 13.3122 24.0762 13.6109 24.572C14.807 26.5553 16.4716 28.2555 18.4968 29.4987C18.9202 29.7587 19.3826 30.3143 19.4801 30.8017L19.8511 32.6539C19.9895 33.3489 20.3899 33.9391 20.9371 34.329V36.9308H20.413C19.2631 36.9308 18.3165 37.8773 18.3165 39.0272V40.0754C18.3165 40.6311 18.5377 41.1646 18.9308 41.5577C19.2358 41.8627 19.6247 42.064 20.044 42.1394ZM30.1826 42.172H29.8125C29.234 42.172 28.7643 41.7023 28.7643 41.1237C28.7643 40.5451 29.234 40.0754 29.8125 40.0754H31.9436V39.1111C31.8765 39.0943 31.7812 39.0272 31.9436 39.0272H20.413V39.9916C20.4801 40.0084 20.5755 40.0754 20.413 40.0754H26.4445C27.0221 40.0754 27.4928 40.5451 27.4928 41.1237C27.4928 41.7023 27.0221 42.172 26.4445 42.172H22.174L22.761 45.6899C22.825 46.0777 23.1646 46.3649 23.5577 46.3649H28.7989C29.192 46.3649 29.5316 46.0777 29.5955 45.6899L30.1826 42.172ZM25.1301 36.9308V34.8343H23.0336V36.9308H25.1301ZM29.3231 36.9308V34.8343H27.2265V36.9308H29.3231ZM26.1783 4.43534C26.4519 4.43534 26.6961 4.60097 26.9425 4.83787C27.3345 5.21419 27.6899 5.77184 28.0158 6.46369C29.1396 8.84213 29.8472 12.6839 29.8472 17.0142C29.8451 21.5594 29.0568 25.744 27.7339 28.0899C27.4624 28.5731 27.1574 29.6192 27.0955 30.5239L26.9665 32.3762C26.9592 32.4915 26.9351 32.6225 26.909 32.7378H25.4477C25.4214 32.6225 25.3974 32.4915 25.39 32.3762L25.2611 30.5239C25.1992 29.6192 24.8942 28.5731 24.6228 28.0899C23.2999 25.744 22.5116 21.5594 22.5095 17.0142C22.5095 12.6839 23.2171 8.84213 24.3407 6.46369C24.6668 5.77184 25.0221 5.21419 25.4142 4.83787C25.6605 4.60097 25.9047 4.43534 26.1783 4.43534ZM29.5652 4.89657C30.9698 7.42073 31.9436 11.8988 31.9436 17.0142V17.0152C31.9415 21.9881 31.0075 26.5532 29.5609 29.1203C29.388 29.4254 29.2266 30.0962 29.1868 30.6686L29.0589 32.5208C29.0536 32.5953 29.0463 32.6676 29.0389 32.7378H29.8472C30.1396 32.7378 30.3932 32.5302 30.4499 32.2431L30.8199 30.3908C31.018 29.4023 31.9038 28.2398 32.7623 27.7115C36.4563 25.4441 38.7498 21.4063 38.7572 17.0131C38.7572 11.2405 34.8671 6.37564 29.5652 4.89657Z" fill="#EB662B"/>
<path fill-rule="evenodd" clip-rule="evenodd" d="M11.3717 31.7811C11.3455 31.7528 11.3192 31.7266 11.291 31.7014C10.5341 31.0389 9.55613 30.6406 8.48902 30.6406C6.11267 30.6406 4.16504 32.6239 4.16504 35.0956C4.16504 37.5674 6.11267 39.5506 8.48902 39.5506H13.075C15.0897 39.5506 16.7439 37.8724 16.7439 35.7769C16.7439 33.6815 15.0897 32.0033 13.075 32.0033C12.6243 32.0033 12.1924 32.0871 11.793 32.2402L11.3717 31.7811ZM9.86952 33.2444L10.7983 34.2549C11.1589 34.648 11.7574 34.7067 12.1882 34.3923C12.4399 34.2088 12.7449 34.0998 13.075 34.0998C13.9556 34.0998 14.6474 34.8618 14.6474 35.7769C14.6474 36.6921 13.9556 37.4541 13.075 37.4541H8.48902C7.24686 37.4541 6.26152 36.3871 6.26152 35.0956C6.26152 33.8042 7.24686 32.7371 8.48902 32.7371C9.00999 32.7371 9.48907 32.9268 9.86642 33.2423L9.86952 33.2444Z" fill="#EB662B"/>
<path fill-rule="evenodd" clip-rule="evenodd" d="M43.7302 24.5962L43.4923 24.8457C43.2376 24.7702 42.9672 24.7293 42.6883 24.7293C41.1076 24.7293 39.8057 26.0417 39.8057 27.6854C39.8057 29.329 41.1076 30.6414 42.6883 30.6414H45.8991C47.7324 30.6414 49.2398 29.1151 49.2398 27.2085C49.2398 25.3017 47.7324 23.7754 45.8991 23.7754C45.0731 23.7754 44.3152 24.0826 43.7302 24.5962ZM45.1517 26.1392C45.3581 25.9726 45.617 25.8719 45.8991 25.8719C46.5972 25.8719 47.1434 26.4809 47.1434 27.2085C47.1434 27.9359 46.5972 28.5449 45.8991 28.5449H42.6883C42.2428 28.5449 41.9021 28.1487 41.9021 27.6854C41.9021 27.222 42.2428 26.8258 42.6883 26.8258C42.8507 26.8258 43.0007 26.8792 43.1233 26.9694C43.5541 27.2849 44.1527 27.2252 44.5143 26.8331L45.1485 26.1413L45.1517 26.1392Z" fill="#EB662B"/>
<path d="M13.2157 22.2224C13.7949 22.2224 14.2644 21.7528 14.2644 21.1736C14.2644 20.5945 13.7949 20.125 13.2157 20.125C12.6365 20.125 12.167 20.5945 12.167 21.1736C12.167 21.7528 12.6365 22.2224 13.2157 22.2224Z" fill="#EB662B"/>
</g>
</g>
<defs>
<clipPath id="clip0_1_4588">
<rect width="50.2903" height="50.2903" fill="white" transform="translate(0.982422 0.128906)"/>
</clipPath>
<clipPath id="clip1_1_4588">
<rect width="50.2903" height="50.2903" fill="white" transform="translate(0.982422 0.128906)"/>
</clipPath>
</defs>
</svg>
