<svg width="52" height="51" viewBox="0 0 52 51" fill="none" xmlns="http://www.w3.org/2000/svg">
<g clip-path="url(#clip0_1_4578)">
<g clip-path="url(#clip1_1_4578)">
<path fill-rule="evenodd" clip-rule="evenodd" d="M48.0495 26.2644C48.0495 26.9469 47.6082 27.5517 46.9583 27.7603C45.4625 28.2058 44.3806 29.5978 44.3806 31.2405C44.3806 32.883 45.4625 34.2751 46.9509 34.7415C47.5914 34.948 48.0264 35.5435 48.0264 36.2164C48.0495 36.9324 48.0495 37.8244 48.0495 38.5781C48.0495 39.446 47.3451 40.1505 46.4771 40.1505C39.6289 40.1505 12.4439 40.1505 5.5958 40.1505C4.72785 40.1505 4.02344 39.446 4.02344 38.5781C4.02344 37.8244 4.02344 36.9324 4.02344 36.2164C4.02344 35.534 4.46474 34.9292 5.11465 34.7206C6.61049 34.2751 7.69228 32.883 7.69228 31.2405C7.69228 29.5978 6.6105 28.2058 5.122 27.7393C4.48152 27.5328 4.0465 26.9374 4.0465 26.2644C4.02344 25.7613 4.02344 25.189 4.02344 24.6858C4.02344 24.0034 4.46474 23.3985 5.11465 23.19C6.61049 22.7444 7.69228 21.3524 7.69228 19.7098C7.69228 18.0672 6.6105 16.6751 5.122 16.2087C4.48152 16.0022 4.0465 15.4067 4.0465 14.7338C4.02344 14.0179 4.02344 13.1258 4.02344 12.3721C4.02344 11.5042 4.72785 10.7998 5.5958 10.7998H46.4771C47.3451 10.7998 48.0495 11.5042 48.0495 12.3721V14.7338C48.0495 15.4162 47.6082 16.021 46.9583 16.2297C45.4625 16.6751 44.3806 18.0672 44.3806 19.7098C44.3806 21.3524 45.4625 22.7444 46.9509 23.211C47.5914 23.4174 48.0264 24.0128 48.0264 24.6858C48.0495 25.189 48.0495 25.7613 48.0495 26.2644Z" fill="#FDF0EA"/>
<path fill-rule="evenodd" clip-rule="evenodd" d="M27.7629 19.9226C28.0522 19.4778 28.5476 19.21 29.0782 19.21C29.609 19.21 30.1042 19.4778 30.3936 19.9226C30.6729 20.3485 30.942 20.7616 31.1416 21.0673C31.3526 21.3895 31.6748 21.6233 32.0463 21.7244C32.3988 21.8192 32.8739 21.9481 33.3655 22.082C33.8784 22.2198 34.2853 22.6077 34.4496 23.1131C34.6139 23.6172 34.5115 24.1706 34.1792 24.5838C33.8595 24.9805 33.55 25.3647 33.3212 25.649C33.0799 25.9484 32.9573 26.3275 32.9763 26.7129C32.994 27.0768 33.018 27.5696 33.0432 28.0776C33.0698 28.6082 32.8272 29.1149 32.3976 29.427C31.9693 29.7391 31.4107 29.8137 30.9154 29.6241C30.4391 29.4435 29.9778 29.2678 29.638 29.1376C29.2766 29.0012 28.8798 29.0012 28.5185 29.1376C28.1786 29.2678 27.7174 29.4435 27.241 29.6241C26.7458 29.8137 26.1873 29.7391 25.7589 29.427C25.3293 29.1149 25.0867 28.6082 25.1133 28.0776C25.1385 27.5696 25.1625 27.0768 25.1802 26.7129C25.1992 26.3275 25.0766 25.9484 24.8352 25.649C24.6066 25.3647 24.297 24.9805 23.9773 24.5838C23.645 24.1706 23.5426 23.6172 23.7069 23.1131C23.8712 22.6077 24.278 22.2198 24.7911 22.082C25.2826 21.9481 25.7576 21.8192 26.1102 21.7244C26.4817 21.6233 26.8039 21.3895 27.0149 21.0673C27.2146 20.7616 27.4836 20.3485 27.7629 19.9226Z" fill="white"/>
<path fill-rule="evenodd" clip-rule="evenodd" d="M19.7484 39.1026C20.327 39.1026 20.7966 39.5722 20.7966 40.1509C20.7966 40.7294 20.327 41.1991 19.7484 41.1991C19.1698 41.1991 18.7002 40.7294 18.7002 40.1509C18.7002 39.5722 19.1698 39.1026 19.7484 39.1026ZM44.9061 11.8484H46.4784C46.7678 11.8484 47.0026 12.0832 47.0026 12.3725V14.7342C47.0026 14.9543 46.8643 15.1504 46.6588 15.2258C44.7289 15.8044 43.3338 17.5948 43.3338 19.7102C43.3338 21.8213 44.7248 23.6107 46.6389 24.2113C46.8391 24.2763 46.9795 24.4692 46.9795 24.6862C46.9795 24.7029 46.9795 24.7187 46.9806 24.7344C47.0026 25.2218 47.0026 25.7774 47.0026 26.2648C47.0026 26.485 46.8643 26.6809 46.6588 26.7565C44.7289 27.335 43.3338 29.1255 43.3338 31.2408C43.3338 33.3519 44.7248 35.1413 46.6389 35.742C46.8391 35.8069 46.9795 35.9998 46.9795 36.2168V36.2514C47.0026 36.9568 47.0026 37.8352 47.0026 38.5784C47.0026 38.8678 46.7678 39.1026 46.4784 39.1026H22.8931C22.3144 39.1026 21.8449 39.5722 21.8449 40.1509C21.8449 40.7294 22.3144 41.1991 22.8931 41.1991H46.4784C47.9261 41.1991 49.0991 40.0261 49.0991 38.5784C49.0991 37.8175 49.0991 36.917 49.076 36.1917C49.0676 35.0773 48.3412 34.0879 47.273 33.744C47.2709 33.744 47.2688 33.743 47.2667 33.7419C46.2028 33.4085 45.4302 32.4138 45.4302 31.2408C45.4302 30.0741 46.1955 29.0825 47.2584 28.7659C47.2657 28.7638 47.273 28.7617 47.2804 28.7586C48.3642 28.4106 49.0991 27.4032 49.0991 26.2648C49.0991 25.7543 49.0991 25.1736 49.076 24.661C49.0644 23.5436 48.3391 22.5561 47.273 22.2134C47.2709 22.2134 47.2688 22.2123 47.2667 22.2113C46.2028 21.878 45.4302 20.8831 45.4302 19.7102C45.4302 18.5435 46.1955 17.5519 47.2584 17.2353C47.2657 17.2332 47.273 17.231 47.2804 17.2279C48.3642 16.8799 49.0991 15.8725 49.0991 14.7342V12.3725C49.0991 10.9249 47.9261 9.75195 46.4784 9.75195H44.9061C44.3275 9.75195 43.8579 10.2215 43.8579 10.8002C43.8579 11.3788 44.3275 11.8484 44.9061 11.8484ZM15.5554 39.1026V36.4736C15.5554 35.895 15.0858 35.4254 14.5072 35.4254C13.9285 35.4254 13.459 35.895 13.459 36.4736V39.1026H5.59716C5.30785 39.1026 5.07304 38.8678 5.07304 38.5784V36.2168C5.07304 35.9967 5.21141 35.8007 5.41687 35.7252C7.34667 35.1466 8.74188 33.3561 8.74188 31.2408C8.74188 29.1297 7.35086 27.3403 5.43678 26.7397C5.23657 26.6746 5.09611 26.4818 5.09611 26.2648C5.09611 26.248 5.0961 26.2323 5.09505 26.2166C5.07303 25.7292 5.07304 25.1736 5.07304 24.6862C5.07304 24.4661 5.21141 24.27 5.41687 24.1946C7.34667 23.6159 8.74188 21.8256 8.74188 19.7102C8.74188 17.599 7.35086 15.8097 5.43678 15.209C5.23657 15.1441 5.09611 14.9511 5.09611 14.7342C5.09611 14.7226 5.09611 14.7112 5.09611 14.6996C5.07304 13.9941 5.07304 13.1157 5.07304 12.3725C5.07304 12.0832 5.30785 11.8484 5.59716 11.8484H13.459V15.5089C13.459 16.0874 13.9285 16.5571 14.5072 16.5571C15.0858 16.5571 15.5554 16.0874 15.5554 15.5089V11.8484H41.7614C42.34 11.8484 42.8097 11.3788 42.8097 10.8002C42.8097 10.2215 42.34 9.75195 41.7614 9.75195C41.7614 9.75195 11.3206 9.75195 5.59716 9.75195C4.14954 9.75195 2.97656 10.9249 2.97656 12.3725C2.97656 13.1336 2.97656 14.034 2.99963 14.7594C3.00801 15.8736 3.73445 16.8632 4.8026 17.207C4.80469 17.207 4.80679 17.2081 4.80888 17.2091C5.87285 17.5424 6.6454 18.5372 6.6454 19.7102C6.6454 20.8768 5.88018 21.8685 4.81726 22.1851C4.80993 22.1872 4.8026 22.1893 4.79525 22.1924C3.71138 22.5404 2.97656 23.5478 2.97656 24.6862C2.97656 25.1967 2.97656 25.7774 2.99963 26.29C3.01115 27.4074 3.73654 28.3948 4.8026 28.7376C4.80469 28.7376 4.80679 28.7386 4.80888 28.7397C5.87285 29.0731 6.6454 30.0678 6.6454 31.2408C6.6454 32.4075 5.88018 33.3991 4.81726 33.7157C4.80993 33.7178 4.8026 33.7199 4.79525 33.7231C3.71138 34.0711 2.97656 35.0784 2.97656 36.2168V38.5784C2.97656 40.0261 4.14954 41.1991 5.59716 41.1991H16.6036C17.1823 41.1991 17.6519 40.7294 17.6519 40.1509C17.6519 39.5722 17.1823 39.1026 16.6036 39.1026H15.5554ZM13.459 28.0877V32.2807C13.459 32.8593 13.9285 33.3289 14.5072 33.3289C15.0858 33.3289 15.5554 32.8593 15.5554 32.2807V28.0877C15.5554 27.509 15.0858 27.0395 14.5072 27.0395C13.9285 27.0395 13.459 27.509 13.459 28.0877ZM13.459 19.7018V23.8948C13.459 24.4734 13.9285 24.943 14.5072 24.943C15.0858 24.943 15.5554 24.4734 15.5554 23.8948V19.7018C15.5554 19.1231 15.0858 18.6536 14.5072 18.6536C13.9285 18.6536 13.459 19.1231 13.459 19.7018Z" fill="#EB662B"/>
<path fill-rule="evenodd" clip-rule="evenodd" d="M26.9732 19.5475L26.2248 20.6928C26.154 20.8003 26.0466 20.8786 25.9227 20.9115L24.6029 21.2693C23.7483 21.5006 23.0694 22.1479 22.7951 22.9898C22.522 23.8305 22.6914 24.7533 23.2464 25.4423L24.1048 26.5081C24.1857 26.6079 24.2262 26.7343 24.2198 26.862L24.1516 28.2286C24.1086 29.1122 24.5131 29.9592 25.2287 30.4788C25.9455 30.9984 26.8746 31.1223 27.7014 30.8075L28.9795 30.3207C29.1009 30.2752 29.2323 30.2752 29.3524 30.3207L30.6318 30.8075C31.4585 31.1223 32.3877 30.9984 33.1045 30.4788C33.82 29.9592 34.2245 29.1122 34.1815 28.2286L34.1133 26.862C34.1069 26.7343 34.1474 26.6079 34.2283 26.5081L35.0867 25.4423C35.6417 24.7533 35.8111 23.8305 35.538 22.9898C35.2637 22.1479 34.5848 21.5006 33.7302 21.2693L32.4105 20.9115C32.2866 20.8786 32.1791 20.8003 32.1083 20.6928L31.3599 19.5475C30.877 18.8067 30.0515 18.3604 29.1666 18.3604C28.2816 18.3604 27.4561 18.8067 26.9732 19.5475ZM28.7279 20.6941C28.8253 20.5461 28.9895 20.4565 29.1666 20.4565C29.3436 20.4565 29.5079 20.5461 29.6053 20.6941L30.3536 21.8394C30.705 22.378 31.2424 22.7673 31.8618 22.9354L33.1828 23.2932C33.3535 23.34 33.4888 23.4689 33.5432 23.6371C33.5987 23.8052 33.5646 23.9898 33.4534 24.1276L32.595 25.1933C32.193 25.6939 31.9869 26.3247 32.0198 26.967L32.0868 28.3323C32.0956 28.5092 32.0148 28.6786 31.8719 28.7823C31.729 28.8872 31.5432 28.9113 31.3776 28.848L30.0995 28.3613C29.4978 28.1338 28.8353 28.1338 28.2336 28.3613L26.9556 28.848C26.7899 28.9113 26.6041 28.8872 26.4612 28.7823C26.3184 28.6786 26.2375 28.5092 26.2463 28.3323L26.3133 26.967C26.3462 26.3247 26.1401 25.6939 25.7381 25.1933L24.8797 24.1276C24.7685 23.9898 24.7344 23.8052 24.79 23.6371C24.8444 23.4689 24.9796 23.34 25.1503 23.2932L26.4713 22.9354C27.0907 22.7673 27.6281 22.378 27.9795 21.8394L28.7279 20.6941Z" fill="#EB662B"/>
</g>
</g>
<defs>
<clipPath id="clip0_1_4578">
<rect width="50.2903" height="50.2903" fill="white" transform="translate(0.803711 0.128906)"/>
</clipPath>
<clipPath id="clip1_1_4578">
<rect width="50.2903" height="50.2903" fill="white" transform="translate(0.803711 0.128906)"/>
</clipPath>
</defs>
</svg>
