<svg width="33" height="33" viewBox="0 0 33 33" fill="none" xmlns="http://www.w3.org/2000/svg">
<g clip-path="url(#clip0_1_5833)">
<path d="M16.1471 14.9945C13.0408 14.1871 12.0419 13.3524 12.0419 12.0524C12.0419 10.5608 13.4239 9.52085 15.7365 9.52085C17.6797 9.52085 18.6512 10.2598 19.007 11.4366C19.1712 11.984 19.6228 12.3945 20.1975 12.3945H20.6081C21.5112 12.3945 22.1544 11.505 21.8396 10.6566C21.2649 9.04191 19.9239 7.70088 17.7892 7.18088V6.23669C17.7892 5.10091 16.8723 4.18408 15.7365 4.18408C14.6008 4.18408 13.6839 5.10091 13.6839 6.23669V7.13983C11.0292 7.71456 8.89453 9.43875 8.89453 12.0798C8.89453 15.2408 11.5082 16.8144 15.326 17.7313C18.747 18.5523 19.4312 19.7565 19.4312 21.0291C19.4312 21.9733 18.7607 23.4786 15.7365 23.4786C13.4787 23.4786 12.3155 22.6712 11.864 21.5217C11.6587 20.9881 11.1934 20.6049 10.6324 20.6049H10.2492C9.33242 20.6049 8.68927 21.5354 9.03137 22.3838C9.81136 24.2859 11.6313 25.408 13.6839 25.8459V26.7627C13.6839 27.8985 14.6008 28.8153 15.7365 28.8153C16.8723 28.8153 17.7892 27.8985 17.7892 26.7627V25.8733C20.4575 25.367 22.5786 23.8207 22.5786 21.0154C22.5786 17.1292 19.2533 15.8018 16.1471 14.9945Z" fill="white"/>
</g>
<defs>
<clipPath id="clip0_1_5833">
<rect width="32.8417" height="32.8417" fill="white" transform="translate(0 0.0791016)"/>
</clipPath>
</defs>
</svg>
