<svg width="24" height="24" viewBox="0 0 24 24" fill="none" xmlns="http://www.w3.org/2000/svg">
<path d="M18 23H6C4.93951 22.9988 3.9228 22.577 3.17291 21.8271C2.42303 21.0772 2.00121 20.0605 2 19V11.9082C1.99919 11.1184 2.23304 10.3461 2.67188 9.68945L5.27734 5.78125C5.6422 5.23294 6.137 4.78338 6.71767 4.4726C7.29835 4.16182 7.94686 3.99947 8.60547 4H15.3945C16.0531 3.99946 16.7017 4.16182 17.2823 4.4726C17.863 4.78338 18.3578 5.23294 18.7227 5.78125L21.3281 9.68945C21.767 10.3461 22.0008 11.1184 22 11.9082V19C21.9988 20.0605 21.577 21.0772 20.8271 21.8271C20.0772 22.577 19.0605 22.9988 18 23ZM8.60547 6C8.27617 5.99973 7.95191 6.08091 7.66157 6.2363C7.37124 6.39169 7.12384 6.61648 6.94141 6.89063L4.33594 10.7988C4.11659 11.1272 3.99967 11.5133 4 11.9082V19C4.00053 19.5303 4.21142 20.0387 4.58637 20.4136C4.96133 20.7886 5.46973 20.9995 6 21H18C18.5303 20.9995 19.0387 20.7886 19.4136 20.4136C19.7886 20.0387 19.9995 19.5303 20 19V11.9082C20.0003 11.5133 19.8834 11.1272 19.6641 10.7988L17.0586 6.89063C16.8762 6.61648 16.6288 6.39169 16.3384 6.2363C16.0481 6.08091 15.7238 5.99973 15.3945 6H8.60547Z" fill="black"/>
<path d="M8.99979 19.0003C8.80204 19.0003 8.60874 18.9416 8.44433 18.8317C8.27992 18.7218 8.15178 18.5657 8.07611 18.383C8.00044 18.2003 7.98064 17.9992 8.0192 17.8053C8.05777 17.6113 8.15298 17.4332 8.29279 17.2933L14.2928 11.2933C14.4809 11.1086 14.7343 11.0057 14.9979 11.0068C15.2615 11.008 15.514 11.1133 15.7004 11.2997C15.8868 11.4861 15.9921 11.7386 15.9933 12.0022C15.9945 12.2658 15.8915 12.5192 15.7068 12.7073L9.70679 18.7073C9.61406 18.8003 9.50386 18.8741 9.38253 18.9244C9.2612 18.9747 9.13112 19.0005 8.99979 19.0003Z" fill="black"/>
<path d="M9.5 14C10.3284 14 11 13.3284 11 12.5C11 11.6716 10.3284 11 9.5 11C8.67157 11 8 11.6716 8 12.5C8 13.3284 8.67157 14 9.5 14Z" fill="black"/>
<path d="M14.5 19C15.3284 19 16 18.3284 16 17.5C16 16.6716 15.3284 16 14.5 16C13.6716 16 13 16.6716 13 17.5C13 18.3284 13.6716 19 14.5 19Z" fill="black"/>
<path d="M14 9H10C9.73478 9 9.48043 8.89464 9.29289 8.70711C9.10536 8.51957 9 8.26522 9 8C9 7.73478 9.10536 7.48043 9.29289 7.29289C9.48043 7.10536 9.73478 7 10 7H14C14.2652 7 14.5196 7.10536 14.7071 7.29289C14.8946 7.48043 15 7.73478 15 8C15 8.26522 14.8946 8.51957 14.7071 8.70711C14.5196 8.89464 14.2652 9 14 9Z" fill="black"/>
<path d="M12 9C11.7348 9 11.4804 8.89465 11.2929 8.70711C11.1054 8.51957 11 8.26522 11 8V5.36865C11.0014 4.21044 11.4621 3.10005 12.2811 2.28107C13.1 1.46208 14.2104 1.00138 15.3687 1H16.1973C16.9166 0.999148 17.625 1.17634 18.2592 1.51577C18.8934 1.8552 19.4337 2.34631 19.832 2.94531C20.0479 3.27009 20.3409 3.53637 20.6848 3.7204C21.0286 3.90443 21.4127 4.00049 21.8027 4H22C22.2652 4 22.5196 4.10536 22.7071 4.2929C22.8946 4.48043 23 4.73479 23 5C23 5.26522 22.8946 5.51957 22.7071 5.70711C22.5196 5.89465 22.2652 6 22 6H21.8027C21.0834 6.00086 20.375 5.82367 19.7408 5.48424C19.1066 5.14481 18.5663 4.65369 18.168 4.05469C17.9521 3.72992 17.6591 3.46364 17.3152 3.27961C16.9714 3.09558 16.5873 2.99952 16.1973 3H15.3687C14.7407 3.00069 14.1386 3.25046 13.6945 3.69452C13.2505 4.13858 13.0007 4.74066 13 5.36865V8C13 8.26522 12.8946 8.51957 12.7071 8.70711C12.5196 8.89465 12.2652 9 12 9Z" fill="black"/>
</svg>
