<svg width="23" height="20" viewBox="0 0 23 20" fill="none" xmlns="http://www.w3.org/2000/svg">
<path d="M22.5073 9.99975C22.5073 5.63505 19.9108 1.86374 16.1465 0.0830078V19.9164C19.9108 18.1358 22.5073 14.3644 22.5073 9.99975V9.99975Z" fill="#D80027"/>
<path d="M0 9.99974C0 14.3644 2.5965 18.1358 6.36085 19.9165V0.0830078C2.5965 1.86374 0 5.63505 0 9.99974Z" fill="#D80027"/>
<path d="M13.2104 11.436L15.1675 10.4787L14.189 10V9.0427L12.2318 10L13.2104 8.08537H12.2318L11.2532 6.64941L10.2746 8.08537H9.29601L10.2746 10L8.31742 9.0427V10L7.33887 10.4787L9.29601 11.436L8.80674 12.3933H10.7639V13.8293H11.7425V12.3933H13.6997L13.2104 11.436Z" fill="#D80027"/>
</svg>
