<svg width="22" height="16" viewBox="0 0 22 16" fill="none" xmlns="http://www.w3.org/2000/svg">
<path d="M5.5 6C5.77614 6 6 5.77614 6 5.5C6 5.22386 5.77614 5 5.5 5C5.22386 5 5 5.22386 5 5.5C5 5.77614 5.22386 6 5.5 6Z" fill="black"/>
<path d="M14 1L20.3 7.3C20.5237 7.52297 20.7013 7.78791 20.8224 8.07964C20.9435 8.37136 21.0059 8.68413 21.0059 9C21.0059 9.31587 20.9435 9.62864 20.8224 9.92036C20.7013 10.2121 20.5237 10.477 20.3 10.7L16 15M8.586 1.586C8.21101 1.2109 7.70239 1.00011 7.172 1H2C1.73478 1 1.48043 1.10536 1.29289 1.29289C1.10536 1.48043 1 1.73478 1 2V7.172C1.00011 7.70239 1.2109 8.21101 1.586 8.586L7.29 14.29C7.74451 14.7416 8.35925 14.9951 9 14.9951C9.64075 14.9951 10.2555 14.7416 10.71 14.29L14.29 10.71C14.7416 10.2555 14.9951 9.64075 14.9951 9C14.9951 8.35925 14.7416 7.74451 14.29 7.29L8.586 1.586ZM6 5.5C6 5.77614 5.77614 6 5.5 6C5.22386 6 5 5.77614 5 5.5C5 5.22386 5.22386 5 5.5 5C5.77614 5 6 5.22386 6 5.5Z" stroke="black" stroke-width="2" stroke-linecap="round" stroke-linejoin="round"/>
</svg>
